<?xml version="1.0" encoding="UTF-8"?>
<svg id="Layer_1" xmlns="http://www.w3.org/2000/svg" version="1.1" viewBox="0 0 2500 2500">
  <!-- Generator: Adobe Illustrator 29.1.0, SVG Export Plug-In . SVG Version: 2.1.0 Build 142)  -->
  <defs>
    <style>
      .st0 {
        fill: #4285f4;
      }

      .st1 {
        fill: #c4f6e1;
      }

      .st2 {
        fill: #008b2b;
      }

      .st3 {
        fill: #d7f2cb;
      }

      .st4 {
        fill: #020202;
      }

      .st5 {
        fill: #fff;
      }

      .st6 {
        fill: #dfe3e8;
      }

      .st7 {
        fill: #b9bec6;
      }

      .st8 {
        fill: #3f383a;
      }

      .st9 {
        display: none;
      }
    </style>
  </defs>
  <g id="Background" class="st9">
    <rect class="st8" width="2500" height="2500"/>
  </g>
  <g id="Illustration">
    <g id="International_transport">
      <g>
        <g>
          <g class="st9">
            <path class="st5" d="M1113.6,366.4l-6.5-7.2c2.3,2.2,4.5,4.6,6.5,7.2Z"/>
            <path class="st4" d="M1113.6,368.6c-.6,0-1.2-.2-1.6-.7l-6.5-7.2c-.8-.9-.7-2.2,0-3.1.9-.8,2.2-.8,3.1,0,2.4,2.4,4.7,4.9,6.7,7.4.7.9.6,2.3-.3,3-.5.4-1,.6-1.5.6Z"/>
          </g>
          <g class="st9">
            <g>
              <g>
                <path class="st5" d="M1311.4,586.3l-119.9,91.4-136.9-173.2-125.4,79.4v358.7l-335.2,154.1v-200.9h-174.5c-27.4,2-54.9-10.8-70.6-35.6-22.7-35.9-12-83.4,23.8-106.1l639.5-404.9c30.7-19.5,70-14.4,94.9,10l6.5,7.2,197.8,219.9Z"/>
                <path d="M594,1098.9c-.4,0-.8,0-1.2-.3-.6-.4-1-1.1-1-1.9v-198.7h-172.3c-29,2.1-56.8-11.9-72.4-36.6-11.3-17.8-15-39-10.4-59.6s17-38.2,34.9-49.5l639.5-404.9c31.2-19.7,71.3-15.5,97.6,10.2l204.3,227.2c.4.5.6,1.1.6,1.7,0,.6-.4,1.2-.9,1.5l-119.9,91.4c-1,.7-2.3.6-3.1-.4l-135.7-171.7-122.7,77.7v357.5c0,.9-.5,1.6-1.3,2l-335.2,154.2c-.2.2-.5.2-.8.2ZM594,893.6c1.2,0,2.2,1,2.2,2.2v197.5l330.8-152.1v-357.3c0-.8.4-1.5,1-1.9l125.4-79.4c1-.6,2.2-.4,2.9.5l135.5,171.6,116.3-88.6-202.6-225.3c-24.7-24.2-62.6-28.2-92.1-9.6l-639.5,404.8c-16.9,10.7-28.5,27.3-32.9,46.7-4.4,19.5-.9,39.5,9.8,56.3,14.8,23.3,41,36.5,68.5,34.6h174.7Z"/>
              </g>
              <path d="M697.7,898h-103.9c-1.2,0-2.2-1-2.2-2.2s1-2.2,2.2-2.2h101.7v-151h-247.6c-1.2,0-2.2-1-2.2-2.2s1-2.2,2.2-2.2h249.8c1.2,0,2.2,1,2.2,2.2v155.4c0,1.2-1,2.2-2.2,2.2Z"/>
            </g>
          </g>
          <g>
            <circle class="st0" cx="1258.7" cy="1375.7" r="729"/>
            <g>
              <path class="st6" d="M1051,1496.1l-71.7-31.9-31.9-66.9h-38.2l-17.5-35h-33.5l-17.5-11.2h-78l-42.5,31.9,12.7,24.9-8.5,37.2-28.7,25.5,4.2,28.7-10.6,17,68.5,103.3,46.2,35,4.8,112.3,10.4,36.6-7.2,46.2,26.3,54.2,23.1,76.5,20.2,19.4c9.9,6,19.9,11.7,30.1,17.2h41.3l2.4-15.1-27.9-8.8-19.1-26.3,11.9-26.3-14.3-14.3,21.5-62.1,24.7-11.2,55.8-101.9v-31.9l14.3-14.3h47.8l15.9-105.1,27.1-60.5-30.3-43h-31.8Z"/>
              <path class="st6" d="M534.1,1296l40.6,20.1,19.9-4,22.3,24.7,35,10.4,7.2,23.1,30.3,21.5,24.7,12.7v-31.1h-17.5l-7.2-14.4,3.2-53.3h-39l16.7-47.8h-36.6l-8.8,24.7-36.6-5.6-5.6-44.6,11.2-19.9v-17.5l35.8-17.5,30.3,9.6,29.5-15.9,24.7,9.6v38.2l23.1-5.3-2.1-52,54.2-32.9,39.3-60.5,23.4-4.2,34-30.8,8.5,11.7,53.1-22.3-25.5-11.7,14.9-30.8,37.2,1.1-8.5,18.1,49.9,10.6,6.4-29.7-12.7-6.4,3.2-46.7-23.4-3.2-2.1-44.6-35,15.9-4.2-20.2-46.2-13.8-27.1,51-29.7,19.1-13.8,29.7-17-5.3,12.7-30.8-52-20.2-7.4-22.3,61.6-27.6,58.4-2.1,35-49.9,23.4-1.1,17,15.9-22.8,15.8-28.7,8.5,62.7,25.5,56.3-44.6-49.4-57.1h-79.6l-16.5,14.3v17.3l-17,2.7-4.8-23.4-31.9,11.7v19.6l-32.7,2.4c-144.6,117.9-243.1,290.1-264.3,485.6Z"/>
              <polygon class="st6" points="686.7 1247.1 710.6 1237 736.6 1242 774.3 1266.7 765.8 1278.9 745.1 1271.5 730.5 1255 710.6 1251.8 686.7 1260.3 686.7 1247.1"/>
              <polygon class="st6" points="788.1 1272.6 813.6 1272.6 832.2 1287.4 810.2 1296.4 774.3 1293.8 788.1 1272.6"/>
              <polygon class="st6" points="1035.6 728.3 1077 728.3 1132.2 705 1308.5 694.3 1380.7 706 1339.3 723 1330.8 758.1 1303.2 772.9 1298.9 798.4 1256.4 814.3 1229.9 814.3 1203.3 834.5 1174.7 834.5 1121.6 886.5 1104.6 874.9 1081.2 855.8 1082.3 813.3 1107.8 802.7 1096.1 779.3 1098.2 755.9 1069.5 746.4 1043 750.6 1035.6 728.3"/>
              <polygon class="st6" points="1285.1 825 1340.3 825 1344.6 838.8 1309.5 852.6 1285.1 852.6 1268.9 825 1285.1 825"/>
              <polygon class="st6" points="1839.4 1589.5 1821.4 1623.5 1795.9 1629.9 1795.9 1667 1784.2 1684 1789.5 1722.3 1807.6 1729.7 1822.4 1719.1 1854.3 1624.6 1839.4 1589.5"/>
              <polygon class="st6" points="1863.8 1351.1 1859.6 1383 1829.9 1438.7 1799.1 1455.7 1769.3 1497.1 1758.7 1524.8 1770.4 1573.6 1770.4 1625.6 1723.7 1659.6 1723.7 1710.6 1703.5 1725.5 1692.9 1757.3 1646.3 1800.8 1574.5 1820 1561.2 1777.5 1561.2 1757.3 1540 1739.3 1534.7 1691.5 1514.5 1646.9 1519.8 1602.3 1532.5 1589.5 1521.9 1533.2 1489 1484.4 1489 1432.4 1464.6 1424.9 1447.6 1406.9 1400.9 1424.9 1371.1 1416.4 1344.6 1427.1 1295.7 1393.1 1258.6 1327.2 1269.2 1297.5 1268.1 1246.5 1291.5 1200.9 1315.9 1181.8 1339.3 1146.7 1371.1 1118 1397.7 1118 1418.9 1108.5 1508.1 1101.1 1508.1 1132.9 1540 1144.6 1574.5 1165.8 1589.9 1143.5 1640.8 1159.5 1687.6 1156.3 1703.5 1205.1 1732.2 1248.7 1739.6 1279.5 1757.7 1315.6 1799.1 1362.3 1863.8 1351.1"/>
              <path class="st6" d="M1846.6,1192.6l35,14.3,15.9-4,6.4,11.9,28.7,10.4,38.6-4.3c-35.6-164.7-126.8-308.7-253.1-411.3l-13.6,5.7-103.3-30.8-51.8,5.8-37.2,48.3-52.8,28.1,17.5,32.7,27.9-13,11.2,17.8,1.6,19.1,31.9-9.6.8-17.5,15.1-9.8-12.7-24.4,28.7-31.1,19.9,7.7-26.8,20.2,6.1,17.5,20.7,19.9-18.3,9.6-12.7,27.1h-71.7l4-27.1-19.1,4.8,1.6,25.5-24.7,10.4-27.1,28.7h-21.5l-31.1,15.1,31.9,27.9-.8,19.9-54.2,1.6-21.5,37.4,8.5,23.9,24.2,8.8,37.4-8.8,11.9-20.7,23.1-13.9,8.8-28.3,21.5,8,22.3-15.1,18.3,28.7,29.9,12.7v13.5l-24.3,5.6,27.5,18.3,4.4-15.1,16.7-26.3-31.1-20.7-11.2-24.7,50.5,34.2,13.2,36.6,21.5,13.5,6.4-43,13.5,4.8v24.7l25.5,18.3,18.3-4.8,17.5,5.6,20.7-2.4-8,56.5,40.6,72.5,9.6,28.7,51.8,75.7,58.7-28.7,52-33.5,11.9-33.4-34.2-30.3-17.5,9.6-19.9-2.4-15.1-22.2-23.1-27.9,18.3-4,10.4,21.5Z"/>
              <polygon class="st6" points="1409.9 897.7 1416.3 924.2 1436.4 949.2 1415.7 967.8 1386.5 970.4 1397.7 934.1 1380.7 908.3 1394.5 890.3 1409.9 897.7"/>
              <polygon class="st6" points="1384.4 930.4 1358.4 930.4 1344.6 963 1376.4 956.1 1384.4 930.4"/>
            </g>
            <path d="M1258.7,2106.9c-195.3,0-378.9-76.1-517-214.2s-214.2-321.7-214.2-517,76.1-378.9,214.2-517c138.1-138.1,321.7-214.2,517-214.2s378.9,76.1,517,214.2c138.1,138.1,214.2,321.7,214.2,517s-76.1,378.9-214.2,517c-138,138.1-321.7,214.2-517,214.2ZM1258.7,648.9c-400.8,0-726.8,326-726.8,726.8s326,726.8,726.8,726.8,726.8-326,726.8-726.8-326-726.8-726.8-726.8Z"/>
          </g>
          <g class="st9">
            <rect class="st5" x="1172" y="620.1" width="60.9" height="43.5" transform="translate(-142.6 862.5) rotate(-37.4)"/>
            <path class="st5" d="M1191.5,679.9h-.3c-.6,0-1.1-.4-1.5-.8l-26.4-34.6c-.7-1-.6-2.3.4-3.1l48.4-37c.5-.4,1-.5,1.6-.4s1.1.4,1.5.8l26.4,34.6c.7,1,.6,2.3-.4,3.1l-48.4,37c-.4.2-.8.4-1.3.4ZM1168.2,643.6l23.8,31.1,44.9-34.3-23.8-31.1-44.9,34.3Z"/>
          </g>
          <g class="st9">
            <path class="st6" d="M697.7,766.4v109.7h178.8c6.1,0,11.9,2.6,16,7.1l8.5,9.5c7.7,8.5,21.3,7.8,28-1.5,4.5-6.2,4.4-14.5.2-20.6l4.7-6.6c5.4-7.6,4.8-17.9-1.5-24.7l-4.8-5.2c4.8-7.5,4-17.3-2.1-23.9l-8-8.6h0c3.3-7.2,2.1-15.8-3.4-21.7l-7.1-7.7c-13.6-14.6-32.6-23-52.6-23h-67.2c-27.9,0-35.1,17-47.4,17h-42.2v.2Z"/>
            <polygon class="st4" points="736.8 766.4 697.7 876.1 697.7 766.4 736.8 766.4"/>
            <g>
              <path d="M927.6,836.4c-.4,0-.8,0-1.2-.4-1-.7-1.3-2-.7-3,4.3-6.7,3.5-15.4-1.9-21.2l-12.5-13.5c-9.6-10.4-23.3-16.4-37.5-16.4h-34.5c-1.2,0-2.2-1-2.2-2.2s1-2.2,2.2-2.2h34.5c15.4,0,30.3,6.5,40.7,17.8l12.5,13.5c6.7,7.3,7.7,18.2,2.3,26.6-.3.6-1,1-1.7,1Z"/>
              <path d="M929.1,872.9c-.4,0-.9,0-1.3-.4-1-.7-1.2-2.1-.5-3.1l4.8-6.6c4.8-6.7,4.2-15.9-1.3-21.9l-15-16.2c-8.1-8.7-19.5-13.7-31.3-13.7h-45.5c-1.2,0-2.2-1-2.2-2.2s1-2.2,2.2-2.2h45.3c13.1,0,25.7,5.5,34.6,15.1l15,16.2c7,7.6,7.7,19.1,1.7,27.5l-4.8,6.6c-.4.6-1.1.9-1.7.9Z"/>
              <path d="M805.9,878.3h-110.4v-114.1h44.5c4.3,0,8-2.5,12.8-5.6,7.7-5.1,17.2-11.4,34.6-11.4h67.2c20.5,0,40.3,8.6,54.2,23.7l7.1,7.7c6.1,6.5,7.5,16,3.7,24-.5,1.1-1.8,1.6-2.9,1.1-1.1-.5-1.6-1.8-1.1-2.9,3-6.4,1.9-14-3-19.2l-7.1-7.7c-13.1-14.2-31.7-22.3-51-22.3h-67.2c-16.1,0-25,5.9-32.2,10.7-5.1,3.4-9.6,6.4-15.2,6.4h-40.1v105.3h106c1.2,0,2.2,1,2.2,2.2,0,1.1-.9,2.1-2.1,2.1Z"/>
              <path d="M914.3,900.9c-5.7,0-11.2-2.4-15-6.7l-8.5-9.5c-3.6-4.1-8.9-6.4-14.3-6.4h-107.8c-19.5,0-37.6-9.6-48.6-25.8-.7-1-.4-2.4.6-3.1,1-.7,2.4-.4,3.1.6,10.1,14.9,26.9,23.8,44.9,23.8h107.7c6.7,0,13.1,2.9,17.6,7.9l8.5,9.5c3.2,3.6,7.8,5.5,12.6,5.2s9.2-2.6,12-6.5c4.4-6.1,3.9-14.4-1.2-19.9l-15.7-16.9c-8.2-8.9-19.8-14-31.9-14h-37.7c-1.2,0-2.2-1-2.2-2.2s1-2.2,2.2-2.2h37.7c13.3,0,26.1,5.6,35.2,15.4l15.7,16.9c6.5,7,7.2,17.7,1.6,25.5-3.6,5-9.2,8-15.3,8.4h-1.2Z"/>
            </g>
          </g>
          <g class="st9">
            <g>
              <path class="st6" d="M1347.3,770.5l30.1-12.6,29.3,59c4.3,8.7,1.1,18.6-7.2,22-8.3,3.5-18.5-.7-22.9-9.4l-29.3-59Z"/>
              <path class="st6" d="M1369.6,742.1l30.1-12.6,29.3,59c4.3,8.7,1.1,18.6-7.2,22-8.3,3.5-18.5-.7-22.9-9.4l-29.3-59Z"/>
              <path class="st6" d="M1397,724.2l26.9-11.3,26.2,52.7c3.9,7.8,1,16.6-6.5,19.7-7.4,3.1-16.6-.7-20.4-8.4l-26.2-52.7Z"/>
              <path class="st6" d="M1329.2,807.5l22.8-22.8,92.1,92.1c6.3,6.3,6.3,16.5,0,22.8s-16.5,6.3-22.8,0l-92.1-92.1Z"/>
              <path class="st6" d="M1245.3,730.9l63.5,17.3,3,112.8c1,9.4-5.8,17-15.1,17.1-9.3,0-17.7-7.5-18.6-16.8l-5.4-50.8-27.4-79.6Z"/>
              <polygon class="st6" points="1245.3 728.1 1197.9 672 1295.5 596.9 1334.3 644.2 1423.7 712.8 1329.2 807.5 1245.3 728.1"/>
              <polygon class="st4" points="1197.9 672 1297.5 596.9 1224.4 702.3 1197.9 672"/>
              <path d="M1405.6,836.6c-.6,0-1.2-.2-1.6-.7-.8-.9-.7-2.3.2-3.1,3.8-3.4,4-7.9.5-14.8l-26-52.7c-.5-1.1,0-2.4,1-2.9s2.4,0,2.9,1l26,52.7c2.7,5.5,5.6,13.6-1.5,20-.4.3-.9.5-1.5.5Z"/>
              <path d="M1415.7,813.9c-7.5,0-15.1-4.5-18.7-11.9l-18.3-36.8c-.5-1.1,0-2.4,1-3,1.1-.5,2.4,0,3,1l18.3,36.8c3.8,7.7,12.8,11.4,20,8.4,3.2-1.4,5.7-3.9,6.9-7.2,1.4-3.7,1.1-8-.8-11.8l-26.2-52.5c-.5-1.1,0-2.4,1-3,1.1-.5,2.4,0,3,1l26.2,52.5c2.4,4.9,2.8,10.5,1,15.3-1.7,4.5-5,7.9-9.4,9.7-2.3,1.1-4.7,1.5-7,1.5Z"/>
              <path d="M1438.1,788.6c-6.8,0-13.6-4.1-16.9-10.7l-20.3-40.9c-.5-1.1,0-2.4,1-3,1.1-.5,2.4,0,3,1l20.3,40.9c3.3,6.7,11.2,10,17.6,7.4,2.8-1.2,5-3.4,6.1-6.3,1.2-3.2.9-7-.7-10.4l-26.2-52.7c-.5-1.1,0-2.4,1-3,1.1-.5,2.4,0,3,1l26.2,52.7c2.2,4.4,2.5,9.5.9,13.8-1.5,4-4.5,7.2-8.5,8.8-2.2,1-4.4,1.4-6.5,1.4Z"/>
              <path d="M1432.7,906.5c-4.9,0-9.5-1.9-12.9-5.4l-92.1-92.1c-.9-.9-.9-2.3,0-3.1.9-.9,2.3-.9,3.1,0l92.1,92.1c2.6,2.6,6.1,4.1,9.8,4.1s7.2-1.4,9.8-4.1c5.4-5.4,5.4-14.2,0-19.6l-90.2-94.1c-.8-.9-.8-2.3,0-3.1s2.3-.8,3.1,0l90.1,94.1c3.4,3.4,5.3,8,5.3,12.9s-1.9,9.5-5.4,12.9c-3.3,3.4-7.9,5.3-12.8,5.3Z"/>
              <path d="M1296.6,880.2c-10.3,0-19.6-8.4-20.7-18.8l-5.3-50.6-27.2-81.6-46.7-55.2c-.8-.9-.7-2.3.3-3.1.9-.8,2.3-.7,3.1.3l47,55.6c.2.2.3.5.4.7l27.4,82.3c0,.2,0,.3,0,.5l5.4,50.8c.9,8.2,8.2,14.9,16.3,14.9h0c3.8,0,7.3-1.5,9.7-4.2,2.5-2.8,3.6-6.5,3.2-10.4l-1.9-71.3c0-1.2.9-2.2,2.1-2.3s2.2.9,2.3,2.1l1.9,71.1c.5,5-1,9.9-4.3,13.6-3.3,3.7-7.9,5.7-13,5.7-.1,0-.2,0-.2,0Z"/>
              <path d="M1329.2,809.7c-.5,0-1.1-.2-1.5-.6l-37.9-34.6c-.9-.8-1-2.2,0-3.1.8-.9,2.2-1,3.1,0l37.9,34.6c.9.8,1,2.2,0,3.1-.4.4-1,.7-1.6.7Z"/>
              <path d="M1423.7,715c-.5,0-.9,0-1.3-.5l-89.5-68.6c0,0-.3-.2-.4-.4l-37.7-46c-.8-.9-.6-2.3.3-3.1s2.3-.6,3.1.3l37.5,45.8,89.3,68.4c1,.7,1.1,2.1.4,3.1-.4.7-1,1-1.7,1Z"/>
            </g>
            <path d="M1191.5,679.9c-.7,0-1.3-.3-1.7-.8l-175.6-222.2c-.8-1-.6-2.3.4-3.1,1-.8,2.3-.6,3.1.4l174.2,220.5,118.2-90.1c1-.7,2.3-.6,3.1.4.7,1,.6,2.3-.4,3.1l-119.9,91.4c-.5.3-1,.4-1.4.4Z"/>
          </g>
        </g>
        <g class="st9">
          <ellipse cx="697.7" cy="432.2" rx="74.5" ry="73"/>
          <g>
            <polygon class="st6" points="688.6 556.5 746.1 584.6 746.1 479.2 688.6 479.2 688.6 556.5"/>
            <path d="M746.1,586.8c-.3,0-.7,0-1-.2l-57.5-28.1c-.8-.4-1.2-1.1-1.2-2v-77.3c0-1.2,1-2.2,2.2-2.2h57.5c1.2,0,2.2,1,2.2,2.2v105.4c0,.8-.4,1.5-1,1.9-.4.2-.8.3-1.2.3ZM690.8,555.2l53.1,25.9v-99.7h-53.1v73.8Z"/>
          </g>
          <path d="M688.6,501v-21.8h57.5v48.1c-5.2,1-15.5,2.3-27.4-1.6-18.6-6.1-27.7-20.6-30.1-24.7Z"/>
          <g>
            <ellipse class="st6" cx="725.2" cy="462.2" rx="46.2" ry="51.1"/>
            <path d="M725.2,515.5c-26.7,0-48.4-23.9-48.4-53.3s21.7-53.3,48.4-53.3,48.4,23.9,48.4,53.3c0,29.4-21.7,53.3-48.4,53.3ZM725.2,413.3c-24.3,0-44,21.9-44,48.9s19.8,48.9,44,48.9,44-21.9,44-48.9-19.8-48.9-44-48.9Z"/>
          </g>
          <path class="st5" d="M705.4,484.4c4.5,4.1,10.2,6.9,16.7,7.5,14.5,1.5,27.5-7.9,31.1-21.6l-47.8,14.1Z"/>
        </g>
      </g>
      <g>
        <g>
          <path class="st2" d="M911.3,1426.8l-132.7-227.4c-32.5-92.8,36.7-189.8,135-189.3s166.5,98.3,132.9,190.7l-135.2,226Z"/>
          <path d="M911.3,1429h0c-.8,0-1.5-.4-1.9-1.1l-119.2-204.2c-18-30.9-24.1-67.2-17-102.2,7.1-35.3,26.9-66.1,55.8-86.7,24.7-17.7,53.9-26.8,84.7-26.7,30.7.2,59.9,9.7,84.4,27.7,28.6,21,48.1,52,54.8,87.4,6.7,35.1.2,71.3-18.2,102.1l-121.4,202.9c-.5.4-1.2.8-2,.8ZM912.8,1012.3c-29.5,0-57.6,9-81.3,25.9-57.1,40.9-73.6,121.4-37.5,183.2l117.3,201,119.5-199.7c36.8-61.4,21.2-142.1-35.5-183.6-23.7-17.4-52-26.7-81.8-26.8h-.7Z"/>
          <circle class="st5" cx="912.8" cy="1153.3" r="86.5"/>
          <path d="M912.8,1242h-.5c-23.7,0-45.9-9.5-62.6-26.3-16.7-16.8-25.8-39.2-25.6-62.8,0-23.7,9.5-45.9,26.3-62.6,16.7-16.5,38.8-25.6,62.3-25.6h.5c48.9.3,88.5,40.3,88.2,89.2-.2,48.7-39.9,88.1-88.6,88.1ZM912.8,1069.1c-22.3,0-43.4,8.6-59.2,24.4-16,15.8-24.9,36.9-25,59.5,0,22.5,8.5,43.7,24.4,59.7,15.8,16,36.9,24.9,59.5,25,46.5.3,84.5-37.3,84.7-83.8.3-46.5-37.3-84.5-83.8-84.7-.3,0-.4,0-.6,0ZM999.3,1153.8h0Z"/>
        </g>
        <g>
          <path class="st2" d="M1418.2,952.6l-90.4-154.8c-22.1-63.2,25-129.3,91.9-128.9,67,.4,113.4,66.9,90.5,129.9l-92,153.8Z"/>
          <path d="M1418.2,954.8h0c-.8,0-1.5-.4-1.9-1.1l-81.1-138.9c-25.5-43.6-14.8-98.9,24.7-128.5,17.1-12.9,37.6-19.7,59.3-19.7h.6c21.9,0,42.5,7.1,59.6,20.3,39.2,30.1,49.2,85.5,23.3,128.8l-82.6,138c-.4.6-1.1,1.1-1.9,1.1ZM1419.2,671c-20.7,0-40.3,6.5-56.6,18.8-37.7,28.3-47.8,81.1-23.5,122.8l79.2,135.6,80.7-134.8c24.8-41.4,15.3-94.3-22.2-123-16.4-12.6-36.1-19.3-57-19.4-.2,0-.4,0-.6,0Z"/>
          <circle class="st5" cx="1419.2" cy="766.3" r="58.9"/>
          <path d="M1419.2,827.4h-.3c-33.7-.2-60.9-27.7-60.8-61.4,0-16.3,6.5-31.6,18.1-43.1,11.5-11.4,26.8-17.7,43-17.7h.3c16.3,0,31.6,6.5,43.1,18.1s17.7,27,17.7,43.3c-.2,33.7-27.5,60.8-61.1,60.8ZM1419.2,709.7c-15,0-29.2,5.8-39.9,16.4-10.8,10.6-16.7,24.9-16.8,40-.2,31.3,25.1,56.8,56.4,57h.3c31.1,0,56.5-25.2,56.7-56.4h2.2-2.2c.2-31.3-25.1-56.8-56.4-57h-.3Z"/>
        </g>
        <g>
          <path class="st2" d="M1621,1754.3l-113.5-194.4c-27.8-79.4,31.4-162.3,115.5-161.8s142.3,84.1,113.7,163.1l-115.7,193.1Z"/>
          <path d="M1621,1756.5h0c-.8,0-1.5-.4-1.9-1.1l-101.9-174.6c-15.5-26.5-20.7-57.6-14.6-87.7,6.1-30.2,23.1-56.6,47.8-74.4,21-15,45.8-22.9,71.9-22.9h.7c26.3,0,51.4,8.4,72.3,23.7,24.6,18,41.2,44.6,47,74.9,5.7,30.1.2,61.2-15.6,87.5l-103.8,173.5c-.4.7-1.1,1.1-1.9,1.1ZM1622.3,1400.2c-25.2,0-49.1,7.6-69.3,22.1-48.7,34.9-62.7,103.5-32,156.2l100,171.4,101.9-170.3c31.4-52.4,18.1-121.1-30.2-156.6-20.2-14.8-44.3-22.7-69.8-22.9-.2.1-.4.1-.6.1Z"/>
          <circle class="st5" cx="1622.3" cy="1520.5" r="73.9"/>
          <path d="M1622.3,1596.6h-.4c-42-.2-76-34.6-75.7-76.6.2-41.8,34.4-75.7,76.1-75.7h.4c42,.2,76,34.6,75.7,76.6-.2,41.8-34.3,75.7-76.1,75.7ZM1622.3,1448.7c-39.4,0-71.5,31.9-71.7,71.4-.2,39.6,31.8,71.9,71.3,72.1h.4c39.4,0,71.5-31.9,71.7-71.3.2-39.6-31.8-71.9-71.3-72.1-.2,0-.3,0-.4,0ZM1696.2,1520.9h0Z"/>
        </g>
      </g>
      <g>
        <g>
          <g>
            <rect class="st6" x="1175.3" y="1749" width="405.4" height="306.9"/>
            <path d="M1580.7,2058.1h-405.4c-1.2,0-2.2-1-2.2-2.2v-306.9c0-1.2,1-2.2,2.2-2.2h405.4c1.2,0,2.2,1,2.2,2.2v306.9c0,1.3-1,2.2-2.2,2.2ZM1177.5,2053.7h401v-302.5h-401v302.5Z"/>
            <path d="M1580.7,1799.5h-405.4c-1.2,0-2.2-1-2.2-2.2v-48.3c0-1.2,1-2.2,2.2-2.2h405.4c1.2,0,2.2,1,2.2,2.2v48.3c0,1.2-1,2.2-2.2,2.2ZM1177.5,1795.1h401v-43.9h-401v43.9Z"/>
            <g>
              <path d="M1461.3,1983.9c14.4,0,26.1-11.7,26.1-26.1v-26.1h-52.2v26.1c0,14.5,11.7,26.1,26.1,26.1Z"/>
              <path d="M1461.3,2018.5c-1.2,0-2.2-1-2.2-2.2v-58.4c0-1.2,1-2.2,2.2-2.2s2.2,1,2.2,2.2v58.4c0,1.2-1,2.2-2.2,2.2Z"/>
              <path d="M1480.3,2018.5h-37.9c-1.2,0-2.2-1-2.2-2.2s1-2.2,2.2-2.2h37.9c1.2,0,2.2,1,2.2,2.2s-1,2.2-2.2,2.2Z"/>
            </g>
            <g>
              <rect class="st5" x="1359.3" y="1742.1" width="33.6" height="142.3"/>
              <path d="M1393,1886.6h-33.6c-1.2,0-2.2-1-2.2-2.2v-142.3c0-1.2,1-2.2,2.2-2.2h33.6c1.2,0,2.2,1,2.2,2.2v142.3c0,1.2-1,2.2-2.2,2.2ZM1361.6,1882.2h29.2v-137.9h-29.2v137.9Z"/>
            </g>
            <g>
              <rect class="st5" x="1171.6" y="1823" width="413.4" height="33.6"/>
              <path d="M1585,1858.7h-413.4c-1.2,0-2.2-1-2.2-2.2v-33.6c0-1.2,1-2.2,2.2-2.2h413.4c1.2,0,2.2,1,2.2,2.2v33.6c0,1.2-1,2.2-2.2,2.2ZM1173.7,1854.3h409v-29.2h-409v29.2Z"/>
            </g>
            <g>
              <path d="M1498.8,1970.8h69.4c0-17.7-14.4-32.1-32.1-32.1h-5.1c-17.8,0-32.2,14.4-32.2,32.1Z"/>
              <path d="M1539.5,2018.5c-4.5,0-8.2-3.7-8.2-8.2v-78.5c0-1.2,1-2.2,2.2-2.2s2.2,1,2.2,2.2v78.5c0,2.1,1.7,3.8,3.8,3.8s3.8-1.7,3.8-3.8v-7.1c0-1.2,1-2.2,2.2-2.2s2.2,1,2.2,2.2v7.1c.1,4.5-3.6,8.2-8.2,8.2Z"/>
            </g>
          </g>
          <g>
            <g>
              <polygon class="st5" points="2071.1 1868.8 2071.1 1918.4 1883.3 1918.4 1883.3 1868.8 1915 1868.8 1938.1 1868.8 2007.6 1868.8 2071.1 1868.8"/>
              <rect class="st5" x="1982.1" y="1949.5" width="108.4" height="19.1"/>
              <rect class="st5" x="1847.9" y="1949.5" width="108.4" height="19.1"/>
              <path class="st5" d="M2107.3,1922.8v119h-278.8v-119h278.8ZM2094.9,1970.8v-23.5c0-1.2-1-2.2-2.2-2.2h-112.8c-1.2,0-2.2,1-2.2,2.2v23.5c0,1.2,1,2.2,2.2,2.2h112.8c1.2,0,2.2-.9,2.2-2.2ZM1960.7,1970.8v-23.5c0-1.2-1-2.2-2.2-2.2h-112.8c-1.2,0-2.2,1-2.2,2.2v23.5c0,1.2,1,2.2,2.2,2.2h112.8c1.2,0,2.2-.9,2.2-2.2Z"/>
              <path d="M2094.9,1947.3v23.5c0,1.2-1,2.2-2.2,2.2h-112.8c-1.2,0-2.2-1-2.2-2.2v-23.5c0-1.2,1-2.2,2.2-2.2h112.8c1.2,0,2.2,1,2.2,2.2ZM2090.5,1968.6v-19.1h-108.4v19.1h108.4Z"/>
              <path d="M2075.5,1918.4v2.2c0,1.2-1,2.2-2.2,2.2h-192.3c-1.2,0-2.2-1-2.2-2.2v-2.2h196.7Z"/>
              <path d="M2075.5,1866.6v51.8h-4.4v-49.6h-63.6c1.2,0,2.2-1,2.2-2.2v-2.2h63.6c1.2,0,2.2,1,2.2,2.2Z"/>
              <path d="M2009.8,1864.4v2.2c0,1.2-1,2.2-2.2,2.2s-2.2-1-2.2-2.2v-2.2h4.4Z"/>
              <path d="M2009.8,1828v36.5h-4.4v-36.5c0-1.2,1-2.2,2.2-2.2s2.2.9,2.2,2.2Z"/>
              <path d="M2005.4,1866.6c0,1.2,1,2.2,2.2,2.2h-69.4c1.2,0,2.2-1,2.2-2.2v-2.2h65v2.2h0Z"/>
              <path d="M1960.7,1947.3v23.5c0,1.2-1,2.2-2.2,2.2h-112.8c-1.2,0-2.2-1-2.2-2.2v-23.5c0-1.2,1-2.2,2.2-2.2h112.8c1.2,0,2.2,1,2.2,2.2ZM1956.3,1968.6v-19.1h-108.4v19.1h108.4Z"/>
              <path d="M1940.3,1864.4v2.2c0,1.2-1,2.2-2.2,2.2s-2.2-1-2.2-2.2v-2.2h4.4Z"/>
              <path d="M1940.3,1804.8v59.6h-4.4v-59.6c0-1.2,1-2.2,2.2-2.2s2.2,1,2.2,2.2Z"/>
              <path d="M1935.9,1866.6c0,1.2,1,2.2,2.2,2.2h-23.1c1.2,0,2.2-1,2.2-2.2v-2.2h18.7v2.2h0Z"/>
              <path d="M1917.2,1864.4v2.2c0,1.2-1,2.2-2.2,2.2s-2.2-1-2.2-2.2v-2.2h4.4Z"/>
              <path d="M1917.2,1804.8v59.6h-4.4v-59.6c0-1.2,1-2.2,2.2-2.2s2.2,1,2.2,2.2Z"/>
              <path d="M1912.8,1866.6c0,1.2,1,2.2,2.2,2.2h-31.7v49.6h-4.4v-51.8c0-1.2,1-2.2,2.2-2.2h31.7v2.2h0Z"/>
              <path d="M1878.9,1920.7c0,1.2,1,2.2,2.2,2.2h-52.6v119h278.8v-119h-34c1.2,0,2.2-1,2.2-2.2v-2.2h34c1.2,0,2.2,1,2.2,2.2v123.3c0,1.2-1,2.2-2.2,2.2h-283.2c-1.2,0-2.2-1-2.2-2.2v-123.4c0-1.2,1-2.2,2.2-2.2h52.5v2.3h0Z"/>
            </g>
            <path class="st5" d="M1394,1998.9v.7c0,24.6,19.9,44.5,44.5,44.5h478.2c24.6,0,44.5-19.9,44.5-44.5v-.7h201.8l-22.8,63.4c-21.7,60.2-79.7,100.5-144.7,100.5h-612.5c-82,0-160.1-34.6-214.5-95l-62.1-69h287.6Z"/>
            <path d="M2134.5,2080.8c-29,50.5-77.3,82-130,82h-631.1c-69.3,0-135.9-29.4-188.5-82h949.6Z"/>
            <path d="M1995.5,2165h-612.5c-82.6,0-161.4-34.9-216.1-95.7l-62.1-69c-.6-.6-.7-1.6-.4-2.4.4-.8,1.1-1.3,2-1.3h287.6c1.2,0,2.2,1,2.2,2.2v.7c0,23.3,19,42.3,42.3,42.3h478.2c23.3,0,42.3-19,42.3-42.3v-.7c0-1.2,1-2.2,2.2-2.2h201.8c.7,0,1.4.3,1.8.9.4.6.5,1.3.3,2l-22.8,63.4c-22,61.1-81,102.1-146.8,102.1ZM1111.4,2001.1l58.8,65.3c53.9,59.9,131.4,94.2,212.8,94.2h612.5c64,0,121.3-39.8,142.7-99.1l21.8-60.5h-196.5c-.8,25-21.4,45.2-46.7,45.2h-478.2c-25.2,0-45.9-20.1-46.7-45.2h-280.5Z"/>
            <g>
              <circle class="st5" cx="1915" cy="2105.2" r="12.5"/>
              <circle class="st5" cx="1856" cy="2105.2" r="12.5"/>
              <circle class="st5" cx="1797" cy="2105.2" r="12.5"/>
              <circle class="st5" cx="1738" cy="2105.2" r="12.5"/>
              <circle class="st5" cx="1679" cy="2105.2" r="12.5"/>
              <circle class="st5" cx="1620" cy="2105.2" r="12.5"/>
            </g>
            <g>
              <path d="M2102.5,2038.6c-6.8,0-12.3-5.5-12.3-12.3s5.5-12.3,12.3-12.3,12.3,5.5,12.3,12.3-5.5,12.3-12.3,12.3ZM2102.5,2018.4c-4.4,0-7.9,3.5-7.9,7.9s3.5,7.9,7.9,7.9,7.9-3.5,7.9-7.9-3.6-7.9-7.9-7.9Z"/>
              <path d="M2055.3,2038.6c-6.8,0-12.3-5.5-12.3-12.3s5.5-12.3,12.3-12.3,12.3,5.5,12.3,12.3-5.5,12.3-12.3,12.3ZM2055.3,2018.4c-4.4,0-7.9,3.5-7.9,7.9s3.5,7.9,7.9,7.9,7.9-3.5,7.9-7.9-3.6-7.9-7.9-7.9Z"/>
              <path d="M2008.1,2038.6c-6.8,0-12.3-5.5-12.3-12.3s5.5-12.3,12.3-12.3,12.3,5.5,12.3,12.3-5.6,12.3-12.3,12.3ZM2008.1,2018.4c-4.4,0-7.9,3.5-7.9,7.9s3.5,7.9,7.9,7.9,7.9-3.5,7.9-7.9-3.6-7.9-7.9-7.9Z"/>
            </g>
          </g>
          <g>
            <rect class="st7" x="1580.7" y="1785.9" width="207.9" height="258.1"/>
            <path d="M1788.6,2046.2h-207.9c-1.2,0-2.2-1-2.2-2.2v-258c0-1.2,1-2.2,2.2-2.2h207.9c1.2,0,2.2,1,2.2,2.2v258c0,1.3-1,2.2-2.2,2.2ZM1582.9,2041.8h203.5v-253.7h-203.5v253.7Z"/>
            <path d="M1788.6,2046.2h-207.9c-.8,0-1.6-.5-2-1.3s-.3-1.7.3-2.3l102.8-127.7-102.8-127.6c-.5-.7-.6-1.6-.3-2.3.4-.8,1.1-1.3,2-1.3h207.9c.8,0,1.6.5,2,1.3s.3,1.7-.3,2.3l-102.8,127.7,102.8,127.7c.5.7.6,1.6.3,2.3-.4.8-1.2,1.2-2,1.2ZM1585.3,2041.8h198.7l-99.3-123.3-99.4,123.3ZM1585.3,1788.2l99.3,123.3,99.3-123.3h-198.6Z"/>
            <g>
              <rect class="st5" x="1672.9" y="1974" width="92" height="52.3"/>
              <path d="M1765,2028.5h-92c-1.2,0-2.2-1-2.2-2.2v-52.3c0-1.2,1-2.2,2.2-2.2h92c1.2,0,2.2,1,2.2,2.2v52.3c0,1.2-1,2.2-2.2,2.2ZM1675.2,2024.1h87.6v-47.9h-87.6v47.9Z"/>
            </g>
          </g>
        </g>
        <g>
          <g>
            <polygon class="st5" points="1030.5 1700.5 852.6 1700.5 852.6 1522.6 988 1522.6 1030.5 1638.4 1030.5 1700.5"/>
            <path d="M1030.5,1702.7h-177.9c-1.2,0-2.2-1-2.2-2.2v-177.9c0-1.2,1-2.2,2.2-2.2h135.4c.9,0,1.7.6,2.1,1.4l42.5,115.9c0,.2,0,.5,0,.8v62c0,1.2-1,2.2-2.2,2.2ZM854.8,1698.2h173.5v-59.4l-41.9-114.1h-131.6v173.5Z"/>
          </g>
          <polygon class="st5" points="1025.5 1624.9 907.4 1611.5 907.4 1549.3 996.8 1549.3 1025.5 1624.9"/>
          <path d="M1025.5,1627.1h-.2l-117.2-13.4c-1.1,0-2-1.1-2-2.2v-62.2c0-1.2,1-2.2,2.2-2.2h89.5c.9,0,1.7.6,2.1,1.4l27.8,75.6c.3.7,0,1.5-.3,2.1-.5.6-1.2.9-1.9.9ZM910.5,1609.5l111.7,12.8-26-70.8h-85.7v58Z"/>
          <g>
            <rect class="st5" x="341.7" y="1440.3" width="490.8" height="260"/>
            <path d="M832.6,1702.5h-490.9c-1.2,0-2.2-1-2.2-2.2v-260c0-1.2,1-2.2,2.2-2.2h490.9c1.2,0,2.2,1,2.2,2.2v260c0,1.2-1,2.2-2.2,2.2ZM343.9,1698.1h486.4v-255.6h-486.4v255.6Z"/>
          </g>
          <rect x="363.9" y="1700.3" width="668.8" height="40.8"/>
          <path d="M948.2,1700.5h-95.6v-28.8h30.4c24.8,0,48.5,10.4,65.2,28.8Z"/>
          <path d="M996.8,1703h-116.2c-1.2,0-2.2-1-2.2-2.2v-161.6c0-1.2,1-2.2,2.2-2.2h81.7c.9,0,1.7.6,2.1,1.4l34.6,94.2c0,.2,0,.5,0,.8v67.4c0,1.2-1,2.2-2.3,2.2ZM882.8,1698.6h111.8v-64.8l-33.9-92.4h-77.9v157.2h0Z"/>
          <rect x="964.8" y="1546" width="16.6" height="53.9"/>
          <rect x="964.8" y="1602.7" width="16.6" height="19.7"/>
          <rect x="1021" y="1650.1" width="9.5" height="35.1"/>
          <path d="M930,1635h-33.5c-1.2,0-2.2-1-2.2-2.2s1-2.2,2.2-2.2h33.5c1.2,0,2.2,1,2.2,2.2s-1,2.2-2.2,2.2Z"/>
          <g>
            <circle class="st5" cx="896.7" cy="1752" r="45.5"/>
            <path d="M896.7,1799.7c-26.3,0-47.7-21.4-47.7-47.7s21.4-47.7,47.7-47.7,47.7,21.4,47.7,47.7-21.4,47.7-47.7,47.7ZM896.7,1708.7c-23.9,0-43.3,19.4-43.3,43.3s19.4,43.3,43.3,43.3,43.3-19.4,43.3-43.3-19.4-43.3-43.3-43.3Z"/>
          </g>
          <g>
            <circle class="st5" cx="896.7" cy="1752" r="19.5"/>
            <path d="M896.7,1773.7c-12,0-21.7-9.7-21.7-21.7s9.7-21.7,21.7-21.7,21.7,9.7,21.7,21.7-9.7,21.7-21.7,21.7ZM896.7,1734.7c-9.5,0-17.3,7.7-17.3,17.3s7.7,17.3,17.3,17.3,17.3-7.7,17.3-17.3-7.8-17.3-17.3-17.3Z"/>
          </g>
          <g>
            <circle class="st5" cx="499.7" cy="1752.1" r="45.5"/>
            <path d="M499.8,1799.7c-26.3,0-47.7-21.4-47.7-47.7s21.4-47.7,47.7-47.7,47.7,21.4,47.7,47.7-21.4,47.7-47.7,47.7ZM499.8,1708.7c-23.9,0-43.3,19.4-43.3,43.3s19.4,43.3,43.3,43.3,43.3-19.4,43.3-43.3-19.4-43.3-43.3-43.3Z"/>
          </g>
          <g>
            <circle class="st5" cx="499.8" cy="1752" r="19.5"/>
            <path d="M499.8,1773.7c-12,0-21.7-9.7-21.7-21.7s9.7-21.7,21.7-21.7,21.7,9.7,21.7,21.7-9.7,21.7-21.7,21.7ZM499.8,1734.7c-9.5,0-17.3,7.7-17.3,17.3s7.7,17.3,17.3,17.3,17.3-7.7,17.3-17.3-7.8-17.3-17.3-17.3Z"/>
          </g>
        </g>
        <g>
          <g>
            <polygon class="st5" points="1842.2 935.8 1742.3 841 1784 773.8 1854.3 916.4 1842.2 935.8"/>
            <path d="M1842.2,938c-.6,0-1.1-.2-1.5-.6l-99.9-94.9c-.8-.7-.9-1.9-.4-2.8l41.7-67.1c.4-.7,1.1-1.1,2-1,.8,0,1.5.5,1.9,1.2l70.3,142.6c.3.7.3,1.5,0,2.1l-12,19.4c-.3.6-.9.9-1.6,1-.2,0-.3,0-.4,0ZM1745.1,840.6l96.7,91.8,10-16-68-138-38.7,62.2Z"/>
          </g>
          <g>
            <path class="st5" d="M1774.5,767.9h-159c0,0,159,0,159,0Z"/>
            <path d="M1615.5,770.2c-1.2,0-2.2-1-2.2-2.2s1-2.2,2.2-2.2h159c1.2,0,2.2.9,2.2,2.1s-1,2.2-2.2,2.2h-159Z"/>
          </g>
          <g>
            <rect class="st5" x="1645.6" y="482.6" width="63.7" height="22.5" transform="translate(372.4 1657.7) rotate(-58.1)"/>
            <path d="M1670.1,529c-.4,0-.8,0-1.2-.3l-19.1-11.9c-1-.6-1.3-2-.7-3l33.6-54.1c.3-.5.8-.8,1.4-1,.6-.1,1.2,0,1.7.3l19.1,11.9c1,.6,1.3,2,.7,3l-33.6,54.1c-.3.5-.8.8-1.4,1-.2,0-.3,0-.5,0ZM1654,514.2l15.4,9.5,31.3-50.3-15.4-9.5-31.3,50.3Z"/>
          </g>
          <g>
            <rect class="st5" x="1531.8" y="478.1" width="63.7" height="22.5" transform="translate(322.5 1559) rotate(-58.1)"/>
            <path d="M1556.4,524.5c-.4,0-.8,0-1.2-.3l-19.1-11.9c-1-.6-1.3-2-.7-3l33.6-54.1c.3-.5.8-.8,1.4-1,.6-.1,1.2,0,1.7.3l19.1,11.9c1,.6,1.3,2,.7,3l-33.6,54.1c-.3.5-.8.8-1.4,1-.2,0-.4,0-.5,0ZM1540.3,509.7l15.4,9.5,31.3-50.3-15.4-9.5-31.3,50.3Z"/>
          </g>
          <g>
            <rect class="st5" x="1768.4" y="477.3" width="70" height="57.3" transform="translate(421.6 1770.4) rotate(-58.1)"/>
            <path d="M1809.2,553c-.4,0-.8,0-1.2-.3l-48.6-30.2c-1-.6-1.3-2-.7-3l37-59.5c.3-.5.8-.8,1.4-1,.6-.1,1.2,0,1.7.3l48.6,30.2c1,.6,1.3,2,.7,3l-37,59.5c-.3.5-.8.8-1.4,1h-.5ZM1763.6,519.9l44.9,27.9,34.7-55.7-44.9-27.9-34.7,55.7Z"/>
          </g>
          <g>
            <polygon class="st5" points="1603.4 787.4 1732.7 835 1774.5 767.9 1615.5 768 1603.4 787.4"/>
            <path d="M1732.7,837.2c-.3,0-.5,0-.8,0l-129.3-47.6c-.6-.2-1.1-.7-1.3-1.4-.2-.6,0-1.3.2-1.9l12-19.4c.4-.6,1.1-1,1.9-1h159c.8,0,1.5.3,1.9,1,.4.7.4,1.6,0,2.2l-41.7,67.1c-.3.7-1,1.1-1.8,1.1ZM1606.7,786.2l125.1,46.1,38.7-62.2h-153.8c0,0-10,16.1-10,16.1Z"/>
          </g>
          <g>
            <polygon class="st5" points="1476.8 513.3 1852.4 642.5 1934.8 510 1494.6 484.6 1476.8 513.3"/>
            <path d="M1852.4,644.7c-.2,0-.5,0-.7,0l-375.6-129.2c-.6-.2-1.1-.7-1.4-1.3-.2-.6,0-1.3.2-1.9l17.8-28.7c.4-.7,1.2-1.1,2-1l440.1,25.4c.8,0,1.5.5,1.8,1.2.4.7.3,1.5,0,2.2l-82.4,132.5c-.2.5-.9.9-1.7.9ZM1480.1,512.1l371.3,127.7,79.5-127.8-435.1-25.1-15.7,25.2Z"/>
          </g>
          <g>
            <rect class="st5" x="2041.6" y="728.7" width="63.7" height="22.5" transform="translate(350.3 2110.2) rotate(-58.1)"/>
            <path d="M2066.2,775.2c-.4,0-.8,0-1.2-.3l-19.1-11.9c-1-.6-1.3-2-.7-3l33.6-54.1c.6-1,2-1.4,3-.7l19.1,11.9c.5.3.8.8,1,1.4.1.6,0,1.2-.3,1.7l-33.6,54.1c-.3.5-.8.8-1.4,1-.1-.1-.2-.1-.4-.1ZM2050.1,760.4l15.4,9.5,31.3-50.3-15.4-9.5-31.3,50.3Z"/>
          </g>
          <g>
            <rect class="st5" x="2095.9" y="828.7" width="63.7" height="22.5" transform="translate(291.1 2203.5) rotate(-58.1)"/>
            <path d="M2120.6,875.2c-.4,0-.8,0-1.2-.3l-19.1-11.9c-1-.6-1.3-2-.7-3l33.6-54.1c.3-.5.8-.8,1.4-1,.6,0,1.2,0,1.7.3l19.1,11.9c1,.6,1.3,2,.7,3l-33.6,54.1c-.3.5-.8.8-1.4,1h-.5ZM2104.5,860.4l15.4,9.5,31.3-50.3-15.4-9.5-31.3,50.3Z"/>
          </g>
          <g>
            <rect class="st5" x="1971.7" y="603.7" width="70" height="57.3" transform="translate(410.2 2002.7) rotate(-58.1)"/>
            <path d="M2012.6,679.5c-.4,0-.8,0-1.2-.3l-48.6-30.2c-1-.6-1.3-2-.7-3l37-59.5c.6-1,2-1.4,3-.7l48.6,30.2c.5.3.8.8,1,1.4.1.6,0,1.2-.3,1.7l-37,59.5c-.3.5-.8.8-1.4,1,0-.1-.2-.1-.4-.1ZM1967,646.3l44.9,27.9,34.7-55.7-44.9-27.9-34.7,55.7Z"/>
          </g>
          <g>
            <polygon class="st5" points="2144.7 928.5 1862.6 648.9 1945 516.4 2162.5 899.8 2144.7 928.5"/>
            <path d="M2144.7,930.7c-.6,0-1.1-.2-1.6-.6l-282.1-279.7c-.7-.7-.9-1.9-.3-2.7l82.4-132.5c.4-.7,1.1-1.1,1.9-1,.8,0,1.5.4,1.9,1.1l217.5,383.5c.4.7.4,1.6,0,2.2l-17.8,28.7c-.4.6-.9.9-1.6,1h-.3ZM1865.4,648.5l278.9,276.5,15.7-25.2-215.1-379.1-79.5,127.8Z"/>
          </g>
          <path class="st4" d="M1718.1,870.2c11.4-44.8,29.6-88.3,53.8-128.6l188.4-314c7.3-12.2,17.4-22.4,28.9-29l10.6-6.2c11.1-6.4,22.9.9,22,13.7l-.8,12.2c-.9,13.2-5.5,26.8-13.2,38.8l-198.1,307.9c-25.5,39.5-56.5,75.1-91.6,105.2Z"/>
          <path class="st5" d="M1718.2,870.2c15.8-42,36.4-84.1,60.9-124.3l190.2-312.8c7.4-12.2,16.5-23,26-30.8l8.8-7.3c9.2-7.6,16.6-3,13.8,8.6l-2.6,11.1c-2.9,12-8.5,24.9-16.2,37l-196.4,309c-25.2,39.7-53.8,76.7-84.5,109.5Z"/>
          <path d="M1718.1,872.4c-.4,0-.8,0-1.2-.3-.8-.5-1.2-1.5-1-2.4,11.5-45.1,29.7-88.6,54.1-129.2l188.4-314c7.6-12.6,17.8-22.9,29.7-29.8l10.6-6.2c5.9-3.4,12.6-3.6,17.8-.3,5.2,3.2,8,9.2,7.6,16.1l-.8,12.2c-.9,13.7-5.6,27.5-13.6,39.8l-198.2,307.9c-25.7,39.9-56.6,75.4-92,105.7-.4.3-.9.5-1.4.5ZM2008.2,392.2c-2.4,0-4.9.7-7.2,2.1l-10.6,6.2c-11.2,6.5-21,16.3-28.1,28.3l-188.4,314c-22.9,38.2-40.3,78.9-51.8,121.2,32.8-29,61.6-62.6,85.7-100l198.2-308.1c7.5-11.7,12-24.8,12.9-37.7l.8-12.2c.4-5.2-1.7-9.7-5.5-12-1.8-1.2-3.8-1.8-6-1.8Z"/>
          <g>
            <path class="st5" d="M1737.4,850.1c-19.6,31.5-37.7,55.6-40.6,53.9-2.8-1.7,10.8-28.7,30.4-60.2s37.7-55.6,40.6-53.9c2.8,1.7-10.8,28.7-30.4,60.2Z"/>
            <path d="M1697.2,906.3c-.6,0-1.1-.2-1.5-.5-2.1-1.3-3.1-3.8,6-21.8,5.8-11.4,14.2-26.1,23.7-41.4,9.5-15.3,19-29.4,26.7-39.6,12.1-16.1,14.8-16.3,16.9-15s3.1,3.8-6,21.8c-5.8,11.4-14.2,26.1-23.7,41.4-9.5,15.3-19,29.3-26.7,39.6-9.5,12.7-13.2,15.5-15.4,15.5ZM1765.3,794c-5.7,5.8-19.1,23.6-36.2,51-17,27.4-27.1,47.3-29.7,55,5.7-5.8,19.1-23.6,36.2-51,17-27.5,27.1-47.3,29.7-55Z"/>
          </g>
          <path d="M2000,416.9c6.7,4.2,11.3,10.4,13.5,17.4,3-10.6,0-21.4-7.9-26.4-8.1-5-18.9-2.8-27.2,4.6,7.2-1.1,14.9.3,21.6,4.4Z"/>
        </g>
      </g>
    </g>
  </g>
  <rect class="st3" x="2883.7" y="68.6" width="155.2" height="155.2"/>
  <rect class="st1" x="2883.7" y="223.9" width="155.2" height="155.2"/>
</svg>