<?xml version="1.0" encoding="utf-8"?>
<!-- Generator: Adobe Illustrator 27.0.0, SVG Export Plug-In . SVG Version: 6.00 Build 0)  -->
<svg version="1.1" xmlns="http://www.w3.org/2000/svg" xmlns:xlink="http://www.w3.org/1999/xlink" x="0px" y="0px"
	 viewBox="0 0 490.6 196" style="enable-background:new 0 0 490.6 196;" xml:space="preserve">
<style type="text/css">
	.st0{display:none;}
	.st1{display:inline;fill:#FFFFFF;}
	.st2{fill:#424242;}
	.st3{fill:#282828;}
	.st4{fill:#565656;}
	.st5{fill:#F2EFFC;}
	.st6{fill:#E02B6D;}
	.st7{fill:#444444;}
	.st8{fill:#B9B9B9;}
	.st9{fill:#999999;}
	.st10{fill:#D3D3D3;}
	.st11{fill:#DBDBDB;}
	.st12{fill:#D3714A;}
	.st13{fill:#E06C48;}
	.st14{fill:#FF9168;}
	.st15{fill:#EF4580;}
	.st16{fill:#5B5B5B;}
	.st17{fill:#717171;}
	.st18{fill:#E4E4E4;}
	.st19{fill:#FFFFFF;}
	.st20{fill:#CDCDCD;}
	.st21{fill:#AAAAAA;}
	.st22{fill:#C3D2D7;}
	.st23{opacity:0.22;}
	.st24{fill:#7C7C7C;}
	.st25{fill:#969696;}
	.st26{fill:#6D6D6D;}
	.st27{fill:#E4E4E0;}
	.st28{fill:#E7255E;}
	.st29{fill:#F44D84;}
	.st30{fill:#303030;}
	.st31{fill:#333333;}
	.st32{fill:#E2E2E2;}
	.st33{fill:#3A3A3A;}
	.st34{fill:#D6D6D6;}
	.st35{fill:#F4B58D;}
	.st36{fill:#CA0D5B;}
	.st37{fill:#CA0E5A;}
	.st38{fill:#B70D5A;}
	.st39{clip-path:url(#XMLID_00000065074207768534132680000002216684821700898186_);fill:#444444;}
	.st40{clip-path:url(#XMLID_00000013154381119138426150000016361881057763805326_);fill:#444444;}
	.st41{opacity:0.62;fill:#E99A6A;}
	.st42{fill:#595959;}
	.st43{fill:#34254B;}
	.st44{fill:#292929;}
	.st45{opacity:0.2;}
	.st46{display:inline;}
	.st47{display:inline;opacity:0.22;}
	.st48{fill:#F47458;}
	.st49{fill:#707070;}
	.st50{display:inline;fill:#282828;}
</style>
<g id="bg" class="st0">
	<rect x="-45" y="-467.7" class="st1" width="841.9" height="841.9"/>
</g>
<g id="graphics">
	<g>
		<g>
			<g>
				<g>
					<g>
						<g>
							<rect x="196.5" y="59.6" class="st2" width="104.4" height="69.8"/>
							<rect x="300.9" y="59.6" class="st3" width="40.7" height="69.8"/>
							<g>
								<rect x="202.2" y="63.6" class="st4" width="43.5" height="61.7"/>
								<rect x="249.7" y="63.6" class="st4" width="47.2" height="61.7"/>
							</g>
							<g>
								<rect x="199.8" y="63.6" class="st4" width="43.5" height="61.7"/>
								<rect x="247.3" y="63.6" class="st4" width="47.2" height="61.7"/>
							</g>
						</g>
						<g>
							<g>
								<path class="st5" d="M239.8,95.9c0,1-0.8,1.7-1.7,1.7c-1,0-1.7-0.8-1.7-1.7c0-1,0.8-1.7,1.7-1.7
									C239,94.2,239.8,94.9,239.8,95.9z"/>
								<path class="st5" d="M238.7,95.9c0,1.5-1.2,2.7-2.7,2.7s-2.7-1.2-2.7-2.7c0-1.5,1.2-2.7,2.7-2.7S238.7,94.4,238.7,95.9z"/>
							</g>
							<g>
								<path class="st5" d="M253,95.9c0,1-0.8,1.7-1.7,1.7c-1,0-1.7-0.8-1.7-1.7c0-1,0.8-1.7,1.7-1.7C252.2,94.2,253,94.9,253,95.9
									z"/>
								<path class="st5" d="M251.9,95.9c0,1.5-1.2,2.7-2.7,2.7s-2.7-1.2-2.7-2.7c0-1.5,1.2-2.7,2.7-2.7S251.9,94.4,251.9,95.9z"/>
							</g>
						</g>
					</g>
					<g>
						<polygon class="st3" points="333.2,196 338.9,196 334.3,129.4 328.6,129.4 						"/>
						<path class="st3" d="M334.5,183h-24.6v-5.1h24.6c1.1,0,2,0.9,2,2v1.2C336.5,182.2,335.6,183,334.5,183z"/>
						<polygon class="st3" points="311.3,196 305.6,196 310.2,129.4 315.9,129.4 						"/>
					</g>
					<g>
						<g>
							<polygon class="st3" points="231.8,129.4 226.1,129.4 226.7,139 232.4,139 							"/>
							<polygon class="st3" points="226.7,139 230.6,196 236.3,196 232.4,139 							"/>
						</g>
						<path class="st3" d="M231.9,183h-24.6v-5.1h24.6c1.1,0,2,0.9,2,2v1.2C233.9,182.2,233,183,231.9,183z"/>
						<g>
							<polygon class="st3" points="203.1,196 208.8,196 212.7,139 207,139 							"/>
							<polygon class="st3" points="207.6,129.4 207,139 212.7,139 213.3,129.4 							"/>
						</g>
					</g>
				</g>
				<g>
					<g>
						<g>
							<polygon class="st6" points="63.8,50.6 0,50.6 13.7,12.2 50.1,12.2 							"/>
						</g>
						<g>
							<rect x="28.7" y="50.6" class="st7" width="6.4" height="135.7"/>
							<polygon class="st7" points="28.7,186.3 6.7,191.4 57.1,191.4 35.1,186.3 							"/>
							<rect x="6.7" y="191.4" class="st7" width="50.4" height="4.5"/>
						</g>
					</g>
					<path class="st7" d="M39.4,82.3V50.6h-0.7v31.7c-0.4,0.3-0.8,1.2-0.8,2.3c0,1.3,0.5,2.4,1.1,2.4c0.6,0,1.1-1.1,1.1-2.4
						C40.1,83.5,39.8,82.6,39.4,82.3z"/>
				</g>
				<g>
					<rect x="252.5" y="74.4" class="st8" width="47.1" height="61.5"/>
					
						<rect x="299.6" y="74.4" transform="matrix(-1 -1.224647e-16 1.224647e-16 -1 625.8519 210.3604)" class="st9" width="26.6" height="61.5"/>
					<g>
						<polygon class="st5" points="295.2,80.2 282,80.2 282,96 291.8,96 295.2,92.6 						"/>
						<polygon class="st10" points="291.8,96 295.2,92.6 291.8,92.6 						"/>
					</g>
				</g>
				<g>
					<rect x="421.7" y="101.7" class="st8" width="33.2" height="43.4"/>
					
						<rect x="454.9" y="101.7" transform="matrix(-1 -1.224647e-16 1.224647e-16 -1 928.61 246.7657)" class="st9" width="18.8" height="43.4"/>
					<g>
						<polygon class="st5" points="451.1,105.2 440.8,105.2 440.8,117.6 448.5,117.6 451.1,115 						"/>
						<polygon class="st10" points="448.5,117.6 451.1,115 448.5,115 						"/>
					</g>
				</g>
				<g>
					<rect x="310.9" y="94.5" class="st11" width="47.1" height="41.4"/>
					
						<rect x="358" y="94.5" transform="matrix(-1 -1.224647e-16 1.224647e-16 -1 742.623 230.401)" class="st12" width="26.6" height="41.4"/>
				</g>
				<g>
					<g>
						<g>
							<polygon class="st13" points="235.8,125.6 248.4,155.5 253.7,155.5 239.8,122.4 							"/>
							<polygon class="st14" points="263.2,122.4 257.9,122.4 239.8,122.4 253.7,155.5 271.8,155.5 277.1,155.5 							"/>
						</g>
						<g>
							<polygon class="st6" points="242.8,119.2 255.4,149.1 260.7,149.1 246.8,116 							"/>
							<polygon class="st15" points="270.2,116 264.8,116 246.8,116 260.7,149.1 278.8,149.1 284.1,149.1 							"/>
						</g>
						<g>
							<polygon class="st16" points="254.4,123.7 267,153.6 272.3,153.6 258.4,120.5 							"/>
							<polygon class="st17" points="281.8,120.5 276.4,120.5 258.4,120.5 272.3,153.6 290.4,153.6 295.7,153.6 							"/>
						</g>
						<g>
							<polygon class="st18" points="264.7,127.1 277.3,157 282.6,157 268.7,123.8 							"/>
							<polygon class="st19" points="292.1,123.8 286.7,123.8 268.7,123.8 282.6,157 300.7,157 306,157 							"/>
						</g>
					</g>
					<g>
						<rect x="238.2" y="136" class="st20" width="51" height="60"/>
						<polygon class="st8" points="279.4,158.9 238.2,158.9 238.2,136 289.2,136 						"/>
						<polygon class="st20" points="223.1,153.3 274.1,153.3 289.2,136 238.2,136 						"/>
						
							<rect x="289.2" y="136" transform="matrix(-1 -1.224647e-16 1.224647e-16 -1 629.447 331.9731)" class="st8" width="51" height="60"/>
						<polygon class="st21" points="299,158.9 340.2,158.9 340.2,136 289.2,136 						"/>
						<polygon class="st8" points="355.4,153.3 304.4,153.3 289.2,136 340.2,136 						"/>
					</g>
					<g>
						<polygon class="st5" points="281.3,178.4 272.2,170.4 265.6,181.4 273,187.9 275.9,187.3 						"/>
						<polygon class="st22" points="273,187.9 275.9,187.3 274.2,185.8 						"/>
					</g>
					<path class="st23" d="M301.9,184.4c-0.2,0-0.3,0-0.4,0c-0.2,0-0.3-0.1-0.3-0.3c0-0.4,0-0.8,0-1.2c0-0.2,0.1-0.3,0.3-0.3
						c0.7,0,1.5,0,2.2,0c0.2,0,0.3,0.1,0.3,0.3c0,1.3,0,2.5,0,3.8c0,0.2,0,0.2,0.2,0.2c0.8,0,1.6,0,2.4,0c0.3,0,0.5-0.1,0.5-0.5
						c0-1.5,0-3,0-4.5c0-0.4-0.2-0.7-0.5-0.8c-1-0.6-2.1-1.1-3.1-1.7c-0.4-0.2-0.7-0.2-1.1,0c-1,0.6-2,1.1-3.1,1.7
						c-0.4,0.2-0.5,0.5-0.5,0.9c0,1.5,0,3,0,4.5c0,0.3,0.1,0.4,0.4,0.4c0.1,0,0.3,0,0.4,0c0.2,0,0.3,0.1,0.3,0.3c0,0.4,0,0.8,0,1.2
						c0,0.2-0.1,0.3-0.2,0.3c-0.6,0-1.2,0-1.7-0.3c-0.7-0.4-1.1-1-1.1-1.9c0-1.6,0-3.1,0-4.7c0-1,0.5-1.8,1.3-2.3
						c1.1-0.7,2.3-1.3,3.4-1.9c0.9-0.5,1.9-0.4,2.8,0.1c1,0.6,2.1,1.2,3.1,1.7c1,0.5,1.5,1.4,1.5,2.5c0,1.5,0,3,0,4.4
						c0,1.4-1.1,2.3-2.3,2.3c-1.5,0-3,0-4.5,0c-0.3,0-0.4-0.1-0.4-0.4c0-1.2,0-2.4,0-3.6C301.9,184.6,301.9,184.5,301.9,184.4z"/>
				</g>
				<g>
					<rect x="318.1" y="121.8" class="st20" width="63" height="74.2"/>
					<polygon class="st8" points="346.3,148.2 347.1,147.1 347.9,148.2 348.8,147.1 349.6,148.2 350.4,147.1 351.2,148.2 
						352.1,147.1 352.9,148.2 353.7,147.1 354.6,148.3 354.6,121.8 344.6,121.8 344.6,148.3 345.4,147.1 					"/>
					<rect x="362.4" y="128.1" class="st5" width="13.2" height="15.8"/>
					
						<rect x="381.1" y="121.8" transform="matrix(-1 -1.224647e-16 1.224647e-16 -1 797.8139 317.8129)" class="st8" width="35.6" height="74.2"/>
					<polygon class="st24" points="400.8,142.4 400.3,141.3 399.8,142.4 399.4,141.3 398.9,142.4 398.4,141.3 398,142.4 
						397.5,141.3 397,142.4 396.6,141.3 396.1,142.4 396.1,121.8 401.8,121.8 401.8,142.4 401.2,141.3 					"/>
				</g>
				<g>
					<g>
						<rect x="407.9" y="145.1" class="st20" width="52.4" height="50.9"/>
						
							<rect x="460.3" y="145.1" transform="matrix(-1 -1.224647e-16 1.224647e-16 -1 950.3575 341.0592)" class="st8" width="29.7" height="50.9"/>
					</g>
					<polygon class="st8" points="431.4,166.5 432.1,165.7 432.8,166.5 433.4,165.7 434.1,166.5 434.8,165.7 435.5,166.5 
						436.1,165.7 436.8,166.5 437.5,165.7 438.2,166.6 438.2,145.1 430,145.1 430,166.6 430.7,165.7 					"/>
					<polygon class="st24" points="475.1,166.5 475.5,165.7 475.9,166.5 476.3,165.7 476.6,166.5 477,165.7 477.4,166.5 
						477.7,165.7 478.1,166.5 478.5,165.7 478.9,166.6 478.9,145.1 474.4,145.1 474.4,166.6 474.8,165.7 					"/>
					<path class="st23" d="M420.6,184.4c-0.2,0-0.3,0-0.4,0c-0.2,0-0.3-0.1-0.3-0.3c0-0.4,0-0.8,0-1.2c0-0.2,0.1-0.3,0.3-0.3
						c0.7,0,1.5,0,2.2,0c0.2,0,0.3,0.1,0.3,0.3c0,1.3,0,2.5,0,3.8c0,0.2,0,0.2,0.2,0.2c0.8,0,1.6,0,2.4,0c0.3,0,0.5-0.1,0.5-0.5
						c0-1.5,0-3,0-4.5c0-0.4-0.2-0.7-0.5-0.8c-1-0.6-2.1-1.1-3.1-1.7c-0.4-0.2-0.7-0.2-1.1,0c-1,0.6-2,1.1-3.1,1.7
						c-0.4,0.2-0.5,0.5-0.5,0.9c0,1.5,0,3,0,4.5c0,0.3,0.1,0.4,0.4,0.4c0.1,0,0.3,0,0.4,0c0.2,0,0.3,0.1,0.3,0.3c0,0.4,0,0.8,0,1.2
						c0,0.2-0.1,0.3-0.2,0.3c-0.6,0-1.2,0-1.7-0.3c-0.7-0.4-1.1-1-1.1-1.9c0-1.6,0-3.1,0-4.7c0-1,0.5-1.8,1.3-2.3
						c1.1-0.7,2.3-1.3,3.4-1.9c0.9-0.5,1.9-0.4,2.8,0.1c1,0.6,2.1,1.2,3.1,1.7c1,0.5,1.5,1.4,1.5,2.5c0,1.5,0,3,0,4.4
						c0,1.4-1.1,2.3-2.3,2.3c-1.5,0-3,0-4.5,0c-0.3,0-0.4-0.1-0.4-0.4c0-1.2,0-2.4,0-3.6C420.6,184.6,420.6,184.5,420.6,184.4z"/>
				</g>
				<g>
					<g>
						<rect x="338.6" y="84.3" class="st8" width="38.7" height="37.5"/>
						
							<rect x="377.3" y="84.3" transform="matrix(-1 -1.224647e-16 1.224647e-16 -1 776.4788 206.0909)" class="st9" width="21.9" height="37.5"/>
					</g>
					<polygon class="st25" points="356,100.1 356.5,99.5 357,100.1 357.5,99.5 358,100.1 358.5,99.5 359,100.1 359.5,99.5 
						360,100.1 360.5,99.5 361,100.2 361,84.3 355,84.3 355,100.2 355.5,99.5 					"/>
					<polygon class="st26" points="388.2,100.1 388.5,99.5 388.8,100.1 389,99.5 389.3,100.1 389.6,99.5 389.9,100.1 390.1,99.5 
						390.4,100.1 390.7,99.5 391,100.2 391,84.3 387.7,84.3 387.7,100.2 387.9,99.5 					"/>
					<path class="st23" d="M347.2,113.7c-0.1,0-0.2,0-0.2,0c-0.1,0-0.2-0.1-0.2-0.2c0-0.2,0-0.4,0-0.7c0-0.1,0.1-0.2,0.2-0.2
						c0.4,0,0.8,0,1.2,0c0.1,0,0.2,0.1,0.2,0.2c0,0.7,0,1.4,0,2.1c0,0.1,0,0.1,0.1,0.1c0.4,0,0.9,0,1.3,0c0.2,0,0.3-0.1,0.3-0.3
						c0-0.8,0-1.6,0-2.4c0-0.2-0.1-0.4-0.3-0.5c-0.6-0.3-1.1-0.6-1.7-0.9c-0.2-0.1-0.4-0.1-0.6,0c-0.6,0.3-1.1,0.6-1.7,0.9
						c-0.2,0.1-0.3,0.3-0.3,0.5c0,0.8,0,1.6,0,2.4c0,0.2,0.1,0.2,0.2,0.2c0.1,0,0.1,0,0.2,0c0.1,0,0.2,0.1,0.2,0.2
						c0,0.2,0,0.4,0,0.7c0,0.1,0,0.1-0.1,0.2c-0.3,0-0.6,0-0.9-0.2c-0.4-0.2-0.6-0.6-0.6-1c0-0.8,0-1.7,0-2.5c0-0.6,0.3-1,0.7-1.2
						c0.6-0.4,1.2-0.7,1.9-1c0.5-0.3,1-0.2,1.5,0c0.6,0.3,1.1,0.6,1.7,1c0.5,0.3,0.8,0.7,0.8,1.4c0,0.8,0,1.6,0,2.4
						c0,0.8-0.6,1.3-1.2,1.2c-0.8,0-1.6,0-2.4,0c-0.2,0-0.2,0-0.2-0.2c0-0.7,0-1.3,0-2C347.2,113.8,347.2,113.8,347.2,113.7z"/>
				</g>
				<g>
					<polygon class="st27" points="301.1,47.2 275.4,47.2 280.9,31.7 295.6,31.7 					"/>
					<g>
						<path class="st27" d="M300.9,64.4c0-2.8-0.9-5.4-2.5-7.6c-1.3-1.7-3.4-2.8-5.5-2.8h-9.3c-2.2,0-4.2,1-5.5,2.8
							c-1.6,2.1-2.5,4.7-2.5,7.6c0,3.2,1.2,6.2,3.2,8.4c0.9,1,2.1,1.5,3.4,1.5h12c1.3,0,2.6-0.6,3.4-1.5
							C299.7,70.6,300.9,67.7,300.9,64.4z"/>
						<polygon class="st27" points="283.6,54.1 292.9,54.1 296.9,50.7 279.6,50.7 						"/>
					</g>
					<rect x="287" y="47.2" class="st7" width="2.6" height="3.5"/>
				</g>
				<g>
					<g>
						<g>
							<path class="st28" d="M402.1,105.6c2,4.9,5.8,10.3,10.3,15.1c2.2,2.4,4.6,4.5,6.8,6.6c2.2,2,4.3,3.9,6.2,5.7
								c-0.3-2.6-1.3-5.6-2.9-8.4c-1.6-2.8-3.7-5.4-6-7.8C412,112.1,406.8,108,402.1,105.6z"/>
						</g>
						<g>
							<path class="st28" d="M443.7,106.5c-7.4,4.4-15.6,14.7-18.3,22.9C432.8,125,441,114.7,443.7,106.5z"/>
						</g>
						<g>
							<path class="st28" d="M424.2,87.1c-4.3,11.5-4.3,30.2,0,41.7C428.5,117.2,428.5,98.6,424.2,87.1z"/>
						</g>
						<g>
							<path class="st29" d="M410.6,92.7c-0.5,2.9-0.5,6.3-0.1,9.8c0.4,3.5,1.4,7.2,2.7,10.7c1.3,3.5,3.1,6.8,5.1,9.7
								c2,2.9,4.3,5.4,6.6,7.2c-1.1-5.8-3.4-12.6-5.9-19.2C416.5,104.3,413.7,97.7,410.6,92.7z"/>
						</g>
						<g>
							<path class="st29" d="M436.5,94.5c-3,4.7-5.7,11-7.9,17.4c-2.2,6.4-3.9,13-4.4,18.6c4.1-3.9,7.8-10,10-16.7
								C436.5,107.1,437.3,100,436.5,94.5z"/>
						</g>
					</g>
					<g>
						<polygon class="st30" points="438.8,124.3 410.1,124.3 416.5,145.1 432.4,145.1 						"/>
					</g>
				</g>
				<g>
					<rect x="330.6" y="77" class="st7" width="39.9" height="7.3"/>
					<rect x="330.6" y="69.6" class="st7" width="39.9" height="7.3"/>
					
						<rect x="370.6" y="77" transform="matrix(-1 -1.224647e-16 1.224647e-16 -1 766.3583 161.2252)" class="st31" width="25.2" height="7.3"/>
					
						<rect x="370.6" y="69.6" transform="matrix(-1 -1.224647e-16 1.224647e-16 -1 766.3583 146.5863)" class="st31" width="25.2" height="7.3"/>
					<g>
						<rect x="338" y="75.5" class="st8" width="6.2" height="2.9"/>
						<rect x="352.7" y="75.5" class="st8" width="6.2" height="2.9"/>
						<g>
							<path class="st31" d="M354.3,82.6h-11.8c-1.4,0-2.6-1.2-2.6-2.6v-3.7h2.2V80c0,0.2,0.2,0.4,0.4,0.4h11.8
								c0.2,0,0.4-0.2,0.4-0.4v-3.7h2.2V80C356.9,81.4,355.7,82.6,354.3,82.6z"/>
						</g>
					</g>
				</g>
				<g>
					<polygon class="st2" points="360.8,196 358.8,193.3 397,193.3 398.9,196 					"/>
					<polygon class="st16" points="408.4,146.4 397,193.3 398.9,196 410.4,149.1 					"/>
					<polygon class="st17" points="373,146.4 370.3,146.4 358.8,193.3 361.6,193.3 397,193.3 408.4,146.4 					"/>
					<g>
						<polygon class="st2" points="373.5,150.4 364,189.3 365.5,189.3 375,150.4 						"/>
						<polygon class="st32" points="403.3,150.4 375,150.4 365.5,189.3 393.8,189.3 						"/>
						<g>
							<polygon class="st19" points="389.4,150.4 370.4,169.5 368.3,178 395.9,150.4 							"/>
							<polygon class="st19" points="403.1,151.2 365.7,188.6 365.5,189.3 368.4,189.3 402,155.6 							"/>
							<polygon class="st19" points="398.4,170.4 379.5,189.3 388.5,189.3 395.5,182.3 							"/>
						</g>
					</g>
				</g>
				<path class="st23" d="M462,138.2c-0.1,0-0.2,0-0.3,0c-0.1,0-0.2-0.1-0.2-0.2c0-0.3,0-0.6,0-1c0-0.2,0.1-0.3,0.2-0.3
					c0.5,0,1,0,1.5,0c0.2,0,0.2,0.1,0.2,0.3c0,1,0,2,0,3c0,0.1,0,0.2,0.1,0.2c0.5,0,1.1,0,1.6,0c0.2,0,0.3-0.1,0.3-0.4
					c0-1.2,0-2.4,0-3.6c0-0.3-0.1-0.5-0.3-0.7c-0.7-0.5-1.4-0.9-2.1-1.4c-0.3-0.2-0.5-0.2-0.7,0c-0.7,0.5-1.4,0.9-2.1,1.4
					c-0.2,0.2-0.4,0.4-0.4,0.7c0,1.2,0,2.4,0,3.6c0,0.3,0.1,0.3,0.3,0.4c0.1,0,0.2,0,0.3,0c0.1,0,0.2,0.1,0.2,0.2c0,0.3,0,0.7,0,1
					c0,0.1-0.1,0.2-0.2,0.2c-0.4,0-0.8,0-1.1-0.2c-0.5-0.3-0.7-0.8-0.7-1.5c0-1.2,0-2.5,0-3.7c0-0.8,0.3-1.4,0.9-1.8
					c0.8-0.5,1.5-1,2.3-1.5c0.6-0.4,1.3-0.4,1.9,0c0.7,0.5,1.4,0.9,2.1,1.4c0.7,0.4,1,1.1,1,2c0,1.2,0,2.4,0,3.6
					c0,1.1-0.8,1.8-1.5,1.8c-1,0-2,0-3,0c-0.2,0-0.3-0.1-0.3-0.3c0-1,0-1.9,0-2.9C462,138.3,462,138.3,462,138.2z"/>
			</g>
		</g>
		<g>
			<g>
				<g>
					<defs>
						<path id="XMLID_00000044165119890753263490000006028750533648683689_" d="M172.8,46.3L150.9,64l-7.1-7.7l-9.2,8.4
							c1.1,1.2,7.5,8.2,8.4,9.2c3.6,4.2,10.5,4.2,14.1,0c0,0,19.9-22.1,19.9-22.1L172.8,46.3z"/>
					</defs>
					<use xlink:href="#XMLID_00000044165119890753263490000006028750533648683689_"  style="overflow:visible;fill:#F4B58D;"/>
					<clipPath id="XMLID_00000154403587704007688380000009945156480710454929_">
						<use xlink:href="#XMLID_00000044165119890753263490000006028750533648683689_"  style="overflow:visible;"/>
					</clipPath>
				</g>
				<g>
					<g>
						<path class="st3" d="M184.3,83.8h-19.1c-1.4,0-2.5-1.1-2.5-2.5V52.5c0-1.4,1.1-2.5,2.5-2.5h19.1c1.4,0,2.5,1.1,2.5,2.5v28.7
							C186.8,82.7,185.7,83.8,184.3,83.8z"/>
						<rect x="165" y="52.6" class="st19" width="19.4" height="28.6"/>
						<path class="st33" d="M176.8,53.4h-4.2c-1.1,0-2.1-0.9-2.1-2.1v0c0-1.1,0.9-2.1,2.1-2.1h4.2c1.1,0,2.1,0.9,2.1,2.1v0
							C178.9,52.5,177.9,53.4,176.8,53.4z"/>
					</g>
					<g>
						<rect x="166.6" y="57.4" class="st34" width="16.1" height="1.9"/>
						<rect x="166.6" y="61.7" class="st34" width="16.1" height="1.9"/>
						<rect x="166.6" y="65.9" class="st34" width="16.1" height="1.9"/>
						<rect x="166.6" y="70.2" class="st34" width="16.1" height="1.9"/>
						<rect x="166.6" y="74.5" class="st34" width="11.3" height="1.9"/>
					</g>
				</g>
				<path class="st35" d="M171.5,48.5c-0.3,2.6,1.8,3.9,3.8,4.9c2.9,1.8,6.9-1.1,6.1-4.5c-0.3-2.4-1.8-3.5-4-4
					C174.9,44,171.8,45.8,171.5,48.5z"/>
			</g>
			
				<rect x="91.8" y="44" transform="matrix(-0.8856 0.4645 -0.4645 -0.8856 222.6259 49.4331)" class="st36" width="26.8" height="16.3"/>
			<g>
				<defs>
					<path id="XMLID_00000062161235526974464300000003887890923914950303_" d="M88.6,68.3l7.7-5.2l-5.4-9.5
						c-4.6,2.7-12.1,5.5-11.9,11.9c0.4,2.6-3,31.7-0.2,32.9v0c3.3,3.8,7,0.7,10-1.6c0,0-4.3,0-4.3,0L88.6,68.3z"/>
				</defs>
				<use xlink:href="#XMLID_00000062161235526974464300000003887890923914950303_"  style="overflow:visible;fill:#F4B58D;"/>
				<clipPath id="XMLID_00000078753387048919643910000016723594766602215832_">
					<use xlink:href="#XMLID_00000062161235526974464300000003887890923914950303_"  style="overflow:visible;"/>
				</clipPath>
			</g>
			
				<rect x="122.7" y="49.3" transform="matrix(0.7071 0.7071 -0.7071 0.7071 80.4739 -79.4214)" class="st37" width="26.8" height="16.3"/>
			<polygon class="st38" points="140.2,72.3 137,54.8 142.4,70.1 			"/>
			<g>
				<defs>
					<polygon id="XMLID_00000150097516724640465450000010519103628990847659_" points="100.4,81.3 102.4,187.4 109.5,187.4 
						124.5,81 					"/>
				</defs>
				<use xlink:href="#XMLID_00000150097516724640465450000010519103628990847659_"  style="overflow:visible;fill:#444444;"/>
				<clipPath id="XMLID_00000181770538406709409010000001820509511086755505_">
					<use xlink:href="#XMLID_00000150097516724640465450000010519103628990847659_"  style="overflow:visible;"/>
				</clipPath>
				<path style="clip-path:url(#XMLID_00000181770538406709409010000001820509511086755505_);fill:#444444;" d="M120.5,109.5
					c-10.4,13.8-13.5,59.5-14.3,79.3h6.3l7.7-48.6L120.5,109.5"/>
			</g>
			<g>
				<defs>
					<polygon id="XMLID_00000033334203573623030470000016820216612782821561_" points="140.7,81.3 138.7,187.4 131.2,187.4 
						116.6,81 					"/>
				</defs>
				<use xlink:href="#XMLID_00000033334203573623030470000016820216612782821561_"  style="overflow:visible;fill:#444444;"/>
				<clipPath id="XMLID_00000166649479140879051570000007176984673475393158_">
					<use xlink:href="#XMLID_00000033334203573623030470000016820216612782821561_"  style="overflow:visible;"/>
				</clipPath>
				<path style="clip-path:url(#XMLID_00000166649479140879051570000007176984673475393158_);fill:#444444;" d="M120.5,109.5
					c8.8,11.2,13.7,62.6,13.9,78.7h-5.8L120.5,109.5"/>
			</g>
			<g>
				<g>
					<g>
						<g>
							<path class="st35" d="M113.6,22.6c0.5,3.3-2.3,3.8-2.9,0.5C110.2,19.8,113,19.3,113.6,22.6z"/>
							<path class="st35" d="M127.2,22.6c-0.5,3.3,2.3,3.8,2.9,0.5C130.6,19.8,127.8,19.3,127.2,22.6z"/>
						</g>
						<g>
							<g>
								<defs>
									<path id="XMLID_00000116948713443363550560000013443306091832417680_" d="M128.5,23c-0.2,13-16,13-16.2,0
										C110.8,9.7,129.5,9.6,128.5,23z"/>
								</defs>
								<use xlink:href="#XMLID_00000116948713443363550560000013443306091832417680_"  style="overflow:visible;fill:#F4B58D;"/>
								<clipPath id="XMLID_00000032620738219122988600000012067815833064920241_">
									<use xlink:href="#XMLID_00000116948713443363550560000013443306091832417680_"  style="overflow:visible;"/>
								</clipPath>
							</g>
							<path class="st35" d="M124.6,25.4c-2.1,0-6.3,0-8.4,0c1,2.9-1.2,17.4-1.2,17.4c2.7,0,8.1,0,10.8,0
								C125.8,42.8,123.6,28.3,124.6,25.4z"/>
						</g>
					</g>
					<path class="st41" d="M116.3,31.5c0,0,3.8,2.9,8.2,0l0.2,2.6c0,0-4.7,2.2-8.6,0L116.3,31.5z"/>
				</g>
				<path class="st42" d="M113.4,16c0,0,10.6,1.1,13.4-0.6c2.7-1.6,2.2-7.2,2.2-7.2C127.4,8.5,109.7,8.1,113.4,16z"/>
				<path class="st42" d="M113.6,12.5c0,0-3,0.9-3.3,2.1c-0.4,1.2,2.1,5.9,2.1,5.9l0,0c0.7,0,1.2-0.5,1.4-1.1l0.9-4L113.6,12.5z"/>
				<path class="st42" d="M127.2,12.5c0,0,3,0.9,3.3,2.1c0.4,1.2-2.1,5.9-2.1,5.9c-0.7,0-1.3-0.5-1.4-1.1c0-0.1-0.9-4-0.9-4
					L127.2,12.5z"/>
				<path class="st43" d="M126.1,15.7c0,0,2.4-1.4,2.5-2.8C128.5,13,129.4,16.3,126.1,15.7z"/>
			</g>
			<path class="st44" d="M103.6,187.4l-0.8,2.8l-8.5,3.6c-1,0.4-1.7,1.4-1.7,2.5l0,0h17.6l-0.7-8.9H103.6z"/>
			<path class="st44" d="M137.1,187.4l0.8,2.8l8.5,3.6c1,0.4,1.7,1.4,1.7,2.5h-17.6l0.7-8.9H137.1z"/>
			<g>
				<defs>
					<path id="XMLID_00000026134342826436035230000006749829558453260689_" d="M137.2,52.5c-1.6-10.7-9.8-16-18.9-14.8
						c-7.3-0.3-13.9,7.1-14.8,14.8c-0.1,0.8-6,39.3-6,39.3h45.6L137.2,52.5z"/>
				</defs>
				<use xlink:href="#XMLID_00000026134342826436035230000006749829558453260689_"  style="overflow:visible;fill:#CA0E5A;"/>
				<clipPath id="XMLID_00000176026900831891113460000011983562895731197571_">
					<use xlink:href="#XMLID_00000026134342826436035230000006749829558453260689_"  style="overflow:visible;"/>
				</clipPath>
			</g>
			<path class="st45" d="M126.9,56.1c-0.1,0-0.3,0-0.4,0c-0.2,0-0.3-0.1-0.3-0.3c0-0.4,0-0.7,0-1.1c0-0.2,0.1-0.3,0.3-0.3
				c0.6,0,1.3,0,1.9,0c0.2,0,0.3,0.1,0.3,0.3c0,1.1,0,2.2,0,3.3c0,0.1,0,0.2,0.2,0.2c0.7,0,1.4,0,2.2,0c0.3,0,0.4-0.1,0.4-0.4
				c0-1.3,0-2.6,0-4c0-0.3-0.1-0.6-0.4-0.8c-0.9-0.5-1.8-1-2.8-1.5c-0.3-0.2-0.6-0.2-1,0c-0.9,0.5-1.8,1-2.7,1.5
				c-0.3,0.2-0.5,0.4-0.5,0.8c0,1.3,0,2.6,0,4c0,0.3,0.1,0.4,0.4,0.4c0.1,0,0.2,0,0.4,0c0.2,0,0.3,0.1,0.3,0.3c0,0.4,0,0.7,0,1.1
				c0,0.1-0.1,0.2-0.2,0.3c-0.5,0-1,0-1.5-0.3c-0.6-0.4-1-0.9-1-1.7c0-1.4,0-2.8,0-4.1c0-0.9,0.4-1.6,1.2-2c1-0.6,2-1.1,3-1.7
				c0.8-0.4,1.7-0.4,2.5,0.1c0.9,0.5,1.9,1,2.8,1.5c0.9,0.5,1.3,1.2,1.3,2.2c0,1.3,0,2.6,0,3.9c0,1.2-1,2-2,2c-1.3,0-2.6,0-4,0
				c-0.3,0-0.4-0.1-0.4-0.4c0-1.1,0-2.1,0-3.2C126.9,56.3,126.9,56.2,126.9,56.1z"/>
			<g>
				
					<rect x="76.9" y="61.6" transform="matrix(0.9133 -0.4073 0.4073 0.9133 -23.0713 45.6285)" class="st17" width="37.5" height="30.9"/>
				
					<rect x="87.4" y="62.7" transform="matrix(0.9133 -0.4073 0.4073 0.9133 -18.6572 42.4155)" class="st16" width="5.8" height="4.6"/>
			</g>
			<path class="st35" d="M81.9,94.4c1.8,0.4,5.3,0.3,5.6,2.8l-5.6,0.3V94.4z"/>
			<path class="st35" d="M115.7,37.9c1.6,4.9,7.9,4.9,9.5,0C125.2,37.9,121.1,35.7,115.7,37.9z"/>
			<path class="st38" d="M115.7,37.9l4.5,3.7l-1.9,1.2c-3,1.6-3.5-2.6-4.2-4.4C114.1,38.4,114.9,38,115.7,37.9z"/>
			<path class="st38" d="M121.3,41.5l1.8,1.1c1.2,0.8,2.9,0.1,3.1-1.4l0.5-2.8c0,0-1.2-0.4-1.6-0.5L121.3,41.5z"/>
		</g>
		<g>
			<g>
				<rect x="16.4" y="134.2" class="st20" width="51.4" height="62.1"/>
				<rect x="38.2" y="134.2" class="st8" width="7.9" height="6"/>
			</g>
			<g>
				<rect x="67.8" y="134.2" class="st8" width="26.9" height="62.1"/>
				<rect x="79.3" y="134.2" class="st24" width="6.8" height="6"/>
			</g>
			<path class="st23" d="M53.8,184.5c-0.2,0-0.3,0-0.4,0c-0.2,0-0.3-0.1-0.3-0.3c0-0.4,0-0.8,0-1.3c0-0.2,0.1-0.3,0.4-0.3
				c0.8,0,1.5,0,2.3,0c0.3,0,0.4,0.1,0.4,0.4c0,1.3,0,2.6,0,4c0,0.2,0,0.2,0.2,0.2c0.9,0,1.7,0,2.6,0c0.4,0,0.5-0.1,0.5-0.5
				c0-1.6,0-3.1,0-4.7c0-0.4-0.2-0.7-0.5-0.9c-1.1-0.6-2.2-1.2-3.3-1.8c-0.4-0.2-0.8-0.2-1.2,0c-1.1,0.6-2.1,1.2-3.2,1.8
				c-0.4,0.2-0.6,0.5-0.6,1c0,1.6,0,3.1,0,4.7c0,0.3,0.1,0.5,0.4,0.5c0.1,0,0.3,0,0.4,0c0.2,0,0.3,0.1,0.3,0.3c0,0.4,0,0.9,0,1.3
				c0,0.2-0.1,0.3-0.2,0.3c-0.6,0-1.2,0-1.8-0.3c-0.7-0.4-1.1-1.1-1.2-2c0-1.6,0-3.3,0-4.9c0-1.1,0.5-1.9,1.4-2.4
				c1.2-0.7,2.4-1.3,3.6-2c1-0.5,2-0.5,2.9,0.1c1.1,0.6,2.2,1.2,3.3,1.8c1,0.6,1.6,1.4,1.5,2.6c0,1.6,0,3.1,0,4.7
				c0,1.5-1.2,2.4-2.4,2.4c-1.6,0-3.1,0-4.7,0c-0.3,0-0.4-0.1-0.4-0.4c0-1.3,0-2.5,0-3.8C53.8,184.7,53.8,184.6,53.8,184.5z"/>
		</g>
	</g>
	<g class="st0">
		<g class="st46">
			
				<rect x="157.5" y="-187.9" transform="matrix(-1 -1.224647e-16 1.224647e-16 -1 342.8126 -352.8524)" class="st8" width="27.9" height="23"/>
			
				<rect x="171.4" y="-187.9" transform="matrix(-1 -1.224647e-16 1.224647e-16 -1 370.6717 -352.8524)" class="st20" width="27.9" height="23"/>
			<polygon class="st24" points="157.5,-170.8 161.9,-170.8 161.5,-172 161.9,-172.9 157.5,-172.9 			"/>
			<polygon class="st8" points="171.4,-180.8 175.8,-180.8 175.4,-182 175.8,-182.9 171.4,-182.9 			"/>
			<polygon class="st24" points="171.4,-182.9 167,-182.9 167.4,-181.7 167,-180.8 171.4,-180.8 			"/>
			<polygon class="st8" points="199.3,-170.5 194.9,-170.5 195.2,-169.3 194.9,-168.4 199.3,-168.4 			"/>
			<rect x="189.4" y="-186.4" class="st18" width="8" height="3.1"/>
		</g>
		<g class="st46">
			
				<rect x="136.6" y="-210.9" transform="matrix(-1 -1.224647e-16 1.224647e-16 -1 301.0234 -398.8707)" class="st8" width="27.9" height="23"/>
			
				<rect x="150.5" y="-210.9" transform="matrix(-1 -1.224647e-16 1.224647e-16 -1 328.8825 -398.8707)" class="st20" width="27.9" height="23"/>
			<polygon class="st24" points="136.6,-193.8 141,-193.8 140.6,-195 141,-195.9 136.6,-195.9 			"/>
			<polygon class="st8" points="150.5,-203.8 154.9,-203.8 154.5,-205.1 154.9,-205.9 150.5,-205.9 			"/>
			<polygon class="st24" points="150.5,-205.9 146.1,-205.9 146.5,-204.7 146.1,-203.8 150.5,-203.8 			"/>
			<polygon class="st8" points="178.4,-193.5 174,-193.5 174.3,-192.3 174,-191.4 178.4,-191.4 			"/>
			<rect x="168.5" y="-209.4" class="st18" width="8" height="3.1"/>
		</g>
		<g class="st46">
			
				<rect x="112.7" y="-187.9" transform="matrix(-1 -1.224647e-16 1.224647e-16 -1 253.265 -352.8524)" class="st8" width="27.9" height="23"/>
			
				<rect x="126.6" y="-187.9" transform="matrix(-1 -1.224647e-16 1.224647e-16 -1 281.1241 -352.8524)" class="st20" width="27.9" height="23"/>
			<polygon class="st24" points="112.7,-170.8 117.1,-170.8 116.7,-172 117.1,-172.9 112.7,-172.9 			"/>
			<polygon class="st8" points="126.6,-180.8 131,-180.8 130.7,-182 131,-182.9 126.6,-182.9 			"/>
			<polygon class="st24" points="126.6,-182.9 122.2,-182.9 122.6,-181.7 122.2,-180.8 126.6,-180.8 			"/>
			<polygon class="st8" points="154.5,-170.5 150.1,-170.5 150.5,-169.3 150.1,-168.4 154.5,-168.4 			"/>
			<rect x="144.7" y="-186.4" class="st18" width="8" height="3.1"/>
		</g>
		<path class="st47" d="M156.9-194.1c-0.1,0-0.2,0-0.2,0c-0.1,0-0.2-0.1-0.2-0.2c0-0.2,0-0.5,0-0.7c0-0.1,0.1-0.2,0.2-0.2
			c0.4,0,0.8,0,1.2,0c0.1,0,0.2,0.1,0.2,0.2c0,0.7,0,1.4,0,2.1c0,0.1,0,0.1,0.1,0.1c0.5,0,0.9,0,1.4,0c0.2,0,0.3-0.1,0.3-0.3
			c0-0.8,0-1.7,0-2.5c0-0.2-0.1-0.4-0.3-0.5c-0.6-0.3-1.2-0.6-1.8-1c-0.2-0.1-0.4-0.1-0.6,0c-0.6,0.3-1.2,0.6-1.7,1
			c-0.2,0.1-0.3,0.3-0.3,0.5c0,0.8,0,1.7,0,2.5c0,0.2,0.1,0.2,0.2,0.3c0.1,0,0.2,0,0.2,0c0.1,0,0.2,0.1,0.2,0.2c0,0.2,0,0.5,0,0.7
			c0,0.1,0,0.2-0.1,0.2c-0.3,0-0.7,0-1-0.2c-0.4-0.2-0.6-0.6-0.6-1.1c0-0.9,0-1.8,0-2.6c0-0.6,0.3-1,0.8-1.3
			c0.6-0.4,1.3-0.7,1.9-1.1c0.5-0.3,1.1-0.3,1.6,0c0.6,0.3,1.2,0.7,1.8,1c0.6,0.3,0.8,0.8,0.8,1.4c0,0.8,0,1.7,0,2.5
			c0,0.8-0.6,1.3-1.3,1.3c-0.8,0-1.7,0-2.5,0c-0.2,0-0.2,0-0.2-0.2c0-0.7,0-1.4,0-2C156.9-193.9,156.9-194,156.9-194.1z"/>
		<path class="st47" d="M133.9-171.1c-0.1,0-0.2,0-0.2,0c-0.1,0-0.2-0.1-0.2-0.2c0-0.2,0-0.5,0-0.7c0-0.1,0.1-0.2,0.2-0.2
			c0.4,0,0.8,0,1.2,0c0.1,0,0.2,0.1,0.2,0.2c0,0.7,0,1.4,0,2.1c0,0.1,0,0.1,0.1,0.1c0.5,0,0.9,0,1.4,0c0.2,0,0.3-0.1,0.3-0.3
			c0-0.8,0-1.7,0-2.5c0-0.2-0.1-0.4-0.3-0.5c-0.6-0.3-1.2-0.6-1.8-1c-0.2-0.1-0.4-0.1-0.6,0c-0.6,0.3-1.2,0.6-1.7,1
			c-0.2,0.1-0.3,0.3-0.3,0.5c0,0.8,0,1.7,0,2.5c0,0.2,0.1,0.2,0.2,0.3c0.1,0,0.2,0,0.2,0c0.1,0,0.2,0.1,0.2,0.2c0,0.2,0,0.5,0,0.7
			c0,0.1,0,0.2-0.1,0.2c-0.3,0-0.7,0-1-0.2c-0.4-0.2-0.6-0.6-0.6-1.1c0-0.9,0-1.8,0-2.6c0-0.6,0.3-1,0.8-1.3
			c0.6-0.4,1.3-0.7,1.9-1.1c0.5-0.3,1.1-0.3,1.6,0c0.6,0.3,1.2,0.7,1.8,1c0.6,0.3,0.8,0.8,0.8,1.4c0,0.8,0,1.7,0,2.5
			c0,0.8-0.6,1.3-1.3,1.3c-0.8,0-1.7,0-2.5,0c-0.2,0-0.2,0-0.2-0.2c0-0.7,0-1.4,0-2C133.9-170.9,133.9-171,133.9-171.1z"/>
		<path class="st47" d="M178.7-171.1c-0.1,0-0.2,0-0.2,0c-0.1,0-0.2-0.1-0.2-0.2c0-0.2,0-0.5,0-0.7c0-0.1,0.1-0.2,0.2-0.2
			c0.4,0,0.8,0,1.2,0c0.1,0,0.2,0.1,0.2,0.2c0,0.7,0,1.4,0,2.1c0,0.1,0,0.1,0.1,0.1c0.5,0,0.9,0,1.4,0c0.2,0,0.3-0.1,0.3-0.3
			c0-0.8,0-1.7,0-2.5c0-0.2-0.1-0.4-0.3-0.5c-0.6-0.3-1.2-0.6-1.8-1c-0.2-0.1-0.4-0.1-0.6,0c-0.6,0.3-1.2,0.6-1.7,1
			c-0.2,0.1-0.3,0.3-0.3,0.5c0,0.8,0,1.7,0,2.5c0,0.2,0.1,0.2,0.2,0.3c0.1,0,0.2,0,0.2,0c0.1,0,0.2,0.1,0.2,0.2c0,0.2,0,0.5,0,0.7
			c0,0.1,0,0.2-0.1,0.2c-0.3,0-0.7,0-1-0.2c-0.4-0.2-0.6-0.6-0.6-1.1c0-0.9,0-1.8,0-2.6c0-0.6,0.3-1,0.8-1.3
			c0.6-0.4,1.3-0.7,1.9-1.1c0.5-0.3,1.1-0.3,1.6,0c0.6,0.3,1.2,0.7,1.8,1c0.6,0.3,0.8,0.8,0.8,1.4c0,0.8,0,1.7,0,2.5
			c0,0.8-0.6,1.3-1.3,1.3c-0.8,0-1.7,0-2.5,0c-0.2,0-0.2,0-0.2-0.2c0-0.7,0-1.4,0-2C178.7-170.9,178.7-171,178.7-171.1z"/>
	</g>
	<g class="st0">
		<g class="st46">
			<g>
				<path class="st48" d="M82,357.9l-1-4.6l-6.1,3.8l3.5,2.8C78.3,359.9,79.5,357,82,357.9z"/>
				<path class="st7" d="M42.1,375c0,0-7.1,3.2-14.9,7.1c-7.8,3.9-9.7,3.5-10.8,2.4c-1.1-1.1-1.2-3.7-1.2-3.7s-1.8,2.7-0.9,6.1
					c0.9,3.4,3.7,3.5,3.7,3.5l2-1.2l-1.3,2.3c0,0,2.8,1.4,5.3-1.1c2.6-2.6,3.1-4.2,3.1-4.2s-1,4-2,5c0,0,2.9,1.3,4.6-1
					c1.7-2.3,2.4-5.2,2.4-5.2l-0.6,5.4c0,0,2.6-1,4.1-5.2l-0.8,4c0,0,2.7-3.7,3.7-7.8c1.1-4.1,3.3-4.6,3.3-4.6L42.1,375z"/>
				<path class="st7" d="M55.6,388.8c0,0,0.3,8.7-5.6,11.9c-1.4,0.8-3.7,3.6-3.3,5.2c0.4,1.5,3.9,4.5,3.9,4.5s2.4,0.2,3.5,2.9
					c0.2,0.4-0.6,0.3-0.6,0.3l-6.2,0l-5.3-9.1l0.4-5.7l3.5-8.9l6.6-1.1L55.6,388.8z"/>
				<path class="st7" d="M84.7,383.4c0,0,7.9,11.9,9.6,14.5c1.2,1.8,1.2,4.1,1.2,4.1s-0.3,3.6-1.1,4.3c-0.1,0.1-0.3,0.2-0.5,0.3
					c-1.8,0.5-3.4-1.3-2.9-3.1c0.2-0.8,0.4-1.6,0.4-1.9c0-0.8-0.4-0.9-0.4-0.9l-8.7-5l-2.9-8.4L84.7,383.4z"/>
				<path class="st4" d="M79,386l-1.4,11.3l0.7,12.9c0,0,2.8,0.7,3.6,2.1c0.8,1.4,0.7,1.7,0.7,1.7h-6.6c0,0-5.4-12.9-5.4-14.3
					c0-1.4-1.4-9.4-1.4-10.5c0-1.1,0.9-5.8,4.1-6.2C76.3,382.6,79,386,79,386z"/>
				<path class="st4" d="M88.1,356.1l-1.7-2.3c0,0-5.6-1.6-8,0.8c-0.8,0.8-1.6,1.9-2,3.4c-0.2,0.8-0.2,2.3-0.2,3.7
					c0,1.6-0.3,2.6-0.9,4c-1.1,1.7-5.7,5.2-7.5,5.7l1.3-0.2c0,0-2.5,1.3-4.5,1.7c-7.9,1.2-19.9,1.5-22.5,2.2
					c-3.2,0.9-5.1,10.2-4.2,14.9c0.9,4.7-5.6,2.8-7.1,5.9c-1.5,2.9,4.2,16.1,4.2,16.1s1.5,1.8,1.7,2H43c0,0-0.2-4.1-3.4-5.2
					c-3.2-1.1-2.7-7.9-2.7-7.9s9.1,1.3,13.6-4.7c3.5-4.6,3.1-5.8,2.8-6.1c1.7,0.9,13.3,7.2,19.2,6.1c6.3-1.2,7.8-4,7.8-4l0.1,1.7
					c0,0,4.3-1.5,3.8-5c0,0,0.6,0.5,0.6,1.4c0,0,1.8-2.4,1.8-9.9c0-4.2-0.2-14.8-0.2-14.8s7.6-1.4,8.5-2.4c0.7-0.7,1.5-5.5,1.5-5.5
					L88.1,356.1z"/>
				<path class="st7" d="M74.8,357.1c0,0,1.5,3.3,3.1,3.8c1.6,0.5,3-7.6,3-7.6s-2.2-0.9-4.1,1C76.1,355.1,74.8,357.1,74.8,357.1z"/>
			</g>
			<path class="st49" d="M79.7,388c-1.9,2.2-0.2,0.2-1.5,1.7c-0.3-2.7,0.6-6,1.3-8.6c-1.2,1.3-2.7,3.8-3.5,4.8
				c1.3-2.3,1-6.7,0.7-9.4c0,0-1.5,1.8-2.2,2.6c-0.1-1.2-0.3-3.8,0.1-4.9c0.4-1.2,1.6-2.6,2.5-3.4c-1,0.8-2.3,2.1-2.7,3.3
				c-0.7,1.7-0.2,5.8-0.2,6.1c2.2-2.5,0.7-0.8,2.1-2.4c0.1,2.2,0.4,6.8-0.7,8.6c1.2-0.8,2.3-2.4,3-3.7c-1.8,4.7-0.6,7.4-0.6,7.5
				c0,0,0.1-0.1,1.5-2c0.1,0.3,0.2,0.9,0.3,1.2C79.9,389.2,79.8,388.3,79.7,388z"/>
		</g>
		<path class="st50" d="M74.8,365.2l-1,2.1c0,0,1,7.3,12.9,6.5l0.4-3.1C87.1,370.7,76.2,370.4,74.8,365.2z"/>
	</g>
	<g class="st0">
		<g class="st46">
			
				<rect x="639.6" y="-135" transform="matrix(-1 -1.224647e-16 1.224647e-16 -1 1296.3793 -255.7391)" class="st8" width="17.3" height="14.2"/>
			
				<rect x="648.2" y="-135" transform="matrix(-1 -1.224647e-16 1.224647e-16 -1 1313.6428 -255.7391)" class="st20" width="17.3" height="14.2"/>
			<polygon class="st24" points="639.6,-124.4 642.3,-124.4 642.1,-125.1 642.3,-125.7 639.6,-125.7 			"/>
			<polygon class="st8" points="648.2,-130.6 650.9,-130.6 650.7,-131.4 650.9,-131.9 648.2,-131.9 			"/>
			<polygon class="st24" points="648.2,-131.9 645.5,-131.9 645.7,-131.1 645.5,-130.6 648.2,-130.6 			"/>
			<polygon class="st8" points="665.5,-124.2 662.7,-124.2 663,-123.4 662.7,-122.9 665.5,-122.9 			"/>
			<rect x="659.4" y="-134" class="st18" width="5" height="1.9"/>
		</g>
		<g class="st46">
			
				<rect x="626.6" y="-149.2" transform="matrix(-1 -1.224647e-16 1.224647e-16 -1 1270.4835 -284.2556)" class="st8" width="17.3" height="14.2"/>
			
				<rect x="635.2" y="-149.2" transform="matrix(-1 -1.224647e-16 1.224647e-16 -1 1287.7471 -284.2556)" class="st20" width="17.3" height="14.2"/>
			<polygon class="st24" points="626.6,-138.6 629.4,-138.6 629.1,-139.4 629.4,-139.9 626.6,-139.9 			"/>
			<polygon class="st8" points="635.2,-144.8 638,-144.8 637.7,-145.6 638,-146.2 635.2,-146.2 			"/>
			<polygon class="st24" points="635.2,-146.2 632.5,-146.2 632.7,-145.4 632.5,-144.8 635.2,-144.8 			"/>
			<polygon class="st8" points="652.5,-138.5 649.8,-138.5 650,-137.7 649.8,-137.1 652.5,-137.1 			"/>
			<rect x="646.4" y="-148.3" class="st18" width="5" height="1.9"/>
		</g>
		<g class="st46">
			
				<rect x="611.8" y="-135" transform="matrix(-1 -1.224647e-16 1.224647e-16 -1 1240.8888 -255.7391)" class="st8" width="17.3" height="14.2"/>
			
				<rect x="620.4" y="-135" transform="matrix(-1 -1.224647e-16 1.224647e-16 -1 1258.1523 -255.7391)" class="st20" width="17.3" height="14.2"/>
			<polygon class="st24" points="611.8,-124.4 614.6,-124.4 614.3,-125.1 614.6,-125.7 611.8,-125.7 			"/>
			<polygon class="st8" points="620.4,-130.6 623.2,-130.6 622.9,-131.4 623.2,-131.9 620.4,-131.9 			"/>
			<polygon class="st24" points="620.4,-131.9 617.7,-131.9 617.9,-131.1 617.7,-130.6 620.4,-130.6 			"/>
			<polygon class="st8" points="637.7,-124.2 635,-124.2 635.2,-123.4 635,-122.9 637.7,-122.9 			"/>
			<rect x="631.6" y="-134" class="st18" width="5" height="1.9"/>
		</g>
		<path class="st47" d="M639.2-138.8c-0.1,0-0.1,0-0.1,0c-0.1,0-0.1,0-0.1-0.1c0-0.1,0-0.3,0-0.4c0-0.1,0-0.1,0.1-0.1
			c0.3,0,0.5,0,0.8,0c0.1,0,0.1,0,0.1,0.1c0,0.4,0,0.9,0,1.3c0,0.1,0,0.1,0.1,0.1c0.3,0,0.6,0,0.9,0c0.1,0,0.2,0,0.2-0.2
			c0-0.5,0-1,0-1.6c0-0.1-0.1-0.2-0.2-0.3c-0.4-0.2-0.7-0.4-1.1-0.6c-0.1-0.1-0.3-0.1-0.4,0c-0.4,0.2-0.7,0.4-1.1,0.6
			c-0.1,0.1-0.2,0.2-0.2,0.3c0,0.5,0,1,0,1.6c0,0.1,0,0.2,0.2,0.2c0,0,0.1,0,0.1,0c0.1,0,0.1,0,0.1,0.1c0,0.1,0,0.3,0,0.4
			c0,0.1,0,0.1-0.1,0.1c-0.2,0-0.4,0-0.6-0.1c-0.2-0.2-0.4-0.4-0.4-0.7c0-0.5,0-1.1,0-1.6c0-0.4,0.2-0.6,0.5-0.8
			c0.4-0.2,0.8-0.5,1.2-0.7c0.3-0.2,0.7-0.2,1,0c0.4,0.2,0.7,0.4,1.1,0.6c0.3,0.2,0.5,0.5,0.5,0.9c0,0.5,0,1,0,1.6
			c0,0.5-0.4,0.8-0.8,0.8c-0.5,0-1,0-1.6,0c-0.1,0-0.1,0-0.1-0.1c0-0.4,0-0.8,0-1.3C639.2-138.7,639.2-138.8,639.2-138.8z"/>
		<path class="st47" d="M624.9-124.5c-0.1,0-0.1,0-0.1,0c-0.1,0-0.1,0-0.1-0.1c0-0.1,0-0.3,0-0.4c0-0.1,0-0.1,0.1-0.1
			c0.3,0,0.5,0,0.8,0c0.1,0,0.1,0,0.1,0.1c0,0.4,0,0.9,0,1.3c0,0.1,0,0.1,0.1,0.1c0.3,0,0.6,0,0.9,0c0.1,0,0.2,0,0.2-0.2
			c0-0.5,0-1,0-1.6c0-0.1-0.1-0.2-0.2-0.3c-0.4-0.2-0.7-0.4-1.1-0.6c-0.1-0.1-0.3-0.1-0.4,0c-0.4,0.2-0.7,0.4-1.1,0.6
			c-0.1,0.1-0.2,0.2-0.2,0.3c0,0.5,0,1,0,1.6c0,0.1,0,0.2,0.2,0.2c0,0,0.1,0,0.1,0c0.1,0,0.1,0,0.1,0.1c0,0.1,0,0.3,0,0.4
			c0,0.1,0,0.1-0.1,0.1c-0.2,0-0.4,0-0.6-0.1c-0.2-0.2-0.4-0.4-0.4-0.7c0-0.5,0-1.1,0-1.6c0-0.4,0.2-0.6,0.5-0.8
			c0.4-0.2,0.8-0.5,1.2-0.7c0.3-0.2,0.7-0.2,1,0c0.4,0.2,0.7,0.4,1.1,0.6c0.3,0.2,0.5,0.5,0.5,0.9c0,0.5,0,1,0,1.6
			c0,0.5-0.4,0.8-0.8,0.8c-0.5,0-1,0-1.6,0c-0.1,0-0.1,0-0.1-0.1c0-0.4,0-0.8,0-1.3C624.9-124.5,624.9-124.5,624.9-124.5z"/>
		<path class="st47" d="M652.7-124.5c-0.1,0-0.1,0-0.1,0c-0.1,0-0.1,0-0.1-0.1c0-0.1,0-0.3,0-0.4c0-0.1,0-0.1,0.1-0.1
			c0.3,0,0.5,0,0.8,0c0.1,0,0.1,0,0.1,0.1c0,0.4,0,0.9,0,1.3c0,0.1,0,0.1,0.1,0.1c0.3,0,0.6,0,0.9,0c0.1,0,0.2,0,0.2-0.2
			c0-0.5,0-1,0-1.6c0-0.1-0.1-0.2-0.2-0.3c-0.4-0.2-0.7-0.4-1.1-0.6c-0.1-0.1-0.3-0.1-0.4,0c-0.4,0.2-0.7,0.4-1.1,0.6
			c-0.1,0.1-0.2,0.2-0.2,0.3c0,0.5,0,1,0,1.6c0,0.1,0,0.2,0.2,0.2c0,0,0.1,0,0.1,0c0.1,0,0.1,0,0.1,0.1c0,0.1,0,0.3,0,0.4
			c0,0.1,0,0.1-0.1,0.1c-0.2,0-0.4,0-0.6-0.1c-0.2-0.2-0.4-0.4-0.4-0.7c0-0.5,0-1.1,0-1.6c0-0.4,0.2-0.6,0.5-0.8
			c0.4-0.2,0.8-0.5,1.2-0.7c0.3-0.2,0.7-0.2,1,0c0.4,0.2,0.7,0.4,1.1,0.6c0.3,0.2,0.5,0.5,0.5,0.9c0,0.5,0,1,0,1.6
			c0,0.5-0.4,0.8-0.8,0.8c-0.5,0-1,0-1.6,0c-0.1,0-0.1,0-0.1-0.1c0-0.4,0-0.8,0-1.3C652.7-124.5,652.7-124.5,652.7-124.5z"/>
	</g>
</g>
</svg>
