<?xml version="1.0" encoding="utf-8"?>
<!-- Generator: Adobe Illustrator 27.0.0, SVG Export Plug-In . SVG Version: 6.00 Build 0)  -->
<svg version="1.1" xmlns="http://www.w3.org/2000/svg" xmlns:xlink="http://www.w3.org/1999/xlink" x="0px" y="0px"
	 viewBox="0 0 465.5 185.2" style="enable-background:new 0 0 465.5 185.2;" xml:space="preserve">
<style type="text/css">
	.st0{display:none;}
	.st1{display:inline;fill:#FFFFFF;}
	.st2{fill:#CDCDCD;}
	.st3{fill:#B9B9B9;}
	.st4{opacity:0.54;fill:url(#SVGID_1_);}
	.st5{fill:url(#SVGID_00000147202375301020247760000010128344802270021293_);}
	.st6{fill:url(#SVGID_00000183936964081508947850000001649683201888078727_);}
	.st7{fill:#C6C6C6;}
	.st8{fill:#A2A2A2;}
	.st9{fill:url(#SVGID_00000114788625046140107360000008705222046169618573_);}
	.st10{fill:url(#SVGID_00000099661204146572381990000004429255213909260980_);}
	.st11{opacity:0.54;fill:url(#SVGID_00000154405252677252681720000010743544562115278493_);}
	.st12{opacity:0.5;fill:url(#SVGID_00000043437496181613151570000000553915070396329395_);}
	.st13{fill:url(#SVGID_00000032640650444010131880000009034784688589287841_);}
	.st14{fill:#D3D3D3;}
	.st15{fill:url(#SVGID_00000107576442110891723710000011814939620378605457_);}
	.st16{fill:url(#SVGID_00000158008568497818066410000002203067816258879362_);}
	.st17{fill:#7C7C7C;}
	.st18{fill:#E4E4E4;}
	.st19{opacity:0.22;}
	.st20{fill:#5B5B5B;}
	.st21{fill:#717171;}
	.st22{fill:#424242;}
	.st23{opacity:0.22;fill:#FFFFFF;}
	.st24{fill:#2190DB;}
	.st25{fill:#2DBAA6;}
	.st26{fill:#EF4580;}
	.st27{fill:#444444;}
	.st28{fill:#E02B6D;}
	.st29{fill:url(#SVGID_00000130605571269722657010000007988868581661004214_);}
	.st30{fill:url(#SVGID_00000022540597243402728780000007983721886154532765_);}
	.st31{fill:url(#SVGID_00000057843034899004342980000005735150916846839486_);}
	.st32{opacity:0.5;fill:#A2A2A2;}
	.st33{fill:#303030;}
	.st34{fill:#CA0E5A;}
	.st35{opacity:0.16;fill:#FFFFFF;}
</style>
<g id="bg" class="st0">
	<rect x="-39.9" y="-30.3" class="st1" width="841.9" height="841.9"/>
</g>
<g id="graphics">
	<g>
		<path class="st2" d="M91.8,34.1c0.5,0.6,1.2,0.9,2,0.9c0,0,71.7-1.8,103.2-0.6c8.5,0.3,22.5,0.8,29,4.1c4.1,2.1,13.5,8.4,13.3,13
			c-0.1,2.7-6.3,9.1-16.4,11c-13.3,2.4-69.6,6-115-0.2C75.8,57.9,55.1,47,55,42.8c0-3.4,9.9-5.1,9.9-5.1L54.1,1.9
			c-0.3-1,0.5-2,1.5-1.9l2.9,0.1c1.3,0,2.6,0.6,3.5,1.6L91.8,34.1z"/>
		<g>
			<path class="st3" d="M58.7,39.4c7.3,5.1,25,12.1,49.1,15.4c45.5,6.2,101.7,2.7,115,0.2c7.1-1.3,12.2-4.8,14.7-7.7
				c1.1,1.4,1.8,2.9,1.8,4.2c-0.1,2.7-6.3,9.1-16.4,11c-13.3,2.4-69.6,6-115-0.2c-32-4.4-52.7-15.3-52.7-19.5
				C55.1,41.3,56.8,40.2,58.7,39.4z"/>
		</g>
		
			<linearGradient id="SVGID_1_" gradientUnits="userSpaceOnUse" x1="551.0505" y1="21.8386" x2="560.8984" y2="60.4094" gradientTransform="matrix(-1 0 0 1 703.7699 0)">
			<stop  offset="0.5458" style="stop-color:#949494"/>
			<stop  offset="1" style="stop-color:#949494"/>
		</linearGradient>
		<path class="st4" d="M170.5,52.1c1.2-0.5,7.6-3.6,7-3.6l-54.7,0.6c-0.7,0-12,11.9-12,13.2C110.8,62.2,149.4,60.4,170.5,52.1z"/>
		<g>
			<path class="st2" d="M125.6,61.7c0,0.4,0.3,0.8,0.7,0.8l2.3,0.4v-8.3l-2.3,0.4c-0.4,0.1-0.7,0.4-0.7,0.8V61.7z"/>
			<path class="st2" d="M121.2,59.4c0,0.4,0.3,0.8,0.7,0.8l3.7,0.6v-4.2l-3.7,0.6c-0.4,0.1-0.7,0.4-0.7,0.8V59.4z"/>
			
				<linearGradient id="SVGID_00000150786238700554254330000013234129087353899198_" gradientUnits="userSpaceOnUse" x1="553.692" y1="58.7886" x2="563.7668" y2="58.7886" gradientTransform="matrix(-1 0 0 1 703.7699 0)">
				<stop  offset="0" style="stop-color:#FFFFFF"/>
				<stop  offset="3.217137e-02" style="stop-color:#F3F3F3"/>
				<stop  offset="0.1222" style="stop-color:#D5D5D5"/>
				<stop  offset="0.2227" style="stop-color:#BDBDBD"/>
				<stop  offset="0.3361" style="stop-color:#ABABAB"/>
				<stop  offset="0.4697" style="stop-color:#9E9E9E"/>
				<stop  offset="0.6429" style="stop-color:#969696"/>
				<stop  offset="1" style="stop-color:#949494"/>
			</linearGradient>
			
				<rect x="144.3" y="53.6" style="fill:url(#SVGID_00000150786238700554254330000013234129087353899198_);" width="2.2" height="10.4"/>
			
				<linearGradient id="SVGID_00000101810318708622499700000008180388851544601223_" gradientUnits="userSpaceOnUse" x1="563.4336" y1="51.5455" x2="580.4056" y2="51.5455" gradientTransform="matrix(-1 0 0 1 703.7699 0)">
				<stop  offset="0" style="stop-color:#F0F0F0"/>
				<stop  offset="0.1253" style="stop-color:#E8E8E8"/>
				<stop  offset="0.6821" style="stop-color:#CBCBCB"/>
				<stop  offset="1" style="stop-color:#C0C0C0"/>
			</linearGradient>
			<polygon style="fill:url(#SVGID_00000101810318708622499700000008180388851544601223_);" points="123.4,50.7 132.6,50.5 
				140.3,51.3 131.1,52.6 			"/>
			<path class="st7" d="M149.4,63.5c0,0.4-0.3,0.8-0.7,0.9l-1.8,0.4c-0.4,0.1-0.7-0.2-0.7-0.6v-11c0-0.4,0.3-0.6,0.7-0.6l1.8,0.4
				c0.4,0.1,0.7,0.5,0.7,0.9V63.5z"/>
			<path class="st7" d="M129.1,52.9c1.2-0.7,4.2-2.1,9.2-1.9c2.1,0.1,4.5,0.7,6.5,1.2c0.4,0.1,0.7,0.4,0.7,0.8v11.7
				c0,0.4-0.3,0.7-0.7,0.8c-2,0.5-4.4,1.2-6.5,1.2c-5.1,0.1-8.1-1.2-9.2-1.9c-0.4-0.2-0.6-0.7-0.6-1.1V54
				C128.5,53.5,128.7,53.1,129.1,52.9z"/>
		</g>
		<path class="st8" d="M197.1,42.7c0,0.6,0.5,1.2,1.2,1.2h1c0.7,0,1.2-0.5,1.2-1.2v-1.5c0-0.7-0.5-1.2-1.2-1.2h-1
			c-0.6,0-1.2,0.5-1.2,1.2V42.7z"/>
		<path class="st8" d="M112.1,42.7c0,0.6,0.5,1.2,1.2,1.2h1c0.6,0,1.2-0.5,1.2-1.2v-1.5c0-0.7-0.5-1.2-1.2-1.2h-1
			c-0.7,0-1.2,0.5-1.2,1.2V42.7z"/>
		<path class="st8" d="M116.8,42.7c0,0.6,0.5,1.2,1.2,1.2h1c0.6,0,1.2-0.5,1.2-1.2v-1.5c0-0.7-0.5-1.2-1.2-1.2h-1
			c-0.6,0-1.2,0.5-1.2,1.2V42.7z"/>
		<path class="st8" d="M121.6,42.7c0,0.6,0.5,1.2,1.2,1.2h1c0.7,0,1.2-0.5,1.2-1.2v-1.5c0-0.7-0.5-1.2-1.2-1.2h-1
			c-0.7,0-1.2,0.5-1.2,1.2V42.7z"/>
		<path class="st8" d="M126.3,42.7c0,0.6,0.5,1.2,1.2,1.2h1c0.7,0,1.2-0.5,1.2-1.2v-1.5c0-0.7-0.5-1.2-1.2-1.2h-1
			c-0.6,0-1.2,0.5-1.2,1.2V42.7z"/>
		<path class="st8" d="M131,42.7c0,0.6,0.5,1.2,1.2,1.2h1c0.7,0,1.2-0.5,1.2-1.2v-1.5c0-0.7-0.5-1.2-1.2-1.2h-1
			c-0.7,0-1.2,0.5-1.2,1.2V42.7z"/>
		<path class="st8" d="M135.7,42.7c0,0.6,0.5,1.2,1.2,1.2h1c0.6,0,1.2-0.5,1.2-1.2v-1.5c0-0.7-0.5-1.2-1.2-1.2h-1
			c-0.7,0-1.2,0.5-1.2,1.2V42.7z"/>
		<path class="st8" d="M140.4,42.7c0,0.6,0.5,1.2,1.2,1.2h1c0.6,0,1.2-0.5,1.2-1.2v-1.5c0-0.7-0.5-1.2-1.2-1.2h-1
			c-0.7,0-1.2,0.5-1.2,1.2V42.7z"/>
		<path class="st8" d="M145.2,42.7c0,0.6,0.5,1.2,1.2,1.2h1c0.7,0,1.2-0.5,1.2-1.2v-1.5c0-0.7-0.5-1.2-1.2-1.2h-1
			c-0.7,0-1.2,0.5-1.2,1.2V42.7z"/>
		<path class="st8" d="M149.9,42.7c0,0.6,0.5,1.2,1.2,1.2h1c0.6,0,1.2-0.5,1.2-1.2v-1.5c0-0.7-0.5-1.2-1.2-1.2h-1
			c-0.7,0-1.2,0.5-1.2,1.2V42.7z"/>
		<path class="st8" d="M154.6,42.7c0,0.6,0.5,1.2,1.2,1.2h1c0.7,0,1.2-0.5,1.2-1.2v-1.5c0-0.7-0.5-1.2-1.2-1.2h-1
			c-0.6,0-1.2,0.5-1.2,1.2V42.7z"/>
		<path class="st8" d="M159.3,42.7c0,0.6,0.5,1.2,1.2,1.2h1c0.6,0,1.2-0.5,1.2-1.2v-1.5c0-0.7-0.5-1.2-1.2-1.2h-1
			c-0.7,0-1.2,0.5-1.2,1.2V42.7z"/>
		<path class="st8" d="M164.1,42.7c0,0.6,0.5,1.2,1.2,1.2h1c0.7,0,1.2-0.5,1.2-1.2v-1.5c0-0.7-0.5-1.2-1.2-1.2h-1
			c-0.6,0-1.2,0.5-1.2,1.2V42.7z"/>
		<path class="st8" d="M168.8,42.7c0,0.6,0.5,1.2,1.2,1.2h1c0.6,0,1.2-0.5,1.2-1.2v-1.5c0-0.7-0.5-1.2-1.2-1.2h-1
			c-0.6,0-1.2,0.5-1.2,1.2V42.7z"/>
		<path class="st8" d="M173.5,42.7c0,0.6,0.5,1.2,1.2,1.2h1c0.6,0,1.2-0.5,1.2-1.2v-1.5c0-0.7-0.5-1.2-1.2-1.2h-1
			c-0.6,0-1.2,0.5-1.2,1.2V42.7z"/>
		<path class="st8" d="M178.2,42.7c0,0.6,0.5,1.2,1.2,1.2h1c0.7,0,1.2-0.5,1.2-1.2v-1.5c0-0.7-0.5-1.2-1.2-1.2h-1
			c-0.6,0-1.2,0.5-1.2,1.2V42.7z"/>
		<path class="st8" d="M182.9,42.7c0,0.6,0.5,1.2,1.2,1.2h1c0.7,0,1.2-0.5,1.2-1.2v-1.5c0-0.7-0.5-1.2-1.2-1.2h-1
			c-0.6,0-1.2,0.5-1.2,1.2V42.7z"/>
		<path class="st8" d="M187.7,42.7c0,0.6,0.5,1.2,1.2,1.2h1c0.7,0,1.2-0.5,1.2-1.2v-1.5c0-0.7-0.5-1.2-1.2-1.2h-1
			c-0.7,0-1.2,0.5-1.2,1.2V42.7z"/>
		<path class="st8" d="M192.4,42.7c0,0.6,0.5,1.2,1.2,1.2h1c0.6,0,1.2-0.5,1.2-1.2v-1.5c0-0.7-0.5-1.2-1.2-1.2h-1
			c-0.6,0-1.2,0.5-1.2,1.2V42.7z"/>
		<path class="st8" d="M107.4,42.7c0,0.6,0.5,1.2,1.2,1.2h1c0.7,0,1.2-0.5,1.2-1.2v-1.5c0-0.7-0.5-1.2-1.2-1.2h-1
			c-0.6,0-1.2,0.5-1.2,1.2V42.7z"/>
		<path class="st8" d="M220.9,42.7v-1.5c0-0.7,0.5-1.2,1.2-1.2h6.5c1.7,1.1,3.7,2.4,5.4,3.9H222C221.4,43.9,220.9,43.4,220.9,42.7z"
			/>
		<g>
			<path class="st7" d="M102.6,64.9c0,0.5,0.4,1,0.9,1.1l3,0.5V55.8l-3,0.5c-0.5,0.1-0.9,0.5-0.9,1.1V64.9z"/>
			<path class="st2" d="M96.9,62c0,0.5,0.4,1,0.9,1.1l4.8,0.8v-5.5l-4.8,0.8c-0.5,0.1-0.9,0.6-0.9,1.1V62z"/>
			
				<linearGradient id="SVGID_00000003100461306636775370000013256658313535082410_" gradientUnits="userSpaceOnUse" x1="569.3604" y1="61.1487" x2="582.4258" y2="61.1487" gradientTransform="matrix(-1 0 0 1 703.7699 0)">
				<stop  offset="0" style="stop-color:#FFFFFF"/>
				<stop  offset="3.217137e-02" style="stop-color:#F3F3F3"/>
				<stop  offset="0.1222" style="stop-color:#D5D5D5"/>
				<stop  offset="0.2227" style="stop-color:#BDBDBD"/>
				<stop  offset="0.3361" style="stop-color:#ABABAB"/>
				<stop  offset="0.4697" style="stop-color:#9E9E9E"/>
				<stop  offset="0.6429" style="stop-color:#969696"/>
				<stop  offset="1" style="stop-color:#949494"/>
			</linearGradient>
			
				<rect x="127" y="54.4" style="fill:url(#SVGID_00000003100461306636775370000013256658313535082410_);" width="2.9" height="13.4"/>
			
				<linearGradient id="SVGID_00000014617124443418066400000007239485623068397743_" gradientUnits="userSpaceOnUse" x1="581.9896" y1="51.7636" x2="603.9835" y2="51.7636" gradientTransform="matrix(-1 0 0 1 703.7699 0)">
				<stop  offset="0" style="stop-color:#F0F0F0"/>
				<stop  offset="0.1253" style="stop-color:#E8E8E8"/>
				<stop  offset="0.6821" style="stop-color:#CBCBCB"/>
				<stop  offset="1" style="stop-color:#C0C0C0"/>
			</linearGradient>
			<polygon style="fill:url(#SVGID_00000014617124443418066400000007239485623068397743_);" points="99.8,50.7 111.8,50.4 
				121.8,51.5 109.8,53.2 			"/>
			<path class="st2" d="M133.5,67.3c0,0.5-0.4,1-0.9,1.1l-2.3,0.6c-0.5,0.1-0.9-0.2-0.9-0.7V54c0-0.5,0.4-0.8,0.9-0.7l2.3,0.6
				c0.5,0.1,0.9,0.6,0.9,1.1V67.3z"/>
			<path class="st2" d="M107.2,53.5c1.5-0.9,5.4-2.7,12-2.5c2.7,0.1,5.9,0.9,8.4,1.6c0.5,0.1,1,0.5,1,1v15.1c0,0.5-0.4,0.9-1,1
				c-2.6,0.7-5.7,1.5-8.4,1.6c-6.6,0.2-10.4-1.6-12-2.5c-0.5-0.3-0.8-0.9-0.8-1.4V54.9C106.4,54.3,106.7,53.8,107.2,53.5z"/>
		</g>
		
			<linearGradient id="SVGID_00000019674938822172352720000017371172404188257940_" gradientUnits="userSpaceOnUse" x1="629.4374" y1="29.6307" x2="633.2379" y2="44.516" gradientTransform="matrix(-1 0 0 1 703.7699 0)">
			<stop  offset="0.5458" style="stop-color:#949494"/>
			<stop  offset="1" style="stop-color:#949494"/>
		</linearGradient>
		<path style="opacity:0.54;fill:url(#SVGID_00000019674938822172352720000017371172404188257940_);" d="M72.1,45.3
			c5.4-0.9,14.1-4.8,14.1-4.8l-22.8,0.2c0,0-7.1,2.2-7.1,3C56.1,44.6,60.1,47.2,72.1,45.3z"/>
		
			<linearGradient id="SVGID_00000108273255713010198460000002921266264453470876_" gradientUnits="userSpaceOnUse" x1="-11827.7656" y1="-11213.3359" x2="-11827.7656" y2="-11203.9297" gradientTransform="matrix(1 0 0 -1 11950.9365 -11150.7529)">
			<stop  offset="0" style="stop-color:#FFFFFF"/>
			<stop  offset="1" style="stop-color:#949494"/>
		</linearGradient>
		<path style="opacity:0.5;fill:url(#SVGID_00000108273255713010198460000002921266264453470876_);" d="M96.9,62v-2.8l51.2-6.3
			c0,0,0.1,0.2,0.5,0.3c1,0.3,0.7,1.2,0.7,1.2v1.1L96.9,62z"/>
		<g>
			
				<linearGradient id="SVGID_00000091734029402634882570000017894756321493178534_" gradientUnits="userSpaceOnUse" x1="583.8081" y1="-624.4177" x2="591.7073" y2="-552.6667" gradientTransform="matrix(-1 0 0 -1 703.7699 -546.312)">
				<stop  offset="0" style="stop-color:#FFFFFF"/>
				<stop  offset="1" style="stop-color:#949494"/>
			</linearGradient>
			<path style="fill:url(#SVGID_00000091734029402634882570000017894756321493178534_);" d="M176.4,46.6l-1.3,0.2L79.3,59.5
				l-22.4,0.1c-0.1,0.2-0.1,1.1,0,1.1c6,0.5,20.5,1.3,22.4,1.1c4.9-0.3,97.3-11.3,98.2-13.3C178.5,46.4,176.4,46.6,176.4,46.6z"/>
			<path class="st14" d="M89.7,48.1c-0.9,0-1.7,0.2-2.5,0.5L57.1,59.4c0,0-0.3,0.2-0.2,0.3c0,0,0,0.1,0.1,0.1
				c1.2,0.1,17.9,1,22.3,0.8c17.9-1.1,67.8-9.3,67.8-9.3l28-4.5L89.7,48.1z"/>
		</g>
		<g>
			
				<linearGradient id="SVGID_00000132052444319069494290000004209480764356299933_" gradientUnits="userSpaceOnUse" x1="632.0446" y1="-594.0582" x2="633.9732" y2="-576.5393" gradientTransform="matrix(-1 0 0 -1 703.7699 -546.312)">
				<stop  offset="0" style="stop-color:#FFFFFF"/>
				<stop  offset="1" style="stop-color:#949494"/>
			</linearGradient>
			<path style="fill:url(#SVGID_00000132052444319069494290000004209480764356299933_);" d="M85.9,40l-0.3,0l-24,3.2l-5.6,0
				c-0.2,0,0,0.4,0.2,0.4c1.8,0.1,1.7,0,5.4,0c1.4,0,24.3-2.8,24.6-3.2C86.4,40,85.9,40,85.9,40z"/>
			
				<linearGradient id="SVGID_00000180359731416481319220000004386290695141308553_" gradientUnits="userSpaceOnUse" x1="618.2493" y1="-588.0305" x2="647.8083" y2="-588.0305" gradientTransform="matrix(-1 0 0 -1 703.7699 -546.312)">
				<stop  offset="0" style="stop-color:#F0F0F0"/>
				<stop  offset="0.1253" style="stop-color:#E8E8E8"/>
				<stop  offset="0.6821" style="stop-color:#CBCBCB"/>
				<stop  offset="1" style="stop-color:#C0C0C0"/>
			</linearGradient>
			<path style="fill:url(#SVGID_00000180359731416481319220000004386290695141308553_);" d="M64.2,40.4c-0.2,0-0.4,0-0.6,0.1
				L56,43.2c-0.1,0-0.1,0.2,0,0.2c0,0,3.5,0,4.7-0.1c4.5-0.3,17.8-2.1,17.8-2.1l7-1.1L64.2,40.4z"/>
		</g>
	</g>
	<g>
		<g>
			
				<rect x="0" y="130.1" transform="matrix(-1 -1.224647e-16 1.224647e-16 -1 66.6801 315.271)" class="st3" width="66.8" height="55"/>
			
				<rect x="33.3" y="130.1" transform="matrix(-1 -1.224647e-16 1.224647e-16 -1 133.4385 315.271)" class="st2" width="66.8" height="55"/>
			<polygon class="st17" points="0,171.2 10.6,171.2 9.6,168.2 10.6,166.1 0,166.1 			"/>
			<polygon class="st3" points="33.3,147.1 43.9,147.1 43,144.2 43.9,142 33.3,142 			"/>
			<polygon class="st17" points="33.3,142 22.8,142 23.7,145 22.8,147.1 33.3,147.1 			"/>
			<polygon class="st3" points="100.1,171.8 89.5,171.8 90.5,174.8 89.5,176.9 100.1,176.9 			"/>
			<rect x="76.5" y="133.8" class="st18" width="19.2" height="7.5"/>
			<path class="st19" d="M44.3,173.1c-0.2,0-0.3,0-0.4,0c-0.2,0-0.3-0.1-0.3-0.3c0-0.4,0-0.8,0-1.2c0-0.2,0.1-0.3,0.3-0.3
				c0.7,0,1.4,0,2.1,0c0.2,0,0.3,0.1,0.3,0.3c0,1.2,0,2.4,0,3.6c0,0.2,0,0.2,0.2,0.2c0.8,0,1.6,0,2.3,0c0.3,0,0.4-0.1,0.4-0.4
				c0-1.4,0-2.8,0-4.3c0-0.4-0.2-0.6-0.5-0.8c-1-0.5-2-1.1-3-1.7c-0.4-0.2-0.7-0.2-1.1,0c-1,0.6-1.9,1.1-2.9,1.6
				c-0.4,0.2-0.5,0.5-0.5,0.9c0,1.4,0,2.8,0,4.3c0,0.3,0.1,0.4,0.4,0.4c0.1,0,0.3,0,0.4,0c0.2,0,0.3,0.1,0.3,0.3c0,0.4,0,0.8,0,1.2
				c0,0.2-0.1,0.3-0.2,0.3c-0.6,0-1.1,0-1.6-0.3c-0.7-0.4-1-1-1-1.8c0-1.5,0-3,0-4.4c0-1,0.4-1.7,1.3-2.2c1.1-0.6,2.2-1.2,3.3-1.8
				c0.9-0.5,1.8-0.4,2.7,0.1c1,0.6,2,1.1,3,1.7c0.9,0.5,1.4,1.3,1.4,2.4c0,1.4,0,2.8,0,4.2c0,1.3-1.1,2.2-2.2,2.2
				c-1.4,0-2.8,0-4.3,0c-0.3,0-0.4-0.1-0.4-0.4c0-1.1,0-2.3,0-3.4C44.3,173.3,44.3,173.2,44.3,173.1z"/>
		</g>
		<g>
			<rect x="36.2" y="98.2" class="st20" width="38.7" height="31.9"/>
			<rect x="16.9" y="98.2" class="st21" width="38.7" height="31.9"/>
			<polygon class="st22" points="74.9,122 68.7,122 69.3,120.3 68.7,119 74.9,119 			"/>
			<polygon class="st20" points="55.5,108.1 49.4,108.1 50,106.3 49.4,105.1 55.5,105.1 			"/>
			<polygon class="st22" points="55.5,105.1 61.7,105.1 61.1,106.8 61.7,108.1 55.5,108.1 			"/>
			<polygon class="st20" points="16.9,122.3 23,122.3 22.5,124.1 23,125.3 16.9,125.3 			"/>
			<path class="st23" d="M44.3,121.1c-0.2,0-0.3,0-0.4,0c-0.2,0-0.3-0.1-0.3-0.3c0-0.4,0-0.8,0-1.2c0-0.2,0.1-0.3,0.3-0.3
				c0.7,0,1.4,0,2.1,0c0.2,0,0.3,0.1,0.3,0.3c0,1.2,0,2.4,0,3.6c0,0.2,0,0.2,0.2,0.2c0.8,0,1.6,0,2.3,0c0.3,0,0.4-0.1,0.4-0.4
				c0-1.4,0-2.8,0-4.3c0-0.4-0.2-0.6-0.5-0.8c-1-0.5-2-1.1-3-1.7c-0.4-0.2-0.7-0.2-1.1,0c-1,0.6-1.9,1.1-2.9,1.6
				c-0.4,0.2-0.5,0.5-0.5,0.9c0,1.4,0,2.8,0,4.3c0,0.3,0.1,0.4,0.4,0.4c0.1,0,0.3,0,0.4,0c0.2,0,0.3,0.1,0.3,0.3c0,0.4,0,0.8,0,1.2
				c0,0.2-0.1,0.3-0.2,0.3c-0.6,0-1.1,0-1.6-0.3c-0.7-0.4-1-1-1-1.8c0-1.5,0-3,0-4.4c0-1,0.4-1.7,1.3-2.2c1.1-0.6,2.2-1.2,3.3-1.8
				c0.9-0.5,1.8-0.4,2.7,0.1c1,0.6,2,1.1,3,1.7c0.9,0.5,1.4,1.3,1.4,2.4c0,1.4,0,2.8,0,4.2c0,1.3-1.1,2.2-2.2,2.2
				c-1.4,0-2.8,0-4.3,0c-0.3,0-0.4-0.1-0.4-0.4c0-1.1,0-2.3,0-3.4C44.3,121.3,44.3,121.2,44.3,121.1z"/>
		</g>
		<g>
			<rect x="70.6" y="147.1" class="st20" width="46.1" height="38"/>
			<rect x="47.5" y="147.1" class="st21" width="46.1" height="38"/>
			<polygon class="st22" points="116.6,175.5 109.3,175.5 110,173.5 109.3,172 116.6,172 			"/>
			<polygon class="st20" points="93.6,158.9 86.3,158.9 86.9,156.9 86.3,155.4 93.6,155.4 			"/>
			<polygon class="st22" points="93.6,155.4 100.9,155.4 100.3,157.4 100.9,158.9 93.6,158.9 			"/>
			<polygon class="st20" points="47.5,175.9 54.8,175.9 54.2,178 54.8,179.5 47.5,179.5 			"/>
			<path class="st23" d="M81.3,175.6c-0.2,0-0.3,0-0.4,0c-0.2,0-0.3-0.1-0.3-0.3c0-0.4,0-0.8,0-1.2c0-0.2,0.1-0.3,0.3-0.3
				c0.7,0,1.4,0,2.1,0c0.2,0,0.3,0.1,0.3,0.3c0,1.2,0,2.4,0,3.6c0,0.2,0,0.2,0.2,0.2c0.8,0,1.6,0,2.3,0c0.3,0,0.4-0.1,0.4-0.4
				c0-1.4,0-2.8,0-4.3c0-0.4-0.2-0.6-0.5-0.8c-1-0.5-2-1.1-3-1.7c-0.4-0.2-0.7-0.2-1.1,0c-1,0.6-1.9,1.1-2.9,1.6
				c-0.4,0.2-0.5,0.5-0.5,0.9c0,1.4,0,2.8,0,4.3c0,0.3,0.1,0.4,0.4,0.4c0.1,0,0.3,0,0.4,0c0.2,0,0.3,0.1,0.3,0.3c0,0.4,0,0.8,0,1.2
				c0,0.2-0.1,0.3-0.2,0.3c-0.6,0-1.1,0-1.6-0.3c-0.7-0.4-1-1-1-1.8c0-1.5,0-3,0-4.4c0-1,0.4-1.7,1.3-2.2c1.1-0.6,2.2-1.2,3.3-1.8
				c0.9-0.5,1.8-0.4,2.7,0.1c1,0.6,2,1.1,3,1.7c0.9,0.5,1.4,1.3,1.4,2.4c0,1.4,0,2.8,0,4.2c0,1.3-1.1,2.2-2.2,2.2
				c-1.4,0-2.8,0-4.3,0c-0.3,0-0.4-0.1-0.4-0.4c0-1.1,0-2.3,0-3.4C81.3,175.9,81.3,175.8,81.3,175.6z"/>
		</g>
	</g>
	<g>
		<rect x="267.3" y="139.8" class="st24" width="20.8" height="20.8"/>
		<rect x="267.3" y="116.7" class="st25" width="20.8" height="20.8"/>
		<rect x="197.9" y="139.8" class="st26" width="20.8" height="20.8"/>
		<rect x="197.9" y="116.8" class="st27" width="20.8" height="20.8"/>
		<rect x="221" y="139.8" class="st25" width="20.8" height="20.8"/>
		<rect x="290.4" y="139.8" class="st25" width="20.8" height="20.8"/>
		<rect x="221" y="116.8" class="st24" width="20.8" height="20.8"/>
		<rect x="290.4" y="116.8" class="st27" width="20.8" height="20.8"/>
		<rect x="244.1" y="139.8" class="st28" width="20.8" height="20.8"/>
		<rect x="244.1" y="116.8" class="st26" width="20.8" height="20.8"/>
		
			<linearGradient id="SVGID_00000150085401526698396160000012641358339655422379_" gradientUnits="userSpaceOnUse" x1="323.9113" y1="158.1433" x2="323.9113" y2="137.3595">
			<stop  offset="0.2" style="stop-color:#E04F82"/>
			<stop  offset="1" style="stop-color:#983C5C"/>
		</linearGradient>
		
			<rect x="313.5" y="139.8" style="fill:url(#SVGID_00000150085401526698396160000012641358339655422379_);" width="20.8" height="20.8"/>
		<rect x="313.5" y="116.8" class="st25" width="20.8" height="20.8"/>
		
			<linearGradient id="SVGID_00000179634673299091339270000017286944228366498731_" gradientUnits="userSpaceOnUse" x1="-8777.083" y1="1962.8284" x2="-8756.2988" y2="1962.8284" gradientTransform="matrix(0 -1 1 0 -1615.7887 -8616.4531)">
			<stop  offset="0" style="stop-color:#2CB0A1"/>
			<stop  offset="1" style="stop-color:#4B7686"/>
		</linearGradient>
		
			<rect x="336.6" y="139.8" style="fill:url(#SVGID_00000179634673299091339270000017286944228366498731_);" width="20.8" height="20.8"/>
		<rect x="336.6" y="116.8" class="st24" width="20.8" height="20.8"/>
		
			<linearGradient id="SVGID_00000127010446808654821980000010661060899065151913_" gradientUnits="userSpaceOnUse" x1="-8743.7227" y1="1952.595" x2="-8722.9395" y2="1952.595" gradientTransform="matrix(0 -1 1 0 -1582.4285 -8583.0928)">
			<stop  offset="0.2" style="stop-color:#E04F82"/>
			<stop  offset="1" style="stop-color:#983C5C"/>
		</linearGradient>
		
			<rect x="359.8" y="139.8" style="fill:url(#SVGID_00000127010446808654821980000010661060899065151913_);" width="20.8" height="20.8"/>
		<rect x="359.8" y="116.8" class="st26" width="20.8" height="20.8"/>
		<g>
			<rect x="144.6" y="96.6" class="st3" width="51.6" height="65.6"/>
			<rect x="135.1" y="119.8" class="st2" width="22.3" height="42.4"/>
			<g>
				<path class="st32" d="M190.3,104.1c0,0.8-0.6,1.4-1.4,1.4h-38.1c-0.8,0-1.4-0.6-1.4-1.4c0-0.8,0.6-1.4,1.4-1.4h38.1
					C189.7,102.7,190.3,103.3,190.3,104.1z"/>
				<path class="st32" d="M190.3,111.5c0,0.8-0.6,1.4-1.4,1.4h-38.1c-0.8,0-1.4-0.6-1.4-1.4c0-0.8,0.6-1.4,1.4-1.4h38.1
					C189.7,110.1,190.3,110.8,190.3,111.5z"/>
			</g>
			<g>
				<path class="st32" d="M155.3,123.3c0,0.4-0.3,0.7-0.7,0.7H138c-0.4,0-0.7-0.3-0.7-0.7c0-0.4,0.3-0.7,0.7-0.7h16.5
					C154.9,122.5,155.3,122.9,155.3,123.3z"/>
				<path class="st32" d="M155.3,127.1c0,0.4-0.3,0.7-0.7,0.7H138c-0.4,0-0.7-0.3-0.7-0.7c0-0.4,0.3-0.7,0.7-0.7h16.5
					C154.9,126.4,155.3,126.7,155.3,127.1z"/>
				<path class="st32" d="M155.3,131c0,0.4-0.3,0.7-0.7,0.7H138c-0.4,0-0.7-0.3-0.7-0.7c0-0.4,0.3-0.7,0.7-0.7h16.5
					C154.9,130.3,155.3,130.6,155.3,131z"/>
			</g>
			<polygon class="st3" points="156.8,96.6 183.6,96.6 180.1,81 160.3,81 			"/>
		</g>
		<g>
			<path class="st27" d="M284.1,159.9c-2.1,1.5-4.6,2.3-7.2,2.3H76c0,0,21.7,18.9,30,20.9c2.6,0.6,10.7,2.1,10.7,2.1h307.8
				c0,0,2-16.6,5.9-23c11.1-18.1,22.5-9.8,34.2-40.5c1.4-3.8-61.4-1.3-83.2,0c-13.1,0.8-17.7,4.9-19.2,8.1c-1,1.9-2.5,3.8-4.7,3.8
				h-32.2c-2.6,0-5.1,0.8-7.2,2.3L284.1,159.9z"/>
			<path class="st33" d="M401.7,137.3c0,2.1-1.7,3.7-3.7,3.7c-2.1,0-3.7-1.7-3.7-3.7c0-2.1,1.7-3.7,3.7-3.7
				C400,133.5,401.7,135.2,401.7,137.3z"/>
			<path class="st34" d="M95.3,177.3c5.4,2.6,7.4,5,10.7,5.8c2.6,0.6,10.7,2.1,10.7,2.1h307.8c0,0,0.1-3.6,1.6-7.9H95.3z"/>
		</g>
		<path class="st35" d="M207.3,128.8c-0.2,0-0.3,0-0.5,0c-0.2,0-0.4-0.1-0.4-0.4c0-0.5,0-1,0-1.4c0-0.3,0.1-0.4,0.4-0.4
			c0.9,0,1.7,0,2.6,0c0.3,0,0.4,0.1,0.4,0.4c0,1.5,0,3,0,4.5c0,0.2,0,0.3,0.2,0.3c1,0,1.9,0,2.9,0c0.4,0,0.5-0.1,0.5-0.6
			c0-1.8,0-3.5,0-5.3c0-0.5-0.2-0.8-0.6-1c-1.2-0.7-2.5-1.4-3.7-2.1c-0.5-0.3-0.9-0.3-1.3,0c-1.2,0.7-2.4,1.4-3.6,2
			c-0.4,0.2-0.6,0.6-0.6,1.1c0,1.8,0,3.5,0,5.3c0,0.4,0.1,0.5,0.5,0.5c0.2,0,0.3,0,0.5,0c0.2,0,0.3,0.1,0.3,0.4c0,0.5,0,1,0,1.5
			c0,0.2-0.1,0.3-0.3,0.3c-0.7,0-1.4,0-2-0.3c-0.8-0.5-1.3-1.2-1.3-2.2c0-1.8,0-3.7,0-5.5c0-1.2,0.6-2.1,1.6-2.7
			c1.3-0.8,2.7-1.5,4-2.2c1.1-0.6,2.2-0.5,3.3,0.1c1.2,0.7,2.5,1.4,3.7,2.1c1.2,0.6,1.8,1.6,1.7,3c0,1.8,0,3.5,0,5.3
			c0,1.7-1.3,2.7-2.7,2.7c-1.8,0-3.5,0-5.3,0c-0.4,0-0.5-0.1-0.5-0.5c0-1.4,0-2.8,0-4.2C207.3,129,207.3,128.9,207.3,128.8z"/>
		<path class="st19" d="M253.3,151.9c-0.2,0-0.3,0-0.5,0c-0.2,0-0.4-0.1-0.4-0.4c0-0.5,0-1,0-1.4c0-0.3,0.1-0.4,0.4-0.4
			c0.9,0,1.7,0,2.6,0c0.3,0,0.4,0.1,0.4,0.4c0,1.5,0,3,0,4.5c0,0.2,0,0.3,0.2,0.3c1,0,1.9,0,2.9,0c0.4,0,0.5-0.1,0.5-0.6
			c0-1.8,0-3.5,0-5.3c0-0.5-0.2-0.8-0.6-1c-1.2-0.7-2.5-1.4-3.7-2.1c-0.5-0.3-0.9-0.3-1.3,0c-1.2,0.7-2.4,1.4-3.6,2
			c-0.4,0.2-0.6,0.6-0.6,1.1c0,1.8,0,3.5,0,5.3c0,0.4,0.1,0.5,0.5,0.5c0.2,0,0.3,0,0.5,0c0.2,0,0.3,0.1,0.3,0.4c0,0.5,0,1,0,1.5
			c0,0.2-0.1,0.3-0.3,0.3c-0.7,0-1.4,0-2-0.3c-0.8-0.5-1.3-1.2-1.3-2.2c0-1.8,0-3.7,0-5.5c0-1.2,0.6-2.1,1.6-2.7
			c1.3-0.8,2.7-1.5,4-2.2c1.1-0.6,2.2-0.5,3.3,0.1c1.2,0.7,2.5,1.4,3.7,2.1c1.2,0.6,1.8,1.6,1.7,3c0,1.8,0,3.5,0,5.3
			c0,1.7-1.3,2.7-2.7,2.7c-1.8,0-3.5,0-5.3,0c-0.4,0-0.5-0.1-0.5-0.5c0-1.4,0-2.8,0-4.2C253.3,152.1,253.3,152,253.3,151.9z"/>
		<path class="st19" d="M276.4,128.8c-0.2,0-0.3,0-0.5,0c-0.2,0-0.4-0.1-0.4-0.4c0-0.5,0-1,0-1.4c0-0.3,0.1-0.4,0.4-0.4
			c0.9,0,1.7,0,2.6,0c0.3,0,0.4,0.1,0.4,0.4c0,1.5,0,3,0,4.5c0,0.2,0,0.3,0.2,0.3c1,0,1.9,0,2.9,0c0.4,0,0.5-0.1,0.5-0.6
			c0-1.8,0-3.5,0-5.3c0-0.5-0.2-0.8-0.6-1c-1.2-0.7-2.5-1.4-3.7-2.1c-0.5-0.3-0.9-0.3-1.3,0c-1.2,0.7-2.4,1.4-3.6,2
			c-0.4,0.2-0.6,0.6-0.6,1.1c0,1.8,0,3.5,0,5.3c0,0.4,0.1,0.5,0.5,0.5c0.2,0,0.3,0,0.5,0c0.2,0,0.3,0.1,0.3,0.4c0,0.5,0,1,0,1.5
			c0,0.2-0.1,0.3-0.3,0.3c-0.7,0-1.4,0-2-0.3c-0.8-0.5-1.3-1.2-1.3-2.2c0-1.8,0-3.7,0-5.5c0-1.2,0.6-2.1,1.6-2.7
			c1.3-0.8,2.7-1.5,4-2.2c1.1-0.6,2.2-0.5,3.3,0.1c1.2,0.7,2.5,1.4,3.7,2.1c1.2,0.6,1.8,1.6,1.7,3c0,1.8,0,3.5,0,5.3
			c0,1.7-1.3,2.7-2.7,2.7c-1.8,0-3.5,0-5.3,0c-0.4,0-0.5-0.1-0.5-0.5c0-1.4,0-2.8,0-4.2C276.4,129,276.4,128.9,276.4,128.8z"/>
		<path class="st23" d="M299.5,128.8c-0.2,0-0.3,0-0.5,0c-0.2,0-0.4-0.1-0.4-0.4c0-0.5,0-1,0-1.4c0-0.3,0.1-0.4,0.4-0.4
			c0.9,0,1.7,0,2.6,0c0.3,0,0.4,0.1,0.4,0.4c0,1.5,0,3,0,4.5c0,0.2,0,0.3,0.2,0.3c1,0,1.9,0,2.9,0c0.4,0,0.5-0.1,0.5-0.6
			c0-1.8,0-3.5,0-5.3c0-0.5-0.2-0.8-0.6-1c-1.2-0.7-2.5-1.4-3.7-2.1c-0.5-0.3-0.9-0.3-1.3,0c-1.2,0.7-2.4,1.4-3.6,2
			c-0.4,0.2-0.6,0.6-0.6,1.1c0,1.8,0,3.5,0,5.3c0,0.4,0.1,0.5,0.5,0.5c0.2,0,0.3,0,0.5,0c0.2,0,0.3,0.1,0.3,0.4c0,0.5,0,1,0,1.5
			c0,0.2-0.1,0.3-0.3,0.3c-0.7,0-1.4,0-2-0.3c-0.8-0.5-1.3-1.2-1.3-2.2c0-1.8,0-3.7,0-5.5c0-1.2,0.6-2.1,1.6-2.7
			c1.3-0.8,2.7-1.5,4-2.2c1.1-0.6,2.2-0.5,3.3,0.1c1.2,0.7,2.5,1.4,3.7,2.1c1.2,0.6,1.8,1.6,1.7,3c0,1.8,0,3.5,0,5.3
			c0,1.7-1.3,2.7-2.7,2.7c-1.8,0-3.5,0-5.3,0c-0.4,0-0.5-0.1-0.5-0.5c0-1.4,0-2.8,0-4.2C299.5,129,299.5,128.9,299.5,128.8z"/>
	</g>
</g>
</svg>
