<?xml version="1.0" encoding="UTF-8"?>
<svg id="Layer_1" xmlns="http://www.w3.org/2000/svg" version="1.1" viewBox="0 0 212.8 34.6">
  <!-- Generator: Adobe Illustrator 29.1.0, SVG Export Plug-In . SVG Version: 2.1.0 Build 142)  -->
  <defs>
    <style>
      .st0 {
        fill: #377f61;
      }

      .st0, .st1 {
        fill-rule: evenodd;
      }

      .st1 {
        fill: #303030;
        <!-- fill: #000; -->
      }
    </style>
  </defs>
  <g id="Layer_x5F_1">
    <g id="_483083464">
      <path class="st1" d="M13.8.3c2.5,0,4.6.5,6.5,1.4,1.9.9,3.4,2.2,4.4,4,1,1.7,1.6,3.7,1.6,6s-.5,4.1-1.6,5.8c-1,1.7-2.4,2.9-4.3,3.8l6.7,13.1h-8.1l-5.7-11.4h-6.2v11.4H0V.3h13.8ZM7.3,16.8h6c1.7,0,3.1-.5,4.1-1.4s1.5-2.2,1.5-3.8-.5-2.9-1.5-3.8-2.4-1.4-4.1-1.4h-6v10.4Z"/>
      <polygon class="st1" points="59.9 34.3 59.9 .3 67.2 .3 67.2 28 80.7 28 80.7 34.3 59.9 34.3"/>
      <path class="st1" d="M116.6,17.3c0,3.3-.7,6.2-2.1,8.8s-3.4,4.7-6,6.2c-2.6,1.5-5.5,2.2-8.7,2.2s-6.2-.7-8.7-2.2c-2.6-1.5-4.6-3.5-6-6.2s-2.1-5.6-2.1-8.8.7-6.2,2.1-8.9,3.4-4.7,6-6.2C93.6.7,96.5,0,99.7,0s6.2.7,8.7,2.2c2.6,1.5,4.6,3.5,6,6.2s2.1,5.6,2.1,8.9ZM90.3,17.3c0,2.1.4,4,1.2,5.7.8,1.7,1.9,3,3.3,3.9,1.4,1,3.1,1.4,5,1.4s3.5-.5,4.9-1.4c1.4-.9,2.5-2.3,3.3-3.9.8-1.7,1.2-3.6,1.2-5.7s-.4-4.1-1.2-5.7c-.8-1.7-1.9-3-3.3-4s-3.1-1.4-4.9-1.4-3.5.5-5,1.4-2.5,2.3-3.3,4c-.8,1.7-1.2,3.6-1.2,5.7Z"/>
      <polygon class="st1" points="120.9 .3 128.2 .3 128.2 13.9 141.7 13.9 141.7 .3 149 .3 149 34.3 141.7 34.3 141.7 20.2 128.2 20.2 128.2 34.3 120.9 34.3 120.9 .3"/>
      <path class="st1" d="M160.9.3v19.7c0,2.8.5,4.8,1.6,6.2,1,1.4,2.7,2.1,5,2.1s4-.7,5.1-2.1c1.1-1.4,1.6-3.5,1.6-6.2V.3h7.3v19.3c0,4.8-1.2,8.6-3.6,11.1s-5.8,3.8-10.4,3.8-8-1.3-10.4-3.8c-2.4-2.6-3.5-6.3-3.5-11.1V.3h7.3Z"/>
      <path class="st1" d="M199.1.3c3.9,0,7,.8,9.2,2.3,2.2,1.6,3.3,3.8,3.3,6.6s-.6,3.8-1.8,5.1c-1.2,1.3-2.8,2.1-4.9,2.5,2.5.3,4.5,1.1,5.8,2.4,1.4,1.3,2.1,3.1,2.1,5.4s-1.1,5.3-3.4,7-5.5,2.6-9.6,2.6h-13.5V.3h12.9ZM193.5,14.3h5.8c1.5,0,2.7-.4,3.6-1.1s1.3-1.8,1.3-3-.4-2.3-1.3-3c-.9-.8-2.1-1.1-3.6-1.1h-5.8v8.2ZM193.5,28.5h6.3c1.7,0,3.1-.4,4.1-1.1.9-.7,1.4-1.8,1.4-3.1s-.5-2.5-1.4-3.2-2.3-1.1-4-1.1h-6.3v8.6Z"/>
      <polygon class="st0" points="30.6 24.9 30.6 6.6 30.6 .3 30.6 .3 55.2 .3 55.2 6.6 41.3 6.6 55.2 20.4 50.8 24.9 36.9 11 36.9 24.9 30.6 24.9"/>
      <polygon class="st1" points="30.6 28 55.2 28 55.2 34.3 30.6 34.3 30.6 28"/>
    </g>
  </g>
</svg>