<?xml version="1.0" encoding="utf-8"?>
<!-- Generator: Adobe Illustrator 27.0.0, SVG Export Plug-In . SVG Version: 6.00 Build 0)  -->
<svg version="1.1" xmlns="http://www.w3.org/2000/svg" xmlns:xlink="http://www.w3.org/1999/xlink" x="0px" y="0px"
	 viewBox="0 0 351.9 207.6" style="enable-background:new 0 0 351.9 207.6;" xml:space="preserve">
<style type="text/css">
	.st0{display:none;}
	.st1{display:inline;fill:#FFFFFF;}
	.st2{display:inline;}
	.st3{fill:#B9B9B9;}
	.st4{fill:#CDCDCD;}
	.st5{fill:#7C7C7C;}
	.st6{fill:#E4E4E4;}
	.st7{display:inline;opacity:0.22;}
	.st8{fill:#F47458;}
	.st9{fill:#444444;}
	.st10{fill:#565656;}
	.st11{fill:#707070;}
	.st12{display:inline;fill:#282828;}
	.st13{clip-path:url(#SVGID_00000005956811011422886280000015079470346973385899_);fill:#FFFFFF;}
	.st14{clip-path:url(#SVGID_00000005956811011422886280000015079470346973385899_);}
	.st15{fill:#A0A0A0;}
	.st16{fill:#A2A2A2;}
	.st17{fill:#E7255E;}
	.st18{fill:#FFFFFF;}
	.st19{fill:#282828;}
	.st20{fill:#EBEBEB;}
	.st21{fill:#7C9AF2;}
	.st22{fill:#BABABA;}
	.st23{fill:#D1D1D1;}
	.st24{clip-path:url(#SVGID_00000013903822945370105390000013106571412504302479_);fill:#FFFFFF;}
	.st25{clip-path:url(#SVGID_00000013903822945370105390000013106571412504302479_);}
	.st26{fill:#F4B58D;}
	.st27{fill:#ED985F;}
	.st28{fill:#C91F57;}
	.st29{fill:#9E9E9E;}
	.st30{fill:#F44D84;}
	.st31{fill:url(#SVGID_00000082356870649907722490000002865726505185568182_);}
	.st32{fill:url(#SVGID_00000106837051004963756800000004551920043144923016_);}
</style>
<g id="bg" class="st0">
	<rect x="-51.3" y="-711.1" class="st1" width="841.9" height="841.9"/>
</g>
<g id="graphics">
	<g class="st0">
		<g class="st2">
			
				<rect x="151.2" y="-431.3" transform="matrix(-1 -1.224647e-16 1.224647e-16 -1 330.1638 -839.6924)" class="st3" width="27.9" height="23"/>
			
				<rect x="165.1" y="-431.3" transform="matrix(-1 -1.224647e-16 1.224647e-16 -1 358.0229 -839.6924)" class="st4" width="27.9" height="23"/>
			<polygon class="st5" points="151.2,-414.2 155.6,-414.2 155.2,-415.4 155.6,-416.3 151.2,-416.3 			"/>
			<polygon class="st3" points="165.1,-424.2 169.5,-424.2 169.1,-425.5 169.5,-426.4 165.1,-426.4 			"/>
			<polygon class="st5" points="165.1,-426.4 160.7,-426.4 161.1,-425.1 160.7,-424.2 165.1,-424.2 			"/>
			<polygon class="st3" points="192.9,-413.9 188.5,-413.9 188.9,-412.7 188.5,-411.8 192.9,-411.8 			"/>
			<rect x="183.1" y="-429.8" class="st6" width="8" height="3.1"/>
		</g>
		<g class="st2">
			
				<rect x="130.3" y="-454.3" transform="matrix(-1 -1.224647e-16 1.224647e-16 -1 288.3746 -885.7108)" class="st3" width="27.9" height="23"/>
			
				<rect x="144.2" y="-454.3" transform="matrix(-1 -1.224647e-16 1.224647e-16 -1 316.2337 -885.7108)" class="st4" width="27.9" height="23"/>
			<polygon class="st5" points="130.3,-437.2 134.7,-437.2 134.3,-438.4 134.7,-439.3 130.3,-439.3 			"/>
			<polygon class="st3" points="144.2,-447.2 148.6,-447.2 148.2,-448.5 148.6,-449.4 144.2,-449.4 			"/>
			<polygon class="st5" points="144.2,-449.4 139.8,-449.4 140.2,-448.1 139.8,-447.2 144.2,-447.2 			"/>
			<polygon class="st3" points="172,-436.9 167.6,-436.9 168,-435.7 167.6,-434.8 172,-434.8 			"/>
			<rect x="162.2" y="-452.8" class="st6" width="8" height="3.1"/>
		</g>
		<g class="st2">
			
				<rect x="106.4" y="-431.3" transform="matrix(-1 -1.224647e-16 1.224647e-16 -1 240.6163 -839.6924)" class="st3" width="27.9" height="23"/>
			
				<rect x="120.3" y="-431.3" transform="matrix(-1 -1.224647e-16 1.224647e-16 -1 268.4753 -839.6924)" class="st4" width="27.9" height="23"/>
			<polygon class="st5" points="106.4,-414.2 110.8,-414.2 110.4,-415.4 110.8,-416.3 106.4,-416.3 			"/>
			<polygon class="st3" points="120.3,-424.2 124.7,-424.2 124.3,-425.5 124.7,-426.4 120.3,-426.4 			"/>
			<polygon class="st5" points="120.3,-426.4 115.9,-426.4 116.3,-425.1 115.9,-424.2 120.3,-424.2 			"/>
			<polygon class="st3" points="148.2,-413.9 143.8,-413.9 144.1,-412.7 143.8,-411.8 148.2,-411.8 			"/>
			<rect x="138.3" y="-429.8" class="st6" width="8" height="3.1"/>
		</g>
		<path class="st7" d="M150.6-437.5c-0.1,0-0.2,0-0.2,0c-0.1,0-0.2-0.1-0.2-0.2c0-0.2,0-0.5,0-0.7c0-0.1,0.1-0.2,0.2-0.2
			c0.4,0,0.8,0,1.2,0c0.1,0,0.2,0.1,0.2,0.2c0,0.7,0,1.4,0,2.1c0,0.1,0,0.1,0.1,0.1c0.5,0,0.9,0,1.4,0c0.2,0,0.3-0.1,0.3-0.3
			c0-0.8,0-1.7,0-2.5c0-0.2-0.1-0.4-0.3-0.5c-0.6-0.3-1.2-0.6-1.8-1c-0.2-0.1-0.4-0.1-0.6,0c-0.6,0.3-1.2,0.6-1.7,1
			c-0.2,0.1-0.3,0.3-0.3,0.5c0,0.8,0,1.7,0,2.5c0,0.2,0.1,0.2,0.2,0.3c0.1,0,0.2,0,0.2,0c0.1,0,0.2,0.1,0.2,0.2c0,0.2,0,0.5,0,0.7
			c0,0.1,0,0.2-0.1,0.2c-0.3,0-0.7,0-1-0.2c-0.4-0.2-0.6-0.6-0.6-1.1c0-0.9,0-1.8,0-2.6c0-0.6,0.3-1,0.8-1.3
			c0.6-0.4,1.3-0.7,1.9-1.1c0.5-0.3,1.1-0.3,1.6,0c0.6,0.3,1.2,0.7,1.8,1c0.6,0.3,0.8,0.8,0.8,1.4c0,0.8,0,1.7,0,2.5
			c0,0.8-0.6,1.3-1.3,1.3c-0.8,0-1.7,0-2.5,0c-0.2,0-0.2,0-0.2-0.2c0-0.7,0-1.4,0-2C150.6-437.4,150.6-437.4,150.6-437.5z"/>
		<path class="st7" d="M127.6-414.5c-0.1,0-0.2,0-0.2,0c-0.1,0-0.2-0.1-0.2-0.2c0-0.2,0-0.5,0-0.7c0-0.1,0.1-0.2,0.2-0.2
			c0.4,0,0.8,0,1.2,0c0.1,0,0.2,0.1,0.2,0.2c0,0.7,0,1.4,0,2.1c0,0.1,0,0.1,0.1,0.1c0.5,0,0.9,0,1.4,0c0.2,0,0.3-0.1,0.3-0.3
			c0-0.8,0-1.7,0-2.5c0-0.2-0.1-0.4-0.3-0.5c-0.6-0.3-1.2-0.6-1.8-1c-0.2-0.1-0.4-0.1-0.6,0c-0.6,0.3-1.2,0.6-1.7,1
			c-0.2,0.1-0.3,0.3-0.3,0.5c0,0.8,0,1.7,0,2.5c0,0.2,0.1,0.2,0.2,0.3c0.1,0,0.2,0,0.2,0c0.1,0,0.2,0.1,0.2,0.2c0,0.2,0,0.5,0,0.7
			c0,0.1,0,0.2-0.1,0.2c-0.3,0-0.7,0-1-0.2c-0.4-0.2-0.6-0.6-0.6-1.1c0-0.9,0-1.8,0-2.6c0-0.6,0.3-1,0.8-1.3
			c0.6-0.4,1.3-0.7,1.9-1.1c0.5-0.3,1.1-0.3,1.6,0c0.6,0.3,1.2,0.7,1.8,1c0.6,0.3,0.8,0.8,0.8,1.4c0,0.8,0,1.7,0,2.5
			c0,0.8-0.6,1.3-1.3,1.3c-0.8,0-1.7,0-2.5,0c-0.2,0-0.2,0-0.2-0.2c0-0.7,0-1.4,0-2C127.6-414.3,127.6-414.4,127.6-414.5z"/>
		<path class="st7" d="M172.3-414.5c-0.1,0-0.2,0-0.2,0c-0.1,0-0.2-0.1-0.2-0.2c0-0.2,0-0.5,0-0.7c0-0.1,0.1-0.2,0.2-0.2
			c0.4,0,0.8,0,1.2,0c0.1,0,0.2,0.1,0.2,0.2c0,0.7,0,1.4,0,2.1c0,0.1,0,0.1,0.1,0.1c0.5,0,0.9,0,1.4,0c0.2,0,0.3-0.1,0.3-0.3
			c0-0.8,0-1.7,0-2.5c0-0.2-0.1-0.4-0.3-0.5c-0.6-0.3-1.2-0.6-1.8-1c-0.2-0.1-0.4-0.1-0.6,0c-0.6,0.3-1.2,0.6-1.7,1
			c-0.2,0.1-0.3,0.3-0.3,0.5c0,0.8,0,1.7,0,2.5c0,0.2,0.1,0.2,0.2,0.3c0.1,0,0.2,0,0.2,0c0.1,0,0.2,0.1,0.2,0.2c0,0.2,0,0.5,0,0.7
			c0,0.1,0,0.2-0.1,0.2c-0.3,0-0.7,0-1-0.2c-0.4-0.2-0.6-0.6-0.6-1.1c0-0.9,0-1.8,0-2.6c0-0.6,0.3-1,0.8-1.3
			c0.6-0.4,1.3-0.7,1.9-1.1c0.5-0.3,1.1-0.3,1.6,0c0.6,0.3,1.2,0.7,1.8,1c0.6,0.3,0.8,0.8,0.8,1.4c0,0.8,0,1.7,0,2.5
			c0,0.8-0.6,1.3-1.3,1.3c-0.8,0-1.7,0-2.5,0c-0.2,0-0.2,0-0.2-0.2c0-0.7,0-1.4,0-2C172.3-414.3,172.3-414.4,172.3-414.5z"/>
	</g>
	<g class="st0">
		<g class="st2">
			<g>
				<path class="st8" d="M75.7,114.5l-1-4.6l-6.1,3.8l3.5,2.8C72,116.5,73.1,113.6,75.7,114.5z"/>
				<path class="st9" d="M35.7,131.6c0,0-7.1,3.2-14.9,7.1c-7.8,3.9-9.7,3.5-10.8,2.4c-1.1-1.1-1.2-3.7-1.2-3.7s-1.8,2.7-0.9,6.1
					c0.9,3.4,3.7,3.5,3.7,3.5l2-1.2l-1.3,2.3c0,0,2.8,1.4,5.3-1.1c2.6-2.6,3.1-4.2,3.1-4.2s-1,4-2,5c0,0,2.9,1.3,4.6-1
					c1.7-2.3,2.4-5.2,2.4-5.2l-0.6,5.4c0,0,2.6-1,4.1-5.2l-0.8,4c0,0,2.7-3.7,3.7-7.8c1.1-4.1,3.3-4.6,3.3-4.6L35.7,131.6z"/>
				<path class="st9" d="M49.2,145.4c0,0,0.3,8.7-5.6,11.9c-1.4,0.8-3.7,3.6-3.3,5.2c0.4,1.5,3.9,4.5,3.9,4.5s2.4,0.2,3.5,2.9
					c0.2,0.4-0.6,0.3-0.6,0.3l-6.2,0l-5.3-9.1l0.4-5.7l3.5-8.9l6.6-1.1L49.2,145.4z"/>
				<path class="st9" d="M78.4,140c0,0,7.9,11.9,9.6,14.5c1.2,1.8,1.2,4.1,1.2,4.1s-0.3,3.6-1.1,4.3c-0.1,0.1-0.3,0.2-0.5,0.3
					c-1.8,0.5-3.4-1.3-2.9-3.1c0.2-0.8,0.4-1.6,0.4-1.9c0-0.8-0.4-0.9-0.4-0.9l-8.7-5l-2.9-8.4L78.4,140z"/>
				<path class="st10" d="M72.6,142.6l-1.4,11.3l0.7,12.9c0,0,2.8,0.7,3.6,2.1c0.8,1.4,0.7,1.7,0.7,1.7h-6.6c0,0-5.4-12.9-5.4-14.3
					c0-1.4-1.4-9.4-1.4-10.5c0-1.1,0.9-5.8,4.1-6.2C69.9,139.2,72.6,142.6,72.6,142.6z"/>
				<path class="st10" d="M81.8,112.6l-1.7-2.3c0,0-5.6-1.6-8,0.8c-0.8,0.8-1.6,1.9-2,3.4c-0.2,0.8-0.2,2.3-0.2,3.7
					c0,1.6-0.3,2.6-0.9,4c-1.1,1.7-5.7,5.2-7.5,5.7l1.3-0.2c0,0-2.5,1.3-4.5,1.7c-7.9,1.2-19.9,1.5-22.5,2.2
					c-3.2,0.9-5.1,10.2-4.2,14.9c0.9,4.7-5.6,2.8-7.1,5.9c-1.5,2.9,4.2,16.1,4.2,16.1s1.5,1.8,1.7,2h6.4c0,0-0.2-4.1-3.4-5.2
					c-3.2-1.1-2.7-7.9-2.7-7.9s9.1,1.3,13.6-4.7c3.5-4.6,3.1-5.8,2.8-6.1c1.7,0.9,13.3,7.2,19.2,6.1c6.3-1.2,7.8-4,7.8-4l0.1,1.7
					c0,0,4.3-1.5,3.8-5c0,0,0.6,0.5,0.6,1.4c0,0,1.8-2.4,1.8-9.9c0-4.2-0.2-14.8-0.2-14.8s7.6-1.4,8.5-2.4c0.7-0.7,1.5-5.5,1.5-5.5
					L81.8,112.6z"/>
				<path class="st9" d="M68.5,113.7c0,0,1.5,3.3,3.1,3.8c1.6,0.5,3-7.6,3-7.6s-2.2-0.9-4.1,1C69.8,111.6,68.5,113.7,68.5,113.7z"/>
			</g>
			<path class="st11" d="M73.4,144.5c-1.9,2.2-0.2,0.2-1.5,1.7c-0.3-2.7,0.6-6,1.3-8.6c-1.2,1.3-2.7,3.8-3.5,4.8
				c1.3-2.3,1-6.7,0.7-9.4c0,0-1.5,1.8-2.2,2.6c-0.1-1.2-0.3-3.8,0.1-4.9c0.4-1.2,1.6-2.6,2.5-3.4c-1,0.8-2.3,2.1-2.7,3.3
				c-0.7,1.7-0.2,5.8-0.2,6.1c2.2-2.5,0.7-0.8,2.1-2.4c0.1,2.2,0.4,6.8-0.7,8.6c1.2-0.8,2.3-2.4,3-3.7c-1.8,4.7-0.6,7.4-0.6,7.5
				c0,0,0.1-0.1,1.5-2c0.1,0.3,0.2,0.9,0.3,1.2C73.6,145.8,73.4,144.9,73.4,144.5z"/>
		</g>
		<path class="st12" d="M68.4,121.8l-1,2.1c0,0,1,7.3,12.9,6.5l0.4-3.1C80.7,127.3,69.8,126.9,68.4,121.8z"/>
	</g>
	<g>
		<g>
			<g>
				<g>
					<defs>
						<path id="SVGID_1_" d="M224.3,67.9c-1.5-0.1-3.1-0.3-4.7-0.6c-4.1-0.8-8.1-1-11.8-1c-15.5,0-27.2,4.1-29.1-11.5
							c-2-15.9,17.2-35.2,31.2-40.3c16.5-6,31.2,11.9,34.6,27.6C247.6,56.4,240.5,68.8,224.3,67.9z"/>
					</defs>
					<clipPath id="SVGID_00000059286496659772643300000000318406634021591203_">
						<use xlink:href="#SVGID_1_"  style="overflow:visible;"/>
					</clipPath>
					<path style="clip-path:url(#SVGID_00000059286496659772643300000000318406634021591203_);fill:#FFFFFF;" d="M228,76
						c-2-0.1-4.1-0.4-6.3-0.8c-5.4-1.1-10.7-1.4-15.6-1.4c-20.5,0-35.9,5.4-38.5-15.2c-2.6-21,22.7-46.5,41.3-53.2
						c21.8-8,41.2,15.7,45.8,36.4C258.9,60.8,249.4,77.2,228,76z"/>
					<g style="clip-path:url(#SVGID_00000059286496659772643300000000318406634021591203_);">
						<g>
							<rect x="195.4" y="35.3" class="st15" width="42" height="56.6"/>
						</g>
						<g>
							<g>
								<g>
									<g>
										<g>
											<rect x="200.8" y="69.4" class="st16" width="12.1" height="17.4"/>
										</g>
										<g>
											<path class="st17" d="M206.4,69.4c0,0,0.1,5.8-5.6,10.3V69.4H206.4z"/>
										</g>
										<g>
											<path class="st17" d="M207.6,69.4c0,0-0.1,5.8,5.3,10.3V69.4H207.6z"/>
										</g>
									</g>
									<g>
										<rect x="206.8" y="69.4" class="st18" width="0.3" height="17.4"/>
									</g>
									<g>
										<rect x="200.8" y="74.5" class="st18" width="12.1" height="0.2"/>
									</g>
									<g>
										<rect x="200.8" y="80.8" class="st18" width="12.1" height="0.2"/>
									</g>
									<g>
										<path class="st18" d="M213.2,87.1h-12.7V69.1h12.7V87.1z M201,86.5h11.6V69.7H201V86.5z"/>
									</g>
								</g>
							</g>
							<g>
								<g>
									<g>
										<g>
											<g>
												<rect x="220" y="69.4" class="st16" width="12.1" height="17.4"/>
											</g>
											<g>
												<path class="st17" d="M225.6,69.4c0,0,0.1,5.8-5.6,10.3V69.4H225.6z"/>
											</g>
											<g>
												<path class="st17" d="M226.8,69.4c0,0-0.1,5.8,5.3,10.3V69.4H226.8z"/>
											</g>
										</g>
										<g>
											<rect x="226.1" y="69.4" class="st18" width="0.3" height="17.4"/>
										</g>
										<g>
											<rect x="220" y="74.5" class="st18" width="12.1" height="0.2"/>
										</g>
										<g>
											<rect x="220" y="80.8" class="st18" width="12.1" height="0.2"/>
										</g>
										<g>
											<path class="st18" d="M232.4,87.1h-12.7V69.1h12.7V87.1z M220.3,86.5h11.6V69.7h-11.6V86.5z"/>
										</g>
									</g>
								</g>
							</g>
						</g>
						<g>
							<polygon class="st19" points="239,37.8 194.1,37.8 196.4,27.2 236.6,27.2 							"/>
						</g>
						<g>
							<g>
								<rect x="203.2" y="30.4" class="st20" width="4.1" height="4.1"/>
							</g>
							<g>
								<g>
									<path class="st16" d="M203,30.2v4.5h4.5v-4.5H203z M207.2,34.3h-3.7v-3.7h3.7V34.3z"/>
								</g>
							</g>
							<g>
								
									<rect x="203.3" y="32.2" transform="matrix(-1.836970e-16 1 -1 -1.836970e-16 237.7077 -172.8863)" class="st15" width="4.1" height="0.4"/>
							</g>
							<g>
								<rect x="202.2" y="29.4" class="st15" width="6" height="0.9"/>
							</g>
						</g>
						<g>
							<g>
								<rect x="226.2" y="23.4" class="st21" width="5.3" height="10.4"/>
							</g>
							<g>
								<rect x="226.2" y="24" class="st15" width="5.3" height="10.4"/>
							</g>
							<g>
								<rect x="227.1" y="22" class="st19" width="1" height="1.4"/>
							</g>
							<g>
								<rect x="229.5" y="22" class="st19" width="1" height="1.4"/>
							</g>
							<g>
								<rect x="225.9" y="23.4" class="st19" width="5.9" height="0.8"/>
							</g>
						</g>
						<g>
							<rect x="199.6" y="61" class="st22" width="14.6" height="1.1"/>
						</g>
						<g>
							<rect x="218.6" y="61" class="st22" width="14.6" height="1.1"/>
						</g>
						<g>
							<rect x="218.8" y="87" class="st22" width="14.6" height="1.1"/>
						</g>
						<g>
							<rect x="199.5" y="87" class="st22" width="14.6" height="1.1"/>
						</g>
						<g>
							<g>
								<g>
									<g>
										<g>
											<rect x="200.7" y="43.3" class="st23" width="12.1" height="17.4"/>
										</g>
										<g>
											<path class="st17" d="M206.3,43.3c0,0,0.1,5.8-5.6,10.3V43.3H206.3z"/>
										</g>
										<g>
											<path class="st17" d="M207.5,43.3c0,0-0.1,5.8,5.3,10.3V43.3H207.5z"/>
										</g>
									</g>
									<g>
										<rect x="206.8" y="43.3" class="st18" width="0.3" height="17.4"/>
									</g>
									<g>
										<rect x="200.7" y="48.5" class="st18" width="12.1" height="0.2"/>
									</g>
									<g>
										<rect x="200.7" y="54.8" class="st18" width="12.1" height="0.2"/>
									</g>
									<g>
										<path class="st18" d="M213.1,61h-12.7V43h12.7V61z M201,60.4h11.6V43.6H201V60.4z"/>
									</g>
								</g>
							</g>
							<g>
								<g>
									<g>
										<g>
											<g>
												<rect x="219.9" y="43.3" class="st23" width="12.1" height="17.4"/>
											</g>
											<g>
												<path class="st17" d="M225.5,43.3c0,0,0.1,5.8-5.6,10.3V43.3H225.5z"/>
											</g>
											<g>
												<path class="st17" d="M226.7,43.3c0,0-0.1,5.8,5.3,10.3V43.3H226.7z"/>
											</g>
										</g>
										<g>
											<rect x="226" y="43.3" class="st18" width="0.3" height="17.4"/>
										</g>
										<g>
											<rect x="219.9" y="48.4" class="st18" width="12.1" height="0.2"/>
										</g>
										<g>
											<rect x="219.9" y="54.8" class="st18" width="12.1" height="0.2"/>
										</g>
										<g>
											<path class="st18" d="M232.3,61h-12.7V43h12.7V61z M220.2,60.4h11.6V43.6h-11.6V60.4z"/>
										</g>
									</g>
								</g>
							</g>
						</g>
						<g>
							<g>
								<rect x="214.6" y="30.2" class="st20" width="4.1" height="4.1"/>
							</g>
							<g>
								<g>
									<path class="st16" d="M214.4,30v4.5h4.5V30H214.4z M218.5,34.1h-3.7v-3.7h3.7V34.1z"/>
								</g>
							</g>
							<g>
								
									<rect x="214.6" y="32" transform="matrix(-1.836970e-16 1 -1 -1.836970e-16 248.8827 -184.466)" class="st15" width="4.1" height="0.4"/>
							</g>
							<g>
								<rect x="213.6" y="29.2" class="st15" width="6" height="0.9"/>
							</g>
						</g>
					</g>
				</g>
				<path class="st18" d="M91.3,146.7c0,15.5-13.7,23.8-30.4,25.6c-0.1,0-0.2,0-0.3,0c-1,0.1-2.1,0.2-3.1,0.2h0
					c-1.2,0.1-2.5,0.1-3.7,0.1c-0.1,0-0.1,0-0.2,0c-2.2,0-4.4-0.1-6.4-0.4c-23.9-2.9-36.2-21.3-36.2-37.5
					c0-17.6,23.2-30.2,42.8-25.9C73,113.1,91.3,129.1,91.3,146.7z"/>
				<g>
					<defs>
						<path id="SVGID_00000000215779472749580310000015162748959743592110_" d="M135.2,80.5c0,16.6-14.9,25.6-33,27.4
							c-2.3,0.2-4.7,0.3-7.1,0.3c-0.5,0-0.9,0-1.3,0c0,0,0,0-0.1,0c-0.6,0-1.3,0-1.9-0.1c-2.6-0.1-5-0.4-7.3-0.9
							c-2-0.4-4-0.9-5.8-1.5c-0.5-0.2-1-0.3-1.6-0.5c-18.2-6.6-27.6-22.8-27.6-37.4c0-18.8,24.7-32.1,45.6-27.6
							C115.8,44.7,135.2,61.7,135.2,80.5z"/>
					</defs>
					<clipPath id="SVGID_00000082332962360237778320000014212017979761557662_">
						<use xlink:href="#SVGID_00000000215779472749580310000015162748959743592110_"  style="overflow:visible;"/>
					</clipPath>
					<path style="clip-path:url(#SVGID_00000082332962360237778320000014212017979761557662_);fill:#FFFFFF;" d="M139.1,80.1
						c0,18.2-16.3,28-36.1,30c-2.5,0.3-5.1,0.4-7.7,0.4c-0.5,0-1,0-1.5,0c0,0,0,0-0.1,0c-0.7,0-1.4,0-2-0.1c-2.8-0.2-5.5-0.5-8-1
						c-2.2-0.4-4.4-1-6.4-1.6c-0.6-0.2-1.1-0.4-1.7-0.6c-20-7.2-30.2-25-30.2-40.9c0-20.5,27-35.2,49.9-30.2
						C117.8,40.9,139.1,59.6,139.1,80.1z"/>
					<g style="clip-path:url(#SVGID_00000082332962360237778320000014212017979761557662_);">
						<g>
							<g>
								<path class="st8" d="M90.7,52.4l-1-4.6l-6.1,3.8l3.5,2.8C87,54.4,88.2,51.5,90.7,52.4z"/>
								<path class="st9" d="M50.8,69.5c0,0-7.1,3.2-14.9,7.1C28,80.5,26.1,80.1,25,79c-1.1-1.1-1.2-3.7-1.2-3.7S22,78,22.9,81.4
									c0.9,3.4,3.7,3.5,3.7,3.5l2-1.2L27.2,86c0,0,2.8,1.4,5.3-1.1c2.6-2.6,3.1-4.2,3.1-4.2s-1,4-2,5c0,0,2.9,1.3,4.6-1
									c1.7-2.3,2.4-5.2,2.4-5.2L40,84.8c0,0,2.6-1,4.1-5.2l-0.8,4c0,0,2.7-3.7,3.7-7.8c1.1-4.1,3.3-4.6,3.3-4.6L50.8,69.5z"/>
								<path class="st9" d="M64.3,83.3c0,0,0.3,8.7-5.6,11.9c-1.4,0.8-3.7,3.6-3.3,5.2c0.4,1.5,3.9,4.5,3.9,4.5s2.4,0.2,3.5,2.9
									c0.2,0.4-0.6,0.3-0.6,0.3l-6.2,0l-5.3-9.1l0.4-5.7l3.5-8.9l6.6-1.1L64.3,83.3z"/>
								<path class="st9" d="M93.4,77.9c0,0,7.9,11.9,9.6,14.5c1.2,1.8,1.2,4.1,1.2,4.1s-0.3,3.6-1.1,4.3c-0.1,0.1-0.3,0.2-0.5,0.3
									c-1.8,0.5-3.4-1.3-2.9-3.1c0.2-0.8,0.4-1.6,0.4-1.9c0-0.8-0.4-0.9-0.4-0.9l-8.7-5l-2.9-8.4L93.4,77.9z"/>
								<path class="st10" d="M87.7,80.5l-1.4,11.3l0.7,12.9c0,0,2.8,0.7,3.6,2.1c0.8,1.4,0.7,1.7,0.7,1.7h-6.6
									c0,0-5.4-12.9-5.4-14.3c0-1.4-1.4-9.4-1.4-10.5c0-1.1,0.9-5.8,4.1-6.2C85,77.1,87.7,80.5,87.7,80.5z"/>
								<path class="st10" d="M96.8,50.6l-1.7-2.3c0,0-5.6-1.6-8,0.8c-0.8,0.8-1.6,1.9-2,3.4c-0.2,0.8-0.2,2.3-0.2,3.7
									c0,1.6-0.3,2.6-0.9,4c-1.1,1.7-5.7,5.2-7.5,5.7l1.3-0.2c0,0-2.5,1.3-4.5,1.7c-7.9,1.2-19.9,1.5-22.5,2.2
									c-3.2,0.9-5.1,10.2-4.2,14.9c0.9,4.7-5.6,2.8-7.1,5.9c-1.5,2.9,4.2,16.1,4.2,16.1s1.5,1.8,1.7,2h6.4c0,0-0.2-4.1-3.4-5.2
									c-3.2-1.1-2.7-7.9-2.7-7.9s9.1,1.3,13.6-4.7c3.5-4.6,3.1-5.8,2.8-6.1c1.7,0.9,13.3,7.2,19.2,6.1c6.3-1.2,7.8-4,7.8-4
									l0.1,1.7c0,0,4.3-1.5,3.8-5c0,0,0.6,0.5,0.6,1.4c0,0,1.8-2.4,1.8-9.9c0-4.2-0.2-14.8-0.2-14.8s7.6-1.4,8.5-2.4
									c0.7-0.7,1.5-5.5,1.5-5.5L96.8,50.6z"/>
								<path class="st9" d="M83.5,51.6c0,0,1.5,3.3,3.1,3.8c1.6,0.5,3-7.6,3-7.6s-2.2-0.9-4.1,1C84.8,49.6,83.5,51.6,83.5,51.6z"/>
							</g>
							<path class="st11" d="M88.4,82.4c-1.9,2.2-0.2,0.2-1.5,1.7c-0.3-2.7,0.6-6,1.3-8.6c-1.2,1.3-2.7,3.8-3.5,4.8
								c1.3-2.3,1-6.7,0.7-9.4c0,0-1.5,1.8-2.2,2.6c-0.1-1.2-0.3-3.8,0.1-4.9c0.4-1.2,1.6-2.6,2.5-3.4c-1,0.8-2.3,2.1-2.7,3.3
								c-0.7,1.7-0.2,5.8-0.2,6.1c2.2-2.5,0.7-0.8,2.1-2.4c0.1,2.2,0.4,6.8-0.7,8.6c1.2-0.8,2.3-2.4,3-3.7c-1.8,4.7-0.6,7.4-0.6,7.5
								c0,0,0.1-0.1,1.5-2c0.1,0.3,0.2,0.9,0.3,1.2C88.6,83.7,88.5,82.8,88.4,82.4z"/>
						</g>
						<path class="st19" d="M83.5,59.7l-1,2.1c0,0,1,7.3,12.9,6.5l0.4-3.1C95.8,65.2,84.9,64.9,83.5,59.7z"/>
					</g>
				</g>
				<g>
					<path class="st19" d="M140.3,47.7c-0.6-1.1-7.4-12.4-25.6-4c0,0,9.3-3.4,12.8-0.3c0,0-8.4-1.8-12.5,2.3c-4.1,4-2.6,14-1.2,16.9
						c1.4,2.8,8.7,10.5,12.2,9.7c1.3-0.3,2.6-1.1,3.8-1.9c-0.2,1.7-0.3,3.5-0.2,5.5c0.3,18.3,14.9,28.9,20.2,24.3
						c3.4-3,7.8,3.1,7.8,3.1l22.3-49.6C179.7,53.6,151.3,32,140.3,47.7z"/>
					<path class="st26" d="M192.2,150.8c-4.7,3.2-10.5,5.9-17.9,7.6c-27.5,6.4-38.1-16.9-42.1-32.9c3.8-2.1,7.3-2.6,9.3-2.9
						c2-0.2,4.1-0.4,5.8-0.5c3.1-2.4,7.7-12.1,8.7-27.1l1.3,0.3l21.7,5.9c0,0-1,6.9-1.5,13.4c-0.4,5.1-0.4,10,0.5,11.2
						c1.7,0.4,2.7,0.6,2.7,0.6s0,0,0,0C181.2,127,187.5,137.4,192.2,150.8z"/>
					<path class="st27" d="M179.2,101.3c0,0-1,6.9-1.5,13.4c-12.3-1.2-18-12.9-20.2-19.4L179.2,101.3z"/>
					<path class="st26" d="M185.9,103.7c0,0-28.4,7-32.5-10.8c-4.1-17.7-10.5-28.8,7.5-34c18-5.2,23,0.8,25.8,6.3
						C189.5,70.9,193.1,101.5,185.9,103.7z"/>
					<path class="st19" d="M183.6,55.6c-5.6-4.3-8.7-2.4-10.2-0.4c-17.5-5-24.7,9.9-24.7,9.9c1,13.2-6.5,22.6-6.5,22.6
						s5.9,2,17.2-3.8c3.4-1.8,6.1-5.1,8.2-8.9c-3,9.2-8.2,16.6-8.2,16.6c12.8-9.9,14-31.1,14.1-33.3c2.1,1.2,6.3,3.8,8.1,6.9
						c2.5,4.2,5.2,13.4,7.9,12.4C189.4,77.6,192.1,62.1,183.6,55.6z"/>
					<path class="st17" d="M188.6,207.4c1.1-4.2,2.2-8.7,3.3-12.9c0.1-0.5,0.2-1,0.3-1.4c2.6,5.4,10.1,13.5,13.4,14.2
						c0.2,0,1.1,0.1,2.5,0.1c5,0,14.8,0.1,14.8,0.1c1.9-14.9-22.5-75-30.7-78.6c-4-2.1-9.1-3.7-14.6-4.8c0,0-2.9,7.4-11.6,7.2
						c-8.3-0.2-16.5-9.3-17.3-10.2c-9.5-0.3-16.5,0-16.5,0s-20,31.3-17.5,38.5c1.6,4.8,2.9,9.5,3.9,14.1c2.8,12.9,3.4,24.7,3.1,34"
						/>
					<path class="st28" d="M121.9,205c0.1,0,0.1,0,0.2,0c5.8,0.6,11.3-0.5,16.8,1.6c-3.1-17.1-20.2-33.4-20.2-33.4s0,0.1,0,0.4
						C121.2,185.3,121.9,196.1,121.9,205z"/>
					<path class="st26" d="M169.5,206.8c-0.4-1.1-6.1-7-9.2-7.7c-3.1-0.7-13.3,1.6-13.3,1.6l0,0c-6.3-0.8-20.8-3.1-37.7-8
						c-3-0.9-6-1.8-9.1-2.9l25.8-23.3l22.8-45.7c0,0-19.3-1.5-24.2,1.4c-17.6,10.5-50.3,71.8-49.6,84.5c0,0,8.3,0.5,23.4,0.6
						c11.6,0.2,27.2,0.1,46.3-0.3c0,0,2.1,0,4.3-0.3H169.5z"/>
					<path class="st17" d="M98.2,207.5c-15.1-0.2-23.4-0.6-23.4-0.6c-0.6-12.7,32-74,49.6-84.5c4.9-2.9,24.2-1.4,24.2-1.4
						l-22.8,45.7l-22.7,23.5c2.2,0.8,4.6,2.1,6.1,2.6C109.3,192.8,107.2,201.7,98.2,207.5"/>
					<path class="st28" d="M222.9,207.4c-1.4,0-17.1-0.1-17.3-0.2c-3.4-0.6-10.8-8.8-13.4-14.2c-0.1,0.5,0.8-5.1,1.7-7.4
						c1.9-4.9,4.4-9,4.4-9C207.4,175.3,222.9,198.8,222.9,207.4z"/>
					<path class="st26" d="M222.4,193.2c-2-15.2-6.3-41.5-14.7-71.8l-0.1,0c-0.5-1.9-4.4-16.8-6-18.5c-1.7-1.7-11-5.4-12.5-5.8
						c0,0-0.3,1.1,0.7,1.9c0.3,0.2,0.8,0.6,1.5,1l-2.2,1.2c0,0,0.8,0.7,2,0.5c0.6-0.1,1.4-0.3,2-0.5c0.5,0.3,0.9,0.5,1.3,0.8
						c0.7,0.6,1.5,1.5,1.6,1.8c0.1,0.3,0.4,1.9,0.6,2.8c-0.3-0.3-0.6-0.6-0.8-0.9c-0.9-1.3-2.7-1.2-2.7-1.2s2.5,3.1,2.7,5.2
						c0.4,3.1,2.1,4.7,2.1,4.7l0,0c0.6,0.7,1.5,1.4,2.3,3c0.6,1.1,0.8,3.3,0.9,4.6l0,0c0.4,4.6,1.7,21.4,1.3,33.9
						c-0.5,16.7-2.1,31.7-0.2,41c0.5,2.4,1.2,4.4,2.2,6c4.1,6.3,18.5,4.5,18.5,4.5S223.5,202,222.4,193.2z"/>
					<path class="st17" d="M222.9,207.4c0,0-14.4,1.8-18.5-4.5c-1-1.6-1.7-3.6-2.2-6c3.1,0.8,11.5,2.1,20.2-3.7
						C223.5,202,222.9,207.4,222.9,207.4z"/>
				</g>
			</g>
		</g>
		<g>
			<g>
				<g>
					<g>
						<g>
							<path class="st19" d="M259.4,188.1c1.4,0.7,2.8,1.4,4.2,2c7.2,3,14.8,4.6,22.7,4.6c7.9,0,15.5-1.5,22.7-4.6
								c6.9-2.9,13.2-7.1,18.5-12.5c5.4-5.4,9.6-11.6,12.5-18.5c3-7.2,4.6-14.8,4.6-22.7c0-7.9-1.5-15.5-4.6-22.7
								c-2.9-6.9-7.1-13.2-12.5-18.5c-4.4-4.4-9.5-8.1-15.1-10.9c0,0-2.3,4.6-2.3,4.6L259.4,188.1z M286.3,189.5
								c-7.9,0-15.5-1.7-22.2-4.9l48.3-94.5c16.1,9.1,27,26.4,27,46.3C339.5,165.7,315.6,189.5,286.3,189.5z"/>
						</g>
						
							<rect x="295.1" y="190.3" transform="matrix(-1 -1.224647e-16 1.224647e-16 -1 597.1578 396.184)" class="st19" width="7" height="15.7"/>
						<path class="st19" d="M274.4,202.1h43.5c2.8,0,5.1,2.3,5.1,5.1v0.6h-53.7v-0.6C269.3,204.3,271.6,202.1,274.4,202.1z"/>
						<g>
							<circle class="st4" cx="286.3" cy="136.4" r="50.2"/>
						</g>
						<g>
							<g>
								<path class="st15" d="M281.9,86.3c-1.9,1.3-4.8,1.6-7,2.3c-1.6,0.5-12,3.2-6.9,4.8c-1.5-0.5-4.9,7.1-6.3,8.1
									c-2.5,1.7-3.3,0.8-4.5,4.3c-0.3,1,0.3,4.6,0.7,4c-0.8,1.5-3.8,1.3-3.9,3.4c1.5,2.3,2.1,0.3,1.2,3.4c-1,3.1-5.2,3.7-4.7-0.2
									c0.2-1.5,2.4-6.2-1-6.2c-1.9,0-3.7,0.2-1.9-2.2c1.6-2.3,1.2-2.3,0.9-4.5c2.6-3,5.5-5.6,8.6-7.9
									C264.3,90.4,273,87.1,281.9,86.3C281.7,86.5,278.1,86.7,281.9,86.3z"/>
							</g>
							<path class="st15" d="M236.1,135.5c0-0.2,0-0.5,0-0.7c0,0,0,0,0,0c0-0.2,0-0.4,0-0.7c0,0,0,0,0-0.1c0-0.2,0-0.4,0-0.7
								c0,0,0,0,0,0c0.4-6.7,2.2-13.2,5.1-19.2c0,0,0,0,0,0c0.1-0.2,0.2-0.4,0.3-0.6c2.5,2.4,5.8,2,7.7,4.5c3.3,4.4,1.5,8,3.7,12.9
								c1.6,3.5-1.3,10.1-3.4,12.9c-3.6,4.8-8-2.7-8.4-2.3c-2.1,2.2-2.6-0.2-2.3,4.7c0,0.6,0.5,7.2,1,9.3c0,0.1,0,0.2-0.1,0.3
								c-0.5-1.1-0.9-2.2-1.3-3.4c-0.4-1.2-0.8-2.4-1.1-3.7C236.7,143.2,236.1,136.6,236.1,135.5z"/>
						</g>
					</g>
				</g>
				<g>
					<path class="st15" d="M265.1,160.5c0-3.1,11.4-3.6,13.5-7c2.4-4.1,9.2-4.6,12.6-6.2c2.4-1.1,5.2-3.2,7.5-1.4
						c2,1.5,5.7,1.7,6.9-1.3c-0.4-1.5-0.5-3-0.1-4.6c1.2-0.3,2.4-0.5,3.6-0.6c-0.2-1.1-0.7-2.1-1.3-3.1c1.1-2.1,4.2,2.7,5.6-0.9
						c0.7-1.9,0.4-7.5-2-8.4c-1.2-0.4-5.6-0.3-6.7,0.4c-2.7,1.5-1.2,3.8-3.1,5.2c2.6-1.8-6.9-11.5-8.1-12c-3-1.5-9.5-1.9-11.4-4.8
						c-2.1-3.3,3-7.3,4.5-9.7c0.4,0.5,0.9,0.9,1.4,1.3c1.1,0,1.3-3,2.5-3.3c2.7-0.5,1.6,3.5,1.9,4c2,2.6,11.2-3.2,3.8-5.4
						c-0.6-0.2-14.3,2.6-11.8-0.9c0.5-0.8,4.6-3.5,3.6-4.6c-1.9-2.3-3.7-0.7-4.8,1.4c-0.7,1.3-6.9,13.2-6.4,4.7
						c0.1-1.8-2.9-2.5-3.1-4.2c-0.2-1.3,3.4-4.6,4-5.3c1.3-1.6,10.8-0.5,12.4-0.5c3.7,0,5.6,0.8,9,1.4c3.7,0.6,0.9-1.8,2-3.2
						c0.4-0.5,4.4,0.4,4.6,0.5c3.9,1.4,3.5,1.3,3,3.7c-0.3,1.3,4.4,5.6,4.9,6.8c2.2,5.1,6.7,8.1,7.1,13.9c0.3,4.1,1.8,6.9-0.9,10.4
						c-3,3.9,1.3,8.3-4.4,11.3c-4.4,2.3-17.1,10.2-12.5,15.2c3.4,3.8,0.2,7.2-1.6,10.9c-3,6.2-7.3,3.8-4.8,12.2
						c4.3,14.7-11.3,3.3-11.4,3.6c0.1-0.9-10-7.1-12.5-8C270.4,170.7,265.1,160.6,265.1,160.5C265.1,159.1,265.2,162.1,265.1,160.5z
						"/>
				</g>
				<g>
					<g>
						<path class="st17" d="M299.1,113.8c0.2,2.4,4.2,6.4,4.2,6.4s3.9-4.1,4.2-6.4c0.4-3.5-1.9-5.1-4.2-5.1S298.9,110,299.1,113.8z
							 M300.9,112.8c0-1.3,1.1-2.4,2.4-2.4s2.4,1.1,2.4,2.4c0,1.3-1.1,2.4-2.4,2.4S300.9,114.1,300.9,112.8z"/>
					</g>
				</g>
			</g>
		</g>
		<g>
			<g>
				<g>
					<path class="st29" d="M73.2,131.7H21.8c-0.8,0-1-1.1-0.3-1.3l25.7-10.1c0.2-0.1,0.3-0.1,0.5,0l25.7,10.1
						C74.1,130.6,73.9,131.7,73.2,131.7z"/>
					<g>
						<g>
							<g>
								<rect x="23.5" y="133.2" class="st29" width="1.1" height="20.3"/>
								<rect x="25.2" y="133.2" class="st29" width="1.1" height="20.3"/>
								<rect x="26.8" y="133.2" class="st29" width="1.1" height="20.3"/>
							</g>
							<polygon class="st29" points="29.1,132.1 22.3,132.1 22.3,132.4 23.3,132.8 28.1,132.8 29.1,132.4 							"/>
							<polygon class="st29" points="29.2,155.2 22.4,155.2 22.4,154.1 23.4,153.6 28.2,153.6 29.2,154.1 							"/>
						</g>
						<g>
							<g>
								<rect x="32.2" y="133.2" class="st29" width="1.1" height="20.3"/>
								<rect x="33.9" y="133.2" class="st29" width="1.1" height="20.3"/>
								<rect x="35.5" y="133.2" class="st29" width="1.1" height="20.3"/>
							</g>
							<polygon class="st29" points="37.8,132.1 31,132.1 31,132.4 32,132.8 36.8,132.8 37.8,132.4 							"/>
							<polygon class="st29" points="37.9,155.2 31.1,155.2 31.1,154.1 32.1,153.6 36.9,153.6 37.9,154.1 							"/>
						</g>
						<g>
							<g>
								<rect x="40.9" y="133.2" class="st29" width="1.1" height="20.3"/>
								<rect x="42.6" y="133.2" class="st29" width="1.1" height="20.3"/>
								<rect x="44.2" y="133.2" class="st29" width="1.1" height="20.3"/>
							</g>
							<polygon class="st29" points="46.5,132.1 39.7,132.1 39.7,132.4 40.7,132.8 45.5,132.8 46.5,132.4 							"/>
							<polygon class="st29" points="46.6,155.2 39.8,155.2 39.8,154.1 40.7,153.6 45.6,153.6 46.6,154.1 							"/>
						</g>
						<g>
							<g>
								<rect x="49.6" y="133.2" class="st29" width="1.1" height="20.3"/>
								<rect x="51.3" y="133.2" class="st29" width="1.1" height="20.3"/>
								<rect x="52.9" y="133.2" class="st29" width="1.1" height="20.3"/>
							</g>
							<polygon class="st29" points="55.2,132.1 48.4,132.1 48.4,132.4 49.4,132.8 54.2,132.8 55.2,132.4 							"/>
							<polygon class="st29" points="55.3,155.2 48.5,155.2 48.5,154.1 49.4,153.6 54.3,153.6 55.3,154.1 							"/>
						</g>
						<g>
							<g>
								<rect x="58.3" y="133.2" class="st29" width="1.1" height="20.3"/>
								<rect x="60" y="133.2" class="st29" width="1.1" height="20.3"/>
								<rect x="61.6" y="133.2" class="st29" width="1.1" height="20.3"/>
							</g>
							<polygon class="st29" points="63.9,132.1 57.1,132.1 57.1,132.4 58.1,132.8 62.9,132.8 63.9,132.4 							"/>
							<polygon class="st29" points="64,155.2 57.1,155.2 57.1,154.1 58.1,153.6 63,153.6 64,154.1 							"/>
						</g>
						<g>
							<g>
								<rect x="67" y="133.2" class="st29" width="1.1" height="20.3"/>
								<rect x="68.6" y="133.2" class="st29" width="1.1" height="20.3"/>
								<rect x="70.3" y="133.2" class="st29" width="1.1" height="20.3"/>
							</g>
							<polygon class="st29" points="72.6,132.1 65.8,132.1 65.8,132.4 66.8,132.8 71.6,132.8 72.6,132.4 							"/>
							<polygon class="st29" points="72.7,155.2 65.8,155.2 65.8,154.1 66.8,153.6 71.7,153.6 72.7,154.1 							"/>
						</g>
					</g>
					<path class="st29" d="M74.2,156.8h-53c-0.3,0-0.6-0.3-0.6-0.6l0,0c0-0.3,0.3-0.6,0.6-0.6h53c0.3,0,0.6,0.3,0.6,0.6l0,0
						C74.8,156.6,74.5,156.8,74.2,156.8z"/>
					<path class="st29" d="M75.6,160.4H19.4c-0.8,0-1.5-0.7-1.5-1.5v0c0-0.8,0.7-1.5,1.5-1.5h56.2c0.8,0,1.5,0.7,1.5,1.5v0
						C77.1,159.8,76.4,160.4,75.6,160.4z"/>
				</g>
			</g>
			<g>
				<g>
					<path class="st30" d="M0.3,158.5l8.8-12.9l2.8-4.2l0.2-0.4l1.8-2.7c0.2-0.4,0.7-0.5,1.1-0.2l35.2,22.7c0.4,0.2,0.5,0.7,0.2,1.1
						l-1.7,2.8l-0.2,0.4l-2.7,4.3l-8.2,13.1c-0.2,0.4-1.1,0.8-1.8,0.2l-35-21.3C0.5,161,0.2,160.5,0,160
						C-0.1,159.5,0,158.9,0.3,158.5z"/>
					<polygon class="st19" points="9.1,145.5 12,141.4 48.6,165 46,169.3 					"/>
					<path class="st18" d="M8.6,150.9l1.2-1.8c0.2-0.3,0.7-0.4,1-0.2l30.9,19.9c0.3,0.2,0.4,0.7,0.2,1l-1.1,1.8
						c-0.2,0.4-0.7,0.5-1,0.2l-31-20C8.5,151.7,8.4,151.2,8.6,150.9z"/>
					<path d="M21.2,157.7c-0.5,0-1.1-0.2-1.5-0.4c-0.3-0.2-0.3-0.5-0.2-0.7c0.4-0.1,0.9-0.3,1.3-0.4c0.1,0,0-0.1,0-0.1
						c-0.4,0-1.1,0.1-1.4,0.5c-0.4,0.1-0.8,0.2-1.2,0.2c0-0.1,0.1-0.1,0.1-0.2c0-0.1,0-0.1-0.1-0.1c-0.3,0-0.7,0-1,0
						c0.2-0.3,0.4-0.5,0.6-0.7c0,0,0-0.1,0-0.1c-0.5,0.2-1,0.2-1.6,0.2c0.1-0.1,0.1-0.1,0.2-0.2c0.4-0.1,0.8-0.2,1.2-0.4
						c0.1,0,0-0.1,0-0.1c-0.5,0-0.9,0.2-1.3,0.4c-0.5,0.1-1.1,0.2-1.6,0.2c0.6-0.9,1.6-1.4,2.7-1.4c0.1,0,0.1-0.2,0-0.2
						c-0.7,0-1.2-0.4-1.8-0.6c-0.6-0.2-1.1-0.4-1.7-0.5c-0.1,0-0.1,0-0.2,0c0.6-0.4,1.3-0.7,2.1-0.9c0.2,0,0.5-0.1,0.7-0.1
						c0.1,0,0.1,0,0.2,0c0.2,0,0.8,0,0.4,0.5c-0.1,0.1-0.4,0.2-0.6,0.3c-0.3,0.1-0.5,0.1-0.8,0.2c0,0,0,0.1,0,0.1
						c0.5,0,1.2-0.1,1.6-0.5c0.2-0.2,0.1-0.5-0.2-0.6c-0.5-0.2-1.3,0-1.7,0.2c-0.6,0.2-1.2,0.4-1.8,0.8c0,0,0,0-0.1,0.1
						c-1.1-0.1-2.2,0.1-3.1,0.6c-0.3,0.2-0.7,0.4-0.6,0.9c0.1,0.4,0.4,0.7,0.8,0.7c1.2,0.1,2.1-1.3,3-1.9c0.7,0,1.4,0.2,2,0.5
						c0.4,0.2,0.9,0.4,1.3,0.5c-1,0.2-1.8,0.7-2.4,1.6c0,0.1,0,0.1,0.1,0.1c0.5,0,1-0.1,1.6-0.2c0,0-0.1,0.1-0.1,0.1
						c0,0,0,0.1,0.1,0.1c0.5,0,1.1-0.1,1.6-0.2c-0.2,0.2-0.4,0.4-0.6,0.6c0,0,0,0.1,0,0.1c0.3,0.1,0.7,0.1,1,0
						c-0.1,0.1-0.1,0.1-0.2,0.2c0,0.1,0,0.1,0.1,0.1c0.4,0,0.8-0.1,1.2-0.2c0,0.1,0,0.2,0,0.3c0.1,0.7,1.4,0.9,2,0.9
						C21.3,157.8,21.3,157.7,21.2,157.7z M9.8,154.6c-0.5-0.8,1-1.1,1.4-1.2c0.6-0.2,1.2-0.2,1.8-0.2c-0.4,0.3-0.8,0.7-1.2,1
						C11.5,154.6,10.4,155.4,9.8,154.6z M20.2,156.1c-0.2,0.1-0.4,0.1-0.6,0.2c0,0,0.1,0,0.1-0.1C19.9,156.2,20,156.1,20.2,156.1z"
						/>
					
						<linearGradient id="SVGID_00000130624696998090412000000012694170568733744014_" gradientUnits="userSpaceOnUse" x1="-1562.4474" y1="147.6759" x2="-1561.4164" y2="147.6759" gradientTransform="matrix(0.2408 0.9706 -0.9706 0.2408 542.3713 1639.2297)">
						<stop  offset="0" style="stop-color:#2B3582"/>
						<stop  offset="1" style="stop-color:#150E42"/>
					</linearGradient>
					<path style="fill:url(#SVGID_00000130624696998090412000000012694170568733744014_);" d="M23.6,159c-0.4-0.2-0.9-0.4-1.3-0.6
						c-0.1,0-0.2,0.1-0.1,0.1c0.4,0.2,0.9,0.5,1.3,0.6C23.6,159.2,23.7,159.1,23.6,159z"/>
				</g>
				
					<linearGradient id="SVGID_00000039134521326471183860000018310983329347737018_" gradientUnits="userSpaceOnUse" x1="-4028.9417" y1="-442.5137" x2="-4032.4731" y2="-440.748" gradientTransform="matrix(-0.5422 0.8403 -0.8403 -0.5422 -2521.092 3324.2424)">
					<stop  offset="0" style="stop-color:#2B3582"/>
					<stop  offset="1" style="stop-color:#150E42"/>
				</linearGradient>
				<path style="fill:url(#SVGID_00000039134521326471183860000018310983329347737018_);" d="M34.6,177.4c-0.8-0.5-1.1-1.6-0.5-2.4
					c0.5-0.8,1.6-1.1,2.4-0.5c0.8,0.5,1.1,1.6,0.5,2.4C36.5,177.7,35.4,177.9,34.6,177.4z"/>
			</g>
		</g>
		<g>
			<g>
				<g>
					<path class="st19" d="M226.6,70.8c-0.1-0.2-0.3-0.5-0.6-0.8c0-0.1-0.1-0.2-0.3-0.4c0,0,0,0,0,0c-0.1-0.1-0.3-0.2-0.4-0.4
						c-0.8-0.7-1.8-1.2-3-1.4c0,0-0.1,0-0.2,0c-0.2-0.1-0.4-0.1-0.6-0.1c-1-0.1-2,0-2.9,0.3c-0.4,0.1-0.7,0.3-1,0.4
						c-0.1,0-0.3,0.2-0.5,0.2c-1.8,1.1-3.1,3-3.4,5.3c-0.1,1.3,0,2.5,0.6,3.7v0c0.6,1.4,1.7,2.6,3.1,3.4c0.8,0.4,1.6,0.7,2.5,0.8
						c0.9,0.1,1.8,0,2.7-0.2c2.8-0.7,4.9-3.1,5.2-6.1C227.9,73.9,227.5,72.2,226.6,70.8z M222.4,69.9L222.4,69.9
						c0.1,0.1,0.2,0.3,0.1,0.5c0,0.1,0,0.2,0,0.3c0,0,0,0.1,0,0.2c-0.1,0.7-0.8,1.2-1.6,1.1c-0.5,0-0.9-0.4-1.1-0.8
						c-0.1-0.2-0.2-0.5-0.1-0.8c0,0,0-0.1,0-0.1c0-0.3,0.2-0.6,0.4-0.8c0,0,0,0,0.1-0.1h0.1c0.2-0.2,0.6-0.3,0.9-0.3
						C221.8,69.2,222.3,69.5,222.4,69.9z"/>
				</g>
				<g>
					<polygon class="st19" points="220.8,83.9 220.5,86.4 221.7,88.3 221.5,90.4 218.9,90.1 218.8,91.2 221.3,91.5 221.2,92.4 
						220.6,92.3 220.4,93.9 219.3,93.8 219.1,94.8 220.9,95 220.8,96.5 219.6,97.6 218.5,97.5 218.3,99 215.3,98.6 217.5,80.1 
						222.6,80.7 222.2,84.1 					"/>
				</g>
			</g>
			<g>
				<g>
					<path class="st19" d="M236.1,59c-2.8-1.7-6.5-1.2-8.7,1.1c-0.3,0.2-0.5,0.5-0.7,0.8c-0.2,0.1-0.3,0.4-0.4,0.5
						c-1.4,2.3-1.4,5.1-0.1,7.3c0.1,0.3,0.4,0.6,0.6,0.9c0.6,0.6,1.1,1.2,1.9,1.7c2.5,1.6,5.7,1.3,8-0.4c0.7-0.5,1.3-1.2,1.8-2
						c0.5-0.8,0.8-1.6,0.9-2.4v0C239.9,63.5,238.7,60.6,236.1,59z M230.1,63.7c-0.2,0.3-0.5,0.6-0.9,0.6c-0.4,0.2-0.8,0.1-1.1-0.1
						c-0.7-0.4-0.9-1.3-0.5-2.1c0.1-0.1,0.1-0.2,0.3-0.3c0,0,0.1-0.1,0.2-0.1c0.1,0,0.2-0.1,0.3-0.1c0.4-0.2,0.8-0.2,1.1,0
						C230.3,62,230.6,63,230.1,63.7z"/>
				</g>
				<g>
					<polygon class="st19" points="240.7,68.8 242.8,70.1 245,69.8 246.8,70.9 245.5,73.1 246.4,73.7 247.8,71.5 248.5,72 
						248.2,72.5 249.5,73.4 249,74.4 249.8,74.9 250.8,73.3 252,74.1 252.5,75.6 251.9,76.6 253.2,77.4 251.6,80 235.9,70.3 
						238.6,65.8 241.4,67.6 					"/>
				</g>
			</g>
			<g>
				<path class="st19" d="M227.1,59.7c-1.4-1.4-3.4-2-5.2-1.7h-0.1c-1.4,0.1-2.8,0.8-3.9,2c-0.1,0.1-0.2,0.2-0.3,0.4
					c-0.3,0.4-0.6,0.8-0.7,1.1c-0.2,0.2-0.3,0.5-0.4,0.8v0c-0.3,1-0.4,2.1-0.2,3.2v0.1c0.1,0.4,0.2,0.7,0.3,1c0,0,0,0,0,0.1v0
					c0.2,0.5,0.5,1.1,0.9,1.5c0,0.1,0.2,0.2,0.3,0.3c0.1,0.1,0.3,0.3,0.5,0.5c0.3,0.3,0.7,0.7,1.1,0.9c0.1,0.1,0.2,0.2,0.3,0.2h0
					c0.5,0.3,1,0.4,1.5,0.5h0c0.4,0.1,0.9,0.2,1.3,0.2c0-0.1,0-0.2,0-0.2c0-0.1,0-0.2,0-0.3c0-0.2,0-0.4-0.1-0.5h0
					c-0.7,0-1.4-0.2-2-0.5h-0.1c-0.4-0.2-0.7-0.5-1-0.8c-0.1,0-0.2-0.1-0.3-0.2c-0.1-0.1-0.3-0.3-0.4-0.4c-0.4-0.5-0.7-1.1-0.9-1.6
					c-0.1-0.1-0.1-0.1-0.1-0.2c0,0,0,0,0,0c0-0.1-0.1-0.3-0.1-0.5v0c0,0,0,0,0-0.1v0c-0.2-1.1,0-2.4,0.5-3.4c0-0.2,0.1-0.3,0.3-0.5
					l0,0c0.1-0.2,0.3-0.5,0.5-0.7c2.1-2.2,5.5-2.3,7.7-0.2c0.1,0.1,0.2,0.2,0.3,0.3c0.2-0.3,0.4-0.6,0.7-0.8L227.1,59.7z
					 M228.5,61.6c0-0.1,0-0.1,0-0.1c-0.1,0-0.1,0.2-0.3,0.2c-0.1,0-0.2,0.1-0.2,0.1c-0.1,0-0.2,0.2-0.3,0.3c0.3,0.7,0.5,1.3,0.5,2.1
					c0.1,1.5-0.4,3-1.4,4.1l-0.4,0.4c-0.3,0.2-0.7,0.5-1,0.7c0.1,0.1,0.3,0.2,0.4,0.4c0.1,0.1,0.3,0.2,0.4,0.4
					c0.1,0,0.3-0.1,0.4-0.2h0c0.2-0.1,0.3-0.2,0.4-0.3c0.2-0.2,0.4-0.3,0.6-0.6c1.2-1.3,1.8-2.9,1.8-4.6v-0.1
					C229.1,63.3,228.9,62.4,228.5,61.6z"/>
			</g>
		</g>
	</g>
	<g class="st0">
		<g class="st2">
			
				<rect x="633.2" y="-378.4" transform="matrix(-1 -1.224647e-16 1.224647e-16 -1 1283.7305 -742.5792)" class="st3" width="17.3" height="14.2"/>
			
				<rect x="641.9" y="-378.4" transform="matrix(-1 -1.224647e-16 1.224647e-16 -1 1300.994 -742.5792)" class="st4" width="17.3" height="14.2"/>
			<polygon class="st5" points="633.2,-367.8 636,-367.8 635.7,-368.6 636,-369.1 633.2,-369.1 			"/>
			<polygon class="st3" points="641.9,-374 644.6,-374 644.4,-374.8 644.6,-375.3 641.9,-375.3 			"/>
			<polygon class="st5" points="641.9,-375.3 639.1,-375.3 639.4,-374.6 639.1,-374 641.9,-374 			"/>
			<polygon class="st3" points="659.1,-367.6 656.4,-367.6 656.6,-366.9 656.4,-366.3 659.1,-366.3 			"/>
			<rect x="653" y="-377.4" class="st6" width="5" height="1.9"/>
		</g>
		<g class="st2">
			
				<rect x="620.3" y="-392.7" transform="matrix(-1 -1.224647e-16 1.224647e-16 -1 1257.8347 -771.0956)" class="st3" width="17.3" height="14.2"/>
			
				<rect x="628.9" y="-392.7" transform="matrix(-1 -1.224647e-16 1.224647e-16 -1 1275.0983 -771.0956)" class="st4" width="17.3" height="14.2"/>
			<polygon class="st5" points="620.3,-382 623,-382 622.8,-382.8 623,-383.4 620.3,-383.4 			"/>
			<polygon class="st3" points="628.9,-388.3 631.7,-388.3 631.4,-389 631.7,-389.6 628.9,-389.6 			"/>
			<polygon class="st5" points="628.9,-389.6 626.2,-389.6 626.4,-388.8 626.2,-388.3 628.9,-388.3 			"/>
			<polygon class="st3" points="646.2,-381.9 643.4,-381.9 643.7,-381.1 643.4,-380.6 646.2,-380.6 			"/>
			<rect x="640.1" y="-391.7" class="st6" width="5" height="1.9"/>
		</g>
		<g class="st2">
			
				<rect x="605.5" y="-378.4" transform="matrix(-1 -1.224647e-16 1.224647e-16 -1 1228.24 -742.5792)" class="st3" width="17.3" height="14.2"/>
			
				<rect x="614.1" y="-378.4" transform="matrix(-1 -1.224647e-16 1.224647e-16 -1 1245.5035 -742.5792)" class="st4" width="17.3" height="14.2"/>
			<polygon class="st5" points="605.5,-367.8 608.2,-367.8 608,-368.6 608.2,-369.1 605.5,-369.1 			"/>
			<polygon class="st3" points="614.1,-374 616.9,-374 616.6,-374.8 616.9,-375.3 614.1,-375.3 			"/>
			<polygon class="st5" points="614.1,-375.3 611.4,-375.3 611.6,-374.6 611.4,-374 614.1,-374 			"/>
			<polygon class="st3" points="631.4,-367.6 628.6,-367.6 628.9,-366.9 628.6,-366.3 631.4,-366.3 			"/>
			<rect x="625.3" y="-377.4" class="st6" width="5" height="1.9"/>
		</g>
		<path class="st7" d="M632.9-382.2c-0.1,0-0.1,0-0.1,0c-0.1,0-0.1,0-0.1-0.1c0-0.1,0-0.3,0-0.4c0-0.1,0-0.1,0.1-0.1
			c0.3,0,0.5,0,0.8,0c0.1,0,0.1,0,0.1,0.1c0,0.4,0,0.9,0,1.3c0,0.1,0,0.1,0.1,0.1c0.3,0,0.6,0,0.9,0c0.1,0,0.2,0,0.2-0.2
			c0-0.5,0-1,0-1.6c0-0.1-0.1-0.2-0.2-0.3c-0.4-0.2-0.7-0.4-1.1-0.6c-0.1-0.1-0.3-0.1-0.4,0c-0.4,0.2-0.7,0.4-1.1,0.6
			c-0.1,0.1-0.2,0.2-0.2,0.3c0,0.5,0,1,0,1.6c0,0.1,0,0.2,0.2,0.2c0,0,0.1,0,0.1,0c0.1,0,0.1,0,0.1,0.1c0,0.1,0,0.3,0,0.4
			c0,0.1,0,0.1-0.1,0.1c-0.2,0-0.4,0-0.6-0.1c-0.2-0.2-0.4-0.4-0.4-0.7c0-0.5,0-1.1,0-1.6c0-0.4,0.2-0.6,0.5-0.8
			c0.4-0.2,0.8-0.5,1.2-0.7c0.3-0.2,0.7-0.2,1,0c0.4,0.2,0.7,0.4,1.1,0.6c0.3,0.2,0.5,0.5,0.5,0.9c0,0.5,0,1,0,1.6
			c0,0.5-0.4,0.8-0.8,0.8c-0.5,0-1,0-1.6,0c-0.1,0-0.1,0-0.1-0.1c0-0.4,0-0.8,0-1.3C632.9-382.1,632.9-382.2,632.9-382.2z"/>
		<path class="st7" d="M618.6-368c-0.1,0-0.1,0-0.1,0c-0.1,0-0.1,0-0.1-0.1c0-0.1,0-0.3,0-0.4c0-0.1,0-0.1,0.1-0.1
			c0.3,0,0.5,0,0.8,0c0.1,0,0.1,0,0.1,0.1c0,0.4,0,0.9,0,1.3c0,0.1,0,0.1,0.1,0.1c0.3,0,0.6,0,0.9,0c0.1,0,0.2,0,0.2-0.2
			c0-0.5,0-1,0-1.6c0-0.1-0.1-0.2-0.2-0.3c-0.4-0.2-0.7-0.4-1.1-0.6c-0.1-0.1-0.3-0.1-0.4,0c-0.4,0.2-0.7,0.4-1.1,0.6
			c-0.1,0.1-0.2,0.2-0.2,0.3c0,0.5,0,1,0,1.6c0,0.1,0,0.2,0.2,0.2c0,0,0.1,0,0.1,0c0.1,0,0.1,0,0.1,0.1c0,0.1,0,0.3,0,0.4
			c0,0.1,0,0.1-0.1,0.1c-0.2,0-0.4,0-0.6-0.1c-0.2-0.2-0.4-0.4-0.4-0.7c0-0.5,0-1.1,0-1.6c0-0.4,0.2-0.6,0.5-0.8
			c0.4-0.2,0.8-0.5,1.2-0.7c0.3-0.2,0.7-0.2,1,0c0.4,0.2,0.7,0.4,1.1,0.6c0.3,0.2,0.5,0.5,0.5,0.9c0,0.5,0,1,0,1.6
			c0,0.5-0.4,0.8-0.8,0.8c-0.5,0-1,0-1.6,0c-0.1,0-0.1,0-0.1-0.1c0-0.4,0-0.8,0-1.3C618.6-367.9,618.6-367.9,618.6-368z"/>
		<path class="st7" d="M646.4-368c-0.1,0-0.1,0-0.1,0c-0.1,0-0.1,0-0.1-0.1c0-0.1,0-0.3,0-0.4c0-0.1,0-0.1,0.1-0.1
			c0.3,0,0.5,0,0.8,0c0.1,0,0.1,0,0.1,0.1c0,0.4,0,0.9,0,1.3c0,0.1,0,0.1,0.1,0.1c0.3,0,0.6,0,0.9,0c0.1,0,0.2,0,0.2-0.2
			c0-0.5,0-1,0-1.6c0-0.1-0.1-0.2-0.2-0.3c-0.4-0.2-0.7-0.4-1.1-0.6c-0.1-0.1-0.3-0.1-0.4,0c-0.4,0.2-0.7,0.4-1.1,0.6
			c-0.1,0.1-0.2,0.2-0.2,0.3c0,0.5,0,1,0,1.6c0,0.1,0,0.2,0.2,0.2c0,0,0.1,0,0.1,0c0.1,0,0.1,0,0.1,0.1c0,0.1,0,0.3,0,0.4
			c0,0.1,0,0.1-0.1,0.1c-0.2,0-0.4,0-0.6-0.1c-0.2-0.2-0.4-0.4-0.4-0.7c0-0.5,0-1.1,0-1.6c0-0.4,0.2-0.6,0.5-0.8
			c0.4-0.2,0.8-0.5,1.2-0.7c0.3-0.2,0.7-0.2,1,0c0.4,0.2,0.7,0.4,1.1,0.6c0.3,0.2,0.5,0.5,0.5,0.9c0,0.5,0,1,0,1.6
			c0,0.5-0.4,0.8-0.8,0.8c-0.5,0-1,0-1.6,0c-0.1,0-0.1,0-0.1-0.1c0-0.4,0-0.8,0-1.3C646.4-367.9,646.4-367.9,646.4-368z"/>
	</g>
</g>
</svg>
