<?xml version="1.0" encoding="utf-8"?>
<!-- Generator: Adobe Illustrator 27.0.0, SVG Export Plug-In . SVG Version: 6.00 Build 0)  -->
<svg version="1.1" xmlns="http://www.w3.org/2000/svg" xmlns:xlink="http://www.w3.org/1999/xlink" x="0px" y="0px"
	 viewBox="0 0 248.3 76.7" style="enable-background:new 0 0 248.3 76.7;" xml:space="preserve">
<style type="text/css">
	.st0{display:none;}
	.st1{display:inline;fill:#FFFFFF;}
	.st2{display:inline;}
	.st3{fill:#B9B9B9;}
	.st4{fill:#CDCDCD;}
	.st5{fill:#7C7C7C;}
	.st6{fill:#E4E4E4;}
	.st7{display:inline;opacity:0.22;}
	.st8{fill:#F47458;}
	.st9{fill:#444444;}
	.st10{fill:#565656;}
	.st11{fill:#707070;}
	.st12{display:inline;fill:#282828;}
	.st13{fill:#353535;}
	.st14{fill:#3A3A3A;}
	.st15{opacity:0.5;fill:url(#SVGID_1_);}
	.st16{fill:#282828;}
	.st17{display:none;fill:url(#SVGID_00000001632253548170547850000007449413551095342985_);}
	.st18{display:inline;fill:url(#SVGID_00000075862885832395398850000014236003035996433836_);}
	.st19{fill:#2D2D2D;}
	.st20{display:none;fill:url(#SVGID_00000160183997368989286850000004821964579196060595_);}
	.st21{display:inline;fill:url(#SVGID_00000090275425744035324330000006556927027017874604_);}
	.st22{display:none;fill:url(#SVGID_00000111887130160651400880000007492892593271627180_);}
	.st23{display:inline;fill:url(#SVGID_00000080176123585706129850000000690512843561992893_);}
	.st24{fill:#C6004C;}
	.st25{fill:#E7255E;}
	.st26{display:none;fill:url(#SVGID_00000022536722412758292520000014750068885216715946_);}
	.st27{display:inline;fill:url(#SVGID_00000161613670457539435430000009549315778522663613_);}
	.st28{display:none;fill:url(#SVGID_00000094591081008143949690000010336592160598908570_);}
	.st29{display:inline;fill:url(#SVGID_00000059295710488251141090000010467725637509081279_);}
	.st30{fill:#A2A2A2;}
	.st31{opacity:0.55;fill:#595959;}
	.st32{opacity:0.55;}
	.st33{fill:url(#SVGID_00000114074816494627962950000011316052962187566753_);}
	.st34{opacity:0.2;}
	.st35{opacity:0.22;}
	.st36{fill:#5B5B5B;}
	.st37{fill:#717171;}
	.st38{fill:#424242;}
	.st39{opacity:0.22;fill:#FFFFFF;}
</style>
<g id="bg" class="st0">
	<rect x="-587.2" y="-341.3" class="st1" width="841.9" height="841.9"/>
</g>
<g id="graphics">
	<g class="st0">
		<g class="st2">
			
				<rect x="-384.8" y="-61.5" transform="matrix(-1 -1.224647e-16 1.224647e-16 -1 -741.7118 -100.1212)" class="st3" width="27.9" height="23"/>
			
				<rect x="-370.9" y="-61.5" transform="matrix(-1 -1.224647e-16 1.224647e-16 -1 -713.8527 -100.1212)" class="st4" width="27.9" height="23"/>
			<polygon class="st5" points="-384.8,-44.4 -380.4,-44.4 -380.7,-45.6 -380.4,-46.5 -384.8,-46.5 			"/>
			<polygon class="st3" points="-370.9,-54.4 -366.4,-54.4 -366.8,-55.7 -366.4,-56.6 -370.9,-56.6 			"/>
			<polygon class="st5" points="-370.9,-56.6 -375.3,-56.6 -374.9,-55.3 -375.3,-54.4 -370.9,-54.4 			"/>
			<polygon class="st3" points="-343,-44.2 -347.4,-44.2 -347,-42.9 -347.4,-42 -343,-42 			"/>
			<rect x="-352.8" y="-60" class="st6" width="8" height="3.1"/>
		</g>
		<g class="st2">
			
				<rect x="-405.7" y="-84.6" transform="matrix(-1 -1.224647e-16 1.224647e-16 -1 -783.501 -146.1395)" class="st3" width="27.9" height="23"/>
			
				<rect x="-391.8" y="-84.6" transform="matrix(-1 -1.224647e-16 1.224647e-16 -1 -755.6419 -146.1395)" class="st4" width="27.9" height="23"/>
			<polygon class="st5" points="-405.7,-67.4 -401.2,-67.4 -401.6,-68.7 -401.2,-69.5 -405.7,-69.5 			"/>
			<polygon class="st3" points="-391.8,-77.4 -387.3,-77.4 -387.7,-78.7 -387.3,-79.6 -391.8,-79.6 			"/>
			<polygon class="st5" points="-391.8,-79.6 -396.2,-79.6 -395.8,-78.3 -396.2,-77.4 -391.8,-77.4 			"/>
			<polygon class="st3" points="-363.9,-67.2 -368.3,-67.2 -367.9,-65.9 -368.3,-65 -363.9,-65 			"/>
			<rect x="-373.7" y="-83" class="st6" width="8" height="3.1"/>
		</g>
		<g class="st2">
			
				<rect x="-429.6" y="-61.5" transform="matrix(-1 -1.224647e-16 1.224647e-16 -1 -831.2594 -100.1212)" class="st3" width="27.9" height="23"/>
			
				<rect x="-415.6" y="-61.5" transform="matrix(-1 -1.224647e-16 1.224647e-16 -1 -803.4003 -100.1212)" class="st4" width="27.9" height="23"/>
			<polygon class="st5" points="-429.5,-44.4 -425.1,-44.4 -425.5,-45.6 -425.1,-46.5 -429.5,-46.5 			"/>
			<polygon class="st3" points="-415.6,-54.4 -411.2,-54.4 -411.6,-55.7 -411.2,-56.6 -415.6,-56.6 			"/>
			<polygon class="st5" points="-415.6,-56.6 -420,-56.6 -419.7,-55.3 -420,-54.4 -415.6,-54.4 			"/>
			<polygon class="st3" points="-387.8,-44.2 -392.2,-44.2 -391.8,-42.9 -392.2,-42 -387.8,-42 			"/>
			<rect x="-397.6" y="-60" class="st6" width="8" height="3.1"/>
		</g>
		<path class="st7" d="M-385.4-67.7c-0.1,0-0.2,0-0.2,0c-0.1,0-0.2-0.1-0.2-0.2c0-0.2,0-0.5,0-0.7c0-0.1,0.1-0.2,0.2-0.2
			c0.4,0,0.8,0,1.2,0c0.1,0,0.2,0.1,0.2,0.2c0,0.7,0,1.4,0,2.1c0,0.1,0,0.1,0.1,0.1c0.5,0,0.9,0,1.4,0c0.2,0,0.3-0.1,0.3-0.3
			c0-0.8,0-1.7,0-2.5c0-0.2-0.1-0.4-0.3-0.5c-0.6-0.3-1.2-0.6-1.8-1c-0.2-0.1-0.4-0.1-0.6,0c-0.6,0.3-1.2,0.6-1.7,1
			c-0.2,0.1-0.3,0.3-0.3,0.5c0,0.8,0,1.7,0,2.5c0,0.2,0.1,0.2,0.2,0.3c0.1,0,0.2,0,0.2,0c0.1,0,0.2,0.1,0.2,0.2c0,0.2,0,0.5,0,0.7
			c0,0.1,0,0.2-0.1,0.2c-0.3,0-0.7,0-1-0.2c-0.4-0.2-0.6-0.6-0.6-1.1c0-0.9,0-1.8,0-2.6c0-0.6,0.3-1,0.8-1.3
			c0.6-0.4,1.3-0.7,1.9-1.1c0.5-0.3,1.1-0.3,1.6,0c0.6,0.3,1.2,0.7,1.8,1c0.6,0.3,0.8,0.8,0.8,1.4c0,0.8,0,1.7,0,2.5
			c0,0.8-0.6,1.3-1.3,1.3c-0.8,0-1.7,0-2.5,0c-0.2,0-0.2,0-0.2-0.2c0-0.7,0-1.4,0-2C-385.4-67.6-385.4-67.6-385.4-67.7z"/>
		<path class="st7" d="M-408.4-44.7c-0.1,0-0.2,0-0.2,0c-0.1,0-0.2-0.1-0.2-0.2c0-0.2,0-0.5,0-0.7c0-0.1,0.1-0.2,0.2-0.2
			c0.4,0,0.8,0,1.2,0c0.1,0,0.2,0.1,0.2,0.2c0,0.7,0,1.4,0,2.1c0,0.1,0,0.1,0.1,0.1c0.5,0,0.9,0,1.4,0c0.2,0,0.3-0.1,0.3-0.3
			c0-0.8,0-1.7,0-2.5c0-0.2-0.1-0.4-0.3-0.5c-0.6-0.3-1.2-0.6-1.8-1c-0.2-0.1-0.4-0.1-0.6,0c-0.6,0.3-1.2,0.6-1.7,1
			c-0.2,0.1-0.3,0.3-0.3,0.5c0,0.8,0,1.7,0,2.5c0,0.2,0.1,0.2,0.2,0.3c0.1,0,0.2,0,0.2,0c0.1,0,0.2,0.1,0.2,0.2c0,0.2,0,0.5,0,0.7
			c0,0.1,0,0.2-0.1,0.2c-0.3,0-0.7,0-1-0.2c-0.4-0.2-0.6-0.6-0.6-1.1c0-0.9,0-1.8,0-2.6c0-0.6,0.3-1,0.8-1.3
			c0.6-0.4,1.3-0.7,1.9-1.1c0.5-0.3,1.1-0.3,1.6,0c0.6,0.3,1.2,0.7,1.8,1c0.6,0.3,0.8,0.8,0.8,1.4c0,0.8,0,1.7,0,2.5
			c0,0.8-0.6,1.3-1.3,1.3c-0.8,0-1.7,0-2.5,0c-0.2,0-0.2,0-0.2-0.2c0-0.7,0-1.4,0-2C-408.4-44.6-408.4-44.6-408.4-44.7z"/>
		<path class="st7" d="M-363.6-44.7c-0.1,0-0.2,0-0.2,0c-0.1,0-0.2-0.1-0.2-0.2c0-0.2,0-0.5,0-0.7c0-0.1,0.1-0.2,0.2-0.2
			c0.4,0,0.8,0,1.2,0c0.1,0,0.2,0.1,0.2,0.2c0,0.7,0,1.4,0,2.1c0,0.1,0,0.1,0.1,0.1c0.5,0,0.9,0,1.4,0c0.2,0,0.3-0.1,0.3-0.3
			c0-0.8,0-1.7,0-2.5c0-0.2-0.1-0.4-0.3-0.5c-0.6-0.3-1.2-0.6-1.8-1c-0.2-0.1-0.4-0.1-0.6,0c-0.6,0.3-1.2,0.6-1.7,1
			c-0.2,0.1-0.3,0.3-0.3,0.5c0,0.8,0,1.7,0,2.5c0,0.2,0.1,0.2,0.2,0.3c0.1,0,0.2,0,0.2,0c0.1,0,0.2,0.1,0.2,0.2c0,0.2,0,0.5,0,0.7
			c0,0.1,0,0.2-0.1,0.2c-0.3,0-0.7,0-1-0.2c-0.4-0.2-0.6-0.6-0.6-1.1c0-0.9,0-1.8,0-2.6c0-0.6,0.3-1,0.8-1.3
			c0.6-0.4,1.3-0.7,1.9-1.1c0.5-0.3,1.1-0.3,1.6,0c0.6,0.3,1.2,0.7,1.8,1c0.6,0.3,0.8,0.8,0.8,1.4c0,0.8,0,1.7,0,2.5
			c0,0.8-0.6,1.3-1.3,1.3c-0.8,0-1.7,0-2.5,0c-0.2,0-0.2,0-0.2-0.2c0-0.7,0-1.4,0-2C-363.6-44.6-363.6-44.6-363.6-44.7z"/>
	</g>
	<g class="st0">
		<g class="st2">
			<g>
				<path class="st8" d="M-460.3,484.2l-1-4.6l-6.1,3.8l3.5,2.8C-463.9,486.3-462.8,483.4-460.3,484.2z"/>
				<path class="st9" d="M-500.2,501.4c0,0-7.1,3.2-14.9,7.1c-7.8,3.9-9.7,3.5-10.8,2.4c-1.1-1.1-1.2-3.7-1.2-3.7s-1.8,2.7-0.9,6.1
					c0.9,3.4,3.7,3.5,3.7,3.5l2-1.2l-1.3,2.3c0,0,2.8,1.4,5.3-1.1c2.6-2.6,3.1-4.2,3.1-4.2s-1,4-2,5c0,0,2.9,1.3,4.6-1
					c1.7-2.3,2.4-5.2,2.4-5.2l-0.6,5.4c0,0,2.6-1,4.1-5.2l-0.8,4c0,0,2.7-3.7,3.7-7.8c1.1-4.1,3.3-4.6,3.3-4.6L-500.2,501.4z"/>
				<path class="st9" d="M-486.7,515.2c0,0,0.3,8.7-5.6,11.9c-1.4,0.8-3.7,3.6-3.3,5.2c0.4,1.5,3.9,4.5,3.9,4.5s2.4,0.2,3.5,2.9
					c0.2,0.4-0.6,0.3-0.6,0.3l-6.2,0l-5.3-9.1l0.4-5.7l3.5-8.9l6.6-1.1L-486.7,515.2z"/>
				<path class="st9" d="M-457.6,509.7c0,0,7.9,11.9,9.6,14.5c1.2,1.8,1.2,4.1,1.2,4.1s-0.3,3.6-1.1,4.3c-0.1,0.1-0.3,0.2-0.5,0.3
					c-1.8,0.5-3.4-1.3-2.9-3.1c0.2-0.8,0.4-1.6,0.4-1.9c0-0.8-0.4-0.9-0.4-0.9l-8.7-5l-2.9-8.4L-457.6,509.7z"/>
				<path class="st10" d="M-463.3,512.4l-1.4,11.3l0.7,12.9c0,0,2.8,0.7,3.6,2.1c0.8,1.4,0.7,1.7,0.7,1.7h-6.6
					c0,0-5.4-12.9-5.4-14.3c0-1.4-1.4-9.4-1.4-10.5s0.9-5.8,4.1-6.2C-466,509-463.3,512.4-463.3,512.4z"/>
				<path class="st10" d="M-454.1,482.4l-1.7-2.3c0,0-5.6-1.6-8,0.8c-0.8,0.8-1.6,1.9-2,3.4c-0.2,0.8-0.2,2.3-0.2,3.7
					c0,1.6-0.3,2.6-0.9,4c-1.1,1.7-5.7,5.2-7.5,5.7l1.3-0.2c0,0-2.5,1.3-4.5,1.7c-7.9,1.2-19.9,1.5-22.5,2.2
					c-3.2,0.9-5.1,10.2-4.2,14.9c0.9,4.7-5.6,2.8-7.1,5.9c-1.5,2.9,4.2,16.1,4.2,16.1s1.5,1.8,1.7,2h6.4c0,0-0.2-4.1-3.4-5.2
					c-3.2-1.1-2.7-7.9-2.7-7.9s9.1,1.3,13.6-4.7c3.5-4.6,3.1-5.8,2.8-6.1c1.7,0.9,13.3,7.2,19.2,6.1c6.3-1.2,7.8-4,7.8-4l0.1,1.7
					c0,0,4.3-1.5,3.8-5c0,0,0.6,0.5,0.6,1.4c0,0,1.8-2.4,1.8-9.9c0-4.2-0.2-14.8-0.2-14.8s7.6-1.4,8.5-2.4c0.7-0.7,1.5-5.5,1.5-5.5
					L-454.1,482.4z"/>
				<path class="st9" d="M-467.4,483.4c0,0,1.5,3.3,3.1,3.8c1.6,0.5,3-7.6,3-7.6s-2.2-0.9-4.1,1
					C-466.2,481.4-467.4,483.4-467.4,483.4z"/>
			</g>
			<path class="st11" d="M-462.6,514.3c-1.9,2.2-0.2,0.2-1.5,1.7c-0.3-2.7,0.6-6,1.3-8.6c-1.2,1.3-2.7,3.8-3.5,4.8
				c1.3-2.3,1-6.7,0.7-9.4c0,0-1.5,1.8-2.2,2.6c-0.1-1.2-0.3-3.8,0.1-4.9c0.4-1.2,1.6-2.6,2.5-3.4c-1,0.8-2.3,2.1-2.7,3.3
				c-0.7,1.7-0.2,5.8-0.2,6.1c2.2-2.5,0.7-0.8,2.1-2.4c0.1,2.2,0.4,6.8-0.7,8.6c1.2-0.8,2.3-2.4,3-3.7c-1.8,4.7-0.6,7.4-0.6,7.5
				c0,0,0.1-0.1,1.5-2c0.1,0.3,0.2,0.9,0.3,1.2C-462.4,515.6-462.5,514.7-462.6,514.3z"/>
		</g>
		<path class="st12" d="M-467.5,491.6l-1,2.1c0,0,1,7.3,12.9,6.5l0.4-3.1C-455.2,497.1-466.1,496.7-467.5,491.6z"/>
	</g>
	<g>
		<path class="st3" d="M207.1,58.5c0,0.8,0.6,1.4,1.4,1.4h16.4c0.8,0,1.5-0.6,1.6-1.4l5.9-31.7c0.3-1.1-1.4-2-1.9-2.1
			c-4-1-19.8-4.9-21.5-5.4c-1.2-0.3-1.9,0.4-1.9,1.1V58.5z"/>
		<path class="st4" d="M213.2,25.5c-1.7,0-1.7,1.3-1.7,2v43.1h29.3c2.1,0,3-0.9,3-2.1v-20c0-0.5-0.1-0.9-0.2-1.4l-4-14.8
			c-0.1-0.4-0.3-0.8-0.6-1.2c-1.3-1.5-5.1-5.6-6.3-5.7C231.5,25.4,216.5,25.5,213.2,25.5z"/>
		<polygon class="st13" points="237.7,70.5 213.5,70.5 213.5,56.8 238.7,56.8 		"/>
		<path class="st9" d="M16.1,60.6c0,0.5-0.4,0.9-0.9,0.9H0v-7.5h16.1V60.6z"/>
		<path class="st9" d="M1.9,67.1C1.9,67.6,1.5,68,1,68H0.9C0.4,68,0,67.6,0,67.1V50.8h1.9V67.1z"/>
		<rect x="21.9" y="55.6" class="st14" width="55.6" height="10.7"/>
		
			<linearGradient id="SVGID_1_" gradientUnits="userSpaceOnUse" x1="-12574.1191" y1="-11826.627" x2="-12574.1191" y2="-11825.999" gradientTransform="matrix(-1 0 0 -1 -12341.709 -11772.8867)">
			<stop  offset="0" style="stop-color:#FFFFFF"/>
			<stop  offset="1" style="stop-color:#949494"/>
		</linearGradient>
		<polygon class="st15" points="241.2,53.7 241.2,53.1 223.6,53.1 223.6,53.7 		"/>
		<g>
			<path class="st16" d="M58.3,68c0,4.6-3.7,8.3-8.3,8.3c-4.6,0-8.3-3.7-8.3-8.3c0-4.6,3.7-8.3,8.3-8.3C54.6,59.6,58.3,63.4,58.3,68
				z"/>
			<path class="st4" d="M54,68c0,2.2-1.8,3.9-4,3.9c-2.2,0-4-1.8-4-3.9s1.8-3.9,4-3.9C52.2,64,54,65.8,54,68z"/>
			
				<linearGradient id="SVGID_00000108272358557185440990000007250973381082423941_" gradientUnits="userSpaceOnUse" x1="51.6639" y1="69.695" x2="48.5045" y2="66.3543">
				<stop  offset="0" style="stop-color:#E0E0E0"/>
				<stop  offset="1" style="stop-color:#949494"/>
			</linearGradient>
			<path style="display:none;fill:url(#SVGID_00000108272358557185440990000007250973381082423941_);" d="M52.2,68
				c0,1.2-1,2.2-2.2,2.2c-1.2,0-2.2-1-2.2-2.2c0-1.2,1-2.2,2.2-2.2C51.2,65.8,52.2,66.7,52.2,68z"/>
			<g class="st0">
				
					<linearGradient id="SVGID_00000029034537507988489460000014206169968632678834_" gradientUnits="userSpaceOnUse" x1="52.915" y1="70.7257" x2="47.39" y2="65.4424">
					<stop  offset="0" style="stop-color:#E0E0E0"/>
					<stop  offset="1" style="stop-color:#949494"/>
				</linearGradient>
				<path style="display:inline;fill:url(#SVGID_00000029034537507988489460000014206169968632678834_);" d="M50,71.5
					c-1.9,0-3.5-1.6-3.5-3.5c0-1.9,1.6-3.5,3.5-3.5c1.9,0,3.5,1.6,3.5,3.5C53.5,69.9,52,71.5,50,71.5z M50,64.7
					c-1.8,0-3.2,1.4-3.2,3.2c0,1.8,1.4,3.2,3.2,3.2c1.8,0,3.2-1.4,3.2-3.2C53.2,66.2,51.8,64.7,50,64.7z"/>
			</g>
			<path class="st19" d="M51.5,68c0,0.8-0.7,1.5-1.5,1.5c-0.8,0-1.5-0.7-1.5-1.5s0.7-1.5,1.5-1.5C50.8,66.5,51.5,67.1,51.5,68z"/>
		</g>
		<g>
			<path class="st16" d="M40.9,68c0,4.6-3.7,8.3-8.3,8.3c-4.6,0-8.3-3.7-8.3-8.3c0-4.6,3.7-8.3,8.3-8.3C37.2,59.6,40.9,63.4,40.9,68
				z"/>
			<path class="st4" d="M36.5,68c0,2.2-1.8,3.9-4,3.9c-2.2,0-4-1.8-4-3.9s1.8-3.9,4-3.9C34.8,64,36.5,65.8,36.5,68z"/>
			
				<linearGradient id="SVGID_00000016056006527376807450000016732401695489037495_" gradientUnits="userSpaceOnUse" x1="34.2185" y1="69.695" x2="31.0591" y2="66.3543">
				<stop  offset="0" style="stop-color:#E0E0E0"/>
				<stop  offset="1" style="stop-color:#949494"/>
			</linearGradient>
			<path style="display:none;fill:url(#SVGID_00000016056006527376807450000016732401695489037495_);" d="M34.8,68
				c0,1.2-1,2.2-2.2,2.2c-1.2,0-2.2-1-2.2-2.2c0-1.2,1-2.2,2.2-2.2C33.8,65.8,34.8,66.7,34.8,68z"/>
			<g class="st0">
				
					<linearGradient id="SVGID_00000102515341009400912450000002186100780812278680_" gradientUnits="userSpaceOnUse" x1="35.4695" y1="70.7257" x2="29.9445" y2="65.4424">
					<stop  offset="0" style="stop-color:#E0E0E0"/>
					<stop  offset="1" style="stop-color:#949494"/>
				</linearGradient>
				<path style="display:inline;fill:url(#SVGID_00000102515341009400912450000002186100780812278680_);" d="M32.6,71.5
					c-1.9,0-3.5-1.6-3.5-3.5c0-1.9,1.6-3.5,3.5-3.5c1.9,0,3.5,1.6,3.5,3.5C36.1,69.9,34.5,71.5,32.6,71.5z M32.6,64.7
					c-1.8,0-3.2,1.4-3.2,3.2c0,1.8,1.4,3.2,3.2,3.2c1.8,0,3.2-1.4,3.2-3.2C35.8,66.2,34.3,64.7,32.6,64.7z"/>
			</g>
			<path class="st19" d="M34,68c0,0.8-0.7,1.5-1.5,1.5c-0.8,0-1.5-0.7-1.5-1.5s0.7-1.5,1.5-1.5C33.4,66.5,34,67.1,34,68z"/>
		</g>
		<g>
			<path class="st16" d="M75.8,68c0,4.6-3.7,8.3-8.3,8.3c-4.6,0-8.3-3.7-8.3-8.3c0-4.6,3.7-8.3,8.3-8.3C72.1,59.6,75.8,63.4,75.8,68
				z"/>
			<path class="st4" d="M71.4,68c0,2.2-1.8,3.9-4,3.9c-2.2,0-4-1.8-4-3.9s1.8-3.9,4-3.9C69.7,64,71.4,65.8,71.4,68z"/>
			
				<linearGradient id="SVGID_00000074408881485245595160000006756302568695900317_" gradientUnits="userSpaceOnUse" x1="69.1095" y1="69.6949" x2="65.9502" y2="66.3543">
				<stop  offset="0" style="stop-color:#E0E0E0"/>
				<stop  offset="1" style="stop-color:#949494"/>
			</linearGradient>
			<path style="display:none;fill:url(#SVGID_00000074408881485245595160000006756302568695900317_);" d="M69.7,68
				c0,1.2-1,2.2-2.2,2.2c-1.2,0-2.2-1-2.2-2.2c0-1.2,1-2.2,2.2-2.2C68.7,65.8,69.7,66.7,69.7,68z"/>
			<g class="st0">
				
					<linearGradient id="SVGID_00000101798191323590719150000002104506827590917780_" gradientUnits="userSpaceOnUse" x1="70.3606" y1="70.7255" x2="64.8359" y2="65.4426">
					<stop  offset="0" style="stop-color:#E0E0E0"/>
					<stop  offset="1" style="stop-color:#949494"/>
				</linearGradient>
				<path style="display:inline;fill:url(#SVGID_00000101798191323590719150000002104506827590917780_);" d="M67.5,71.5
					c-1.9,0-3.5-1.6-3.5-3.5c0-1.9,1.6-3.5,3.5-3.5c1.9,0,3.5,1.6,3.5,3.5C71,69.9,69.4,71.5,67.5,71.5z M67.5,64.7
					c-1.8,0-3.2,1.4-3.2,3.2c0,1.8,1.4,3.2,3.2,3.2c1.8,0,3.2-1.4,3.2-3.2C70.7,66.2,69.2,64.7,67.5,64.7z"/>
			</g>
			<path class="st19" d="M68.9,68c0,0.8-0.7,1.5-1.5,1.5c-0.8,0-1.5-0.7-1.5-1.5s0.7-1.5,1.5-1.5C68.3,66.5,68.9,67.1,68.9,68z"/>
		</g>
		<path class="st9" d="M19.7,71.1c0,0.5,0.4,0.9,0.9,0.9H21c0.5,0,0.9-0.4,0.9-0.9V55.6h-2.2V71.1z"/>
		<path class="st9" d="M77.5,71.1c0,0.5,0.4,0.9,0.9,0.9h0.5c0.5,0,0.9-0.4,0.9-0.9V55.6h-2.2V71.1z"/>
		<path class="st24" d="M150.1,59.9c0,0.5-0.4,0.9-0.9,0.9H91.4c-0.5,0-0.9-0.4-0.9-0.9v-4.3h59.5V59.9z"/>
		<rect x="161.2" y="57.4" class="st14" width="22.4" height="2.4"/>
		<g>
			<path class="st25" d="M199.4,58.1H2.5C1.1,58.1,0,57,0,55.6V8.1c0-1.4,1.1-2.5,2.5-2.5h194.4c1.4,0,2.5,1.1,2.5,2.5V58.1z"/>
		</g>
		<polygon class="st3" points="243.8,54.8 243.8,53.9 211.4,53.9 211.4,54.8 		"/>
		<path class="st3" d="M239.5,32.3c0,0-0.1-0.4-0.2-0.5c0-0.1-0.2-0.4-0.2-0.4h-27.7l0,0.8H239.5z"/>
		<path class="st9" d="M160.9,59.8c-0.4,0-0.7,0.3-0.7,0.7v10h51.2l0-10.7H160.9z"/>
		<g>
			<path class="st16" d="M234.1,68.2c0,4.7-3.8,8.5-8.5,8.5c-4.7,0-8.5-3.8-8.5-8.5c0-4.7,3.8-8.5,8.5-8.5
				C230.3,59.6,234.1,63.5,234.1,68.2z"/>
			<path class="st4" d="M229.7,68.2c0,2.2-1.8,4.1-4.1,4.1c-2.3,0-4.1-1.8-4.1-4.1c0-2.2,1.8-4.1,4.1-4.1
				C227.8,64.1,229.7,65.9,229.7,68.2z"/>
			
				<linearGradient id="SVGID_00000045608400617514099350000013123798588421351571_" gradientUnits="userSpaceOnUse" x1="227.2697" y1="69.9792" x2="224.0214" y2="66.5446">
				<stop  offset="0" style="stop-color:#E0E0E0"/>
				<stop  offset="1" style="stop-color:#949494"/>
			</linearGradient>
			<path style="display:none;fill:url(#SVGID_00000045608400617514099350000013123798588421351571_);" d="M227.8,68.2
				c0,1.2-1,2.3-2.3,2.3c-1.3,0-2.3-1-2.3-2.3c0-1.2,1-2.3,2.3-2.3C226.8,65.9,227.8,66.9,227.8,68.2z"/>
			<g class="st0">
				
					<linearGradient id="SVGID_00000170984122864095514640000012998396618787882644_" gradientUnits="userSpaceOnUse" x1="228.5565" y1="71.0385" x2="222.8757" y2="65.6063">
					<stop  offset="0" style="stop-color:#E0E0E0"/>
					<stop  offset="1" style="stop-color:#949494"/>
				</linearGradient>
				<path style="display:inline;fill:url(#SVGID_00000170984122864095514640000012998396618787882644_);" d="M225.6,71.8
					c-2,0-3.6-1.6-3.6-3.6c0-2,1.6-3.6,3.6-3.6c2,0,3.6,1.6,3.6,3.6C229.2,70.2,227.6,71.8,225.6,71.8z M225.6,64.9
					c-1.8,0-3.3,1.5-3.3,3.3c0,1.8,1.5,3.3,3.3,3.3c1.8,0,3.3-1.5,3.3-3.3C228.9,66.4,227.4,64.9,225.6,64.9z"/>
			</g>
			<path class="st19" d="M227.1,68.2c0,0.8-0.7,1.5-1.5,1.5c-0.8,0-1.5-0.7-1.5-1.5c0-0.8,0.7-1.5,1.5-1.5
				C226.4,66.7,227.1,67.4,227.1,68.2z"/>
		</g>
		<path class="st9" d="M211.4,54.8v15.8h4.9c-0.2-0.8-0.3-1.5-0.3-2.4c0-5.3,4.3-9.5,9.5-9.5c5.3,0,9.5,4.3,9.5,9.5
			c0,0.8-0.1,1.6-0.3,2.4h6.9c1.1,0,2.1-0.9,2.1-2.1V54.8H211.4z"/>
		<g>
			<path class="st16" d="M179.8,68.2c0,4.7-3.8,8.5-8.5,8.5c-4.7,0-8.5-3.8-8.5-8.5c0-4.7,3.8-8.5,8.5-8.5
				C176,59.6,179.8,63.5,179.8,68.2z"/>
			<path class="st4" d="M175.4,68.2c0,2.2-1.8,4.1-4.1,4.1c-2.3,0-4.1-1.8-4.1-4.1c0-2.2,1.8-4.1,4.1-4.1
				C173.5,64.1,175.4,65.9,175.4,68.2z"/>
			
				<linearGradient id="SVGID_00000150794858171808596740000010898835886382935733_" gradientUnits="userSpaceOnUse" x1="172.9818" y1="69.9793" x2="169.7335" y2="66.5446">
				<stop  offset="0" style="stop-color:#E0E0E0"/>
				<stop  offset="1" style="stop-color:#949494"/>
			</linearGradient>
			<path style="display:none;fill:url(#SVGID_00000150794858171808596740000010898835886382935733_);" d="M173.6,68.2
				c0,1.2-1,2.3-2.3,2.3c-1.3,0-2.3-1-2.3-2.3c0-1.2,1-2.3,2.3-2.3C172.5,65.9,173.6,66.9,173.6,68.2z"/>
			<g class="st0">
				
					<linearGradient id="SVGID_00000097465594934021098920000012496428264913687461_" gradientUnits="userSpaceOnUse" x1="174.2678" y1="71.0383" x2="168.5875" y2="65.6065">
					<stop  offset="0" style="stop-color:#E0E0E0"/>
					<stop  offset="1" style="stop-color:#949494"/>
				</linearGradient>
				<path style="display:inline;fill:url(#SVGID_00000097465594934021098920000012496428264913687461_);" d="M171.3,71.8
					c-2,0-3.6-1.6-3.6-3.6c0-2,1.6-3.6,3.6-3.6c2,0,3.6,1.6,3.6,3.6C174.9,70.2,173.3,71.8,171.3,71.8z M171.3,64.9
					c-1.8,0-3.3,1.5-3.3,3.3c0,1.8,1.5,3.3,3.3,3.3c1.8,0,3.3-1.5,3.3-3.3C174.6,66.4,173.1,64.9,171.3,64.9z"/>
			</g>
			<path class="st19" d="M172.8,68.2c0,0.8-0.7,1.5-1.5,1.5c-0.8,0-1.5-0.7-1.5-1.5c0-0.8,0.7-1.5,1.5-1.5
				C172.1,66.7,172.8,67.4,172.8,68.2z"/>
		</g>
		<path class="st30" d="M225.8,34.5c-0.8,0-1.4,0.6-1.4,1.4v9.2c0,0.8,0.6,1.4,1.4,1.4h12.7c0.7,0,1.2-0.7,1.1-1.3l-2.1-9.3
			c-0.2-0.8-0.9-1.3-1.7-1.3H225.8z"/>
		<path class="st30" d="M226.2,34.8c-0.8,0-1.4,0.6-1.4,1.4v8.7c0,0.8,0.6,1.4,1.4,1.4h12c0.7,0,1.2-0.7,1.1-1.3l-1.9-8.7
			c-0.2-0.8-0.9-1.3-1.7-1.3H226.2z"/>
		<g>
			<path class="st31" d="M225.4,50.8c0,0.6,0.5,1,1,1h2.4c0.6,0,1-0.5,1-1c0-0.6-0.5-1-1-1h-2.4C225.8,49.7,225.4,50.2,225.4,50.8z"
				/>
			<path class="st3" d="M224.5,50.5c0,0.2,0.1,0.4,0.3,0.4h5.5c0.2,0,0.3-0.2,0.3-0.4l-0.1-0.6c0-0.2-0.2-0.4-0.5-0.4h-4.9
				c-0.2,0-0.4,0.2-0.5,0.4L224.5,50.5z"/>
		</g>
		<g>
			<path class="st9" d="M236,45.6c-0.4-0.4-0.4-1,0-1.4c0.4-0.4,1-0.4,1.4,0l2.8,2.8c0.4,0.4,0.4,1,0,1.4c-0.4,0.4-1,0.4-1.4,0
				L236,45.6z"/>
			<path class="st9" d="M238.7,46.4c0,0.4-0.3,0.7-0.7,0.7h-2.6c-0.4,0-0.7-0.3-0.7-0.7v-6.1c0-0.4,0.3-0.7,0.7-0.7h2.6
				c0.4,0,0.7,0.3,0.7,0.7V46.4z"/>
		</g>
		<g class="st32">
			
				<linearGradient id="SVGID_00000023973750932511284210000005502971313708200087_" gradientUnits="userSpaceOnUse" x1="222.9434" y1="43.4697" x2="242.0257" y2="43.4697">
				<stop  offset="0" style="stop-color:#F0F0F0"/>
				<stop  offset="1" style="stop-color:#C0C0C0"/>
			</linearGradient>
			<path style="fill:url(#SVGID_00000023973750932511284210000005502971313708200087_);" d="M242,53.7h-0.5v-5.4
				c0-0.9-0.1-1.8-0.3-2.6l-2.9-10.8c-0.2-0.7-0.8-1.1-1.5-1.1h-12.3c-0.6,0-1.1,0.5-1.1,1.1v18.8h-0.5V34.9c0-0.9,0.7-1.6,1.6-1.6
				h12.3c0.9,0,1.7,0.6,2,1.5l2.9,10.8c0.2,0.9,0.4,1.8,0.4,2.8V53.7z"/>
		</g>
		<path class="st34" d="M167.7,35.5c-0.4,0-0.8,0-1.1,0c-0.5,0-0.8-0.3-0.8-0.8c0-1.1,0-2.1,0-3.2c0-0.6,0.3-0.8,0.9-0.8
			c1.9,0,3.8,0,5.8,0c0.7,0,0.9,0.3,0.9,0.9c0,3.3,0,6.6,0,9.9c0,0.4,0.1,0.6,0.5,0.6c2.1,0,4.3,0,6.4,0c0.9,0,1.2-0.3,1.2-1.2
			c0-3.9,0-7.9,0-11.8c0-1-0.4-1.7-1.3-2.2c-2.7-1.5-5.5-3-8.2-4.6c-1-0.6-1.9-0.6-2.9,0c-2.7,1.5-5.4,3-8.1,4.5
			c-1,0.5-1.4,1.3-1.4,2.4c0,3.9,0,7.8,0,11.8c0,0.9,0.3,1.2,1.1,1.2c0.4,0,0.7,0,1.1,0c0.5,0,0.8,0.3,0.8,0.8c0,1.1,0,2.2,0,3.2
			c0,0.4-0.2,0.7-0.6,0.7c-1.5,0.1-3.1,0.1-4.5-0.8c-1.9-1.1-2.9-2.8-2.9-5c0-4.1,0-8.2,0-12.3c0-2.7,1.2-4.7,3.5-6c3-1.7,6-3.4,9-5
			c2.4-1.3,4.9-1.2,7.3,0.2c2.8,1.5,5.5,3.1,8.3,4.6c2.6,1.4,3.9,3.6,3.9,6.6c0,3.9,0,7.8,0,11.7c0.1,3.7-3,6.1-6,6
			c-3.9,0-7.8,0-11.8,0c-0.8,0-1.1-0.2-1.1-1c0-3.2,0-6.3,0-9.5C167.7,36.1,167.7,35.8,167.7,35.5z"/>
	</g>
	<g>
		<g>
			
				<rect x="14.4" y="39.3" transform="matrix(-1 -1.224647e-16 1.224647e-16 -1 74.2564 116.0319)" class="st3" width="45.4" height="37.4"/>
			
				<rect x="37.1" y="39.3" transform="matrix(-1 -1.224647e-16 1.224647e-16 -1 119.6587 116.0319)" class="st4" width="45.4" height="37.4"/>
			<polygon class="st5" points="14.5,67.2 21.6,67.2 21,65.2 21.6,63.8 14.5,63.8 			"/>
			<polygon class="st3" points="37.1,50.9 44.3,50.9 43.7,48.9 44.3,47.4 37.1,47.4 			"/>
			<polygon class="st5" points="37.1,47.4 29.9,47.4 30.6,49.4 29.9,50.9 37.1,50.9 			"/>
			<polygon class="st3" points="82.5,67.6 75.3,67.6 76,69.7 75.3,71.1 82.5,71.1 			"/>
			<rect x="66.5" y="41.8" class="st6" width="13.1" height="5.1"/>
			<path class="st35" d="M44.6,68.5c-0.1,0-0.2,0-0.3,0c-0.1,0-0.2-0.1-0.2-0.2c0-0.3,0-0.5,0-0.8c0-0.1,0.1-0.2,0.2-0.2
				c0.5,0,0.9,0,1.4,0c0.2,0,0.2,0.1,0.2,0.2c0,0.8,0,1.6,0,2.4c0,0.1,0,0.1,0.1,0.1c0.5,0,1.1,0,1.6,0c0.2,0,0.3-0.1,0.3-0.3
				c0-1,0-1.9,0-2.9c0-0.3-0.1-0.4-0.3-0.5c-0.7-0.4-1.4-0.7-2-1.1c-0.2-0.1-0.5-0.1-0.7,0c-0.7,0.4-1.3,0.7-2,1.1
				c-0.2,0.1-0.4,0.3-0.3,0.6c0,1,0,1.9,0,2.9c0,0.2,0.1,0.3,0.3,0.3c0.1,0,0.2,0,0.3,0c0.1,0,0.2,0.1,0.2,0.2c0,0.3,0,0.5,0,0.8
				c0,0.1-0.1,0.2-0.1,0.2c-0.4,0-0.8,0-1.1-0.2c-0.5-0.3-0.7-0.7-0.7-1.2c0-1,0-2,0-3c0-0.7,0.3-1.2,0.9-1.5
				c0.7-0.4,1.5-0.8,2.2-1.2c0.6-0.3,1.2-0.3,1.8,0c0.7,0.4,1.4,0.8,2,1.1c0.6,0.4,1,0.9,1,1.6c0,1,0,1.9,0,2.9
				c0,0.9-0.7,1.5-1.5,1.5c-1,0-1.9,0-2.9,0c-0.2,0-0.3-0.1-0.3-0.3c0-0.8,0-1.6,0-2.3C44.6,68.7,44.6,68.6,44.6,68.5z"/>
		</g>
		<g>
			<rect x="39.1" y="17.6" class="st36" width="26.3" height="21.7"/>
			<rect x="25.9" y="17.6" class="st37" width="26.3" height="21.7"/>
			<polygon class="st38" points="65.4,33.8 61.2,33.8 61.6,32.6 61.2,31.8 65.4,31.8 			"/>
			<polygon class="st36" points="52.2,24.3 48.1,24.3 48.4,23.1 48.1,22.3 52.2,22.3 			"/>
			<polygon class="st38" points="52.2,22.3 56.4,22.3 56,23.5 56.4,24.3 52.2,24.3 			"/>
			<polygon class="st36" points="25.9,34 30.1,34 29.7,35.2 30.1,36 25.9,36 			"/>
			<path class="st39" d="M44.6,33.2c-0.1,0-0.2,0-0.3,0c-0.1,0-0.2-0.1-0.2-0.2c0-0.3,0-0.5,0-0.8c0-0.1,0.1-0.2,0.2-0.2
				c0.5,0,0.9,0,1.4,0c0.2,0,0.2,0.1,0.2,0.2c0,0.8,0,1.6,0,2.4c0,0.1,0,0.1,0.1,0.1c0.5,0,1.1,0,1.6,0c0.2,0,0.3-0.1,0.3-0.3
				c0-1,0-1.9,0-2.9c0-0.3-0.1-0.4-0.3-0.5c-0.7-0.4-1.4-0.7-2-1.1c-0.2-0.1-0.5-0.1-0.7,0c-0.7,0.4-1.3,0.7-2,1.1
				c-0.2,0.1-0.4,0.3-0.3,0.6c0,1,0,1.9,0,2.9c0,0.2,0.1,0.3,0.3,0.3c0.1,0,0.2,0,0.3,0c0.1,0,0.2,0.1,0.2,0.2c0,0.3,0,0.5,0,0.8
				c0,0.1-0.1,0.2-0.1,0.2c-0.4,0-0.8,0-1.1-0.2c-0.5-0.3-0.7-0.7-0.7-1.2c0-1,0-2,0-3c0-0.7,0.3-1.2,0.9-1.5
				c0.7-0.4,1.5-0.8,2.2-1.2c0.6-0.3,1.2-0.3,1.8,0c0.7,0.4,1.4,0.8,2,1.1c0.6,0.4,1,0.9,1,1.6c0,1,0,1.9,0,2.9
				c0,0.9-0.7,1.5-1.5,1.5c-1,0-1.9,0-2.9,0c-0.2,0-0.3-0.1-0.3-0.3c0-0.8,0-1.6,0-2.3C44.6,33.3,44.6,33.2,44.6,33.2z"/>
		</g>
		<g>
			<rect x="62.4" y="50.9" class="st36" width="31.4" height="25.9"/>
			<rect x="46.8" y="50.9" class="st37" width="31.4" height="25.9"/>
			<polygon class="st38" points="93.8,70.2 88.8,70.2 89.2,68.8 88.8,67.8 93.8,67.8 			"/>
			<polygon class="st36" points="78.1,58.9 73.1,58.9 73.6,57.5 73.1,56.5 78.1,56.5 			"/>
			<polygon class="st38" points="78.1,56.5 83.1,56.5 82.6,57.9 83.1,58.9 78.1,58.9 			"/>
			<polygon class="st36" points="46.8,70.5 51.7,70.5 51.3,71.9 51.7,72.9 46.8,72.9 			"/>
			<path class="st39" d="M69.7,70.3c-0.1,0-0.2,0-0.3,0c-0.1,0-0.2-0.1-0.2-0.2c0-0.3,0-0.5,0-0.8c0-0.1,0.1-0.2,0.2-0.2
				c0.5,0,0.9,0,1.4,0c0.2,0,0.2,0.1,0.2,0.2c0,0.8,0,1.6,0,2.4c0,0.1,0,0.1,0.1,0.1c0.5,0,1.1,0,1.6,0c0.2,0,0.3-0.1,0.3-0.3
				c0-1,0-1.9,0-2.9c0-0.3-0.1-0.4-0.3-0.5c-0.7-0.4-1.4-0.7-2-1.1c-0.2-0.1-0.5-0.1-0.7,0c-0.7,0.4-1.3,0.7-2,1.1
				c-0.2,0.1-0.4,0.3-0.3,0.6c0,1,0,1.9,0,2.9c0,0.2,0.1,0.3,0.3,0.3c0.1,0,0.2,0,0.3,0c0.1,0,0.2,0.1,0.2,0.2c0,0.3,0,0.5,0,0.8
				c0,0.1-0.1,0.2-0.1,0.2c-0.4,0-0.8,0-1.1-0.2c-0.5-0.3-0.7-0.7-0.7-1.2c0-1,0-2,0-3c0-0.7,0.3-1.2,0.9-1.5
				c0.7-0.4,1.5-0.8,2.2-1.2c0.6-0.3,1.2-0.3,1.8,0c0.7,0.4,1.4,0.8,2,1.1c0.6,0.4,1,0.9,1,1.6c0,1,0,1.9,0,2.9
				c0,0.9-0.7,1.5-1.5,1.5c-1,0-1.9,0-2.9,0c-0.2,0-0.3-0.1-0.3-0.3c0-0.8,0-1.6,0-2.3C69.7,70.4,69.7,70.4,69.7,70.3z"/>
		</g>
	</g>
	<g class="st0">
		<g class="st2">
			
				<rect x="97.3" y="-8.6" transform="matrix(-1 -1.224647e-16 1.224647e-16 -1 211.8548 -3.0079)" class="st3" width="17.3" height="14.2"/>
			
				<rect x="105.9" y="-8.6" transform="matrix(-1 -1.224647e-16 1.224647e-16 -1 229.1184 -3.0079)" class="st4" width="17.3" height="14.2"/>
			<polygon class="st5" points="97.3,2 100,2 99.8,1.2 100,0.7 97.3,0.7 			"/>
			<polygon class="st3" points="105.9,-4.2 108.7,-4.2 108.4,-5 108.7,-5.5 105.9,-5.5 			"/>
			<polygon class="st5" points="105.9,-5.5 103.2,-5.5 103.4,-4.8 103.2,-4.2 105.9,-4.2 			"/>
			<polygon class="st3" points="123.2,2.2 120.5,2.2 120.7,2.9 120.5,3.5 123.2,3.5 			"/>
			<rect x="117.1" y="-7.7" class="st6" width="5" height="1.9"/>
		</g>
		<g class="st2">
			
				<rect x="84.3" y="-22.9" transform="matrix(-1 -1.224647e-16 1.224647e-16 -1 185.959 -31.5244)" class="st3" width="17.3" height="14.2"/>
			
				<rect x="93" y="-22.9" transform="matrix(-1 -1.224647e-16 1.224647e-16 -1 203.2226 -31.5244)" class="st4" width="17.3" height="14.2"/>
			<polygon class="st5" points="84.4,-12.3 87.1,-12.3 86.9,-13 87.1,-13.6 84.4,-13.6 			"/>
			<polygon class="st3" points="93,-18.5 95.7,-18.5 95.5,-19.2 95.7,-19.8 93,-19.8 			"/>
			<polygon class="st5" points="93,-19.8 90.2,-19.8 90.5,-19 90.2,-18.5 93,-18.5 			"/>
			<polygon class="st3" points="110.2,-12.1 107.5,-12.1 107.7,-11.3 107.5,-10.8 110.2,-10.8 			"/>
			<rect x="104.1" y="-21.9" class="st6" width="5" height="1.9"/>
		</g>
		<g class="st2">
			
				<rect x="69.6" y="-8.6" transform="matrix(-1 -1.224647e-16 1.224647e-16 -1 156.3643 -3.0079)" class="st3" width="17.3" height="14.2"/>
			
				<rect x="78.2" y="-8.6" transform="matrix(-1 -1.224647e-16 1.224647e-16 -1 173.6279 -3.0079)" class="st4" width="17.3" height="14.2"/>
			<polygon class="st5" points="69.6,2 72.3,2 72.1,1.2 72.3,0.7 69.6,0.7 			"/>
			<polygon class="st3" points="78.2,-4.2 80.9,-4.2 80.7,-5 80.9,-5.5 78.2,-5.5 			"/>
			<polygon class="st5" points="78.2,-5.5 75.4,-5.5 75.7,-4.8 75.4,-4.2 78.2,-4.2 			"/>
			<polygon class="st3" points="95.4,2.2 92.7,2.2 93,2.9 92.7,3.5 95.4,3.5 			"/>
			<rect x="89.3" y="-7.7" class="st6" width="5" height="1.9"/>
		</g>
		<path class="st7" d="M96.9-12.4c-0.1,0-0.1,0-0.1,0c-0.1,0-0.1,0-0.1-0.1c0-0.1,0-0.3,0-0.4c0-0.1,0-0.1,0.1-0.1
			c0.3,0,0.5,0,0.8,0c0.1,0,0.1,0,0.1,0.1c0,0.4,0,0.9,0,1.3c0,0.1,0,0.1,0.1,0.1c0.3,0,0.6,0,0.9,0c0.1,0,0.2,0,0.2-0.2
			c0-0.5,0-1,0-1.6c0-0.1-0.1-0.2-0.2-0.3c-0.4-0.2-0.7-0.4-1.1-0.6c-0.1-0.1-0.3-0.1-0.4,0c-0.4,0.2-0.7,0.4-1.1,0.6
			c-0.1,0.1-0.2,0.2-0.2,0.3c0,0.5,0,1,0,1.6c0,0.1,0,0.2,0.2,0.2c0,0,0.1,0,0.1,0c0.1,0,0.1,0,0.1,0.1c0,0.1,0,0.3,0,0.4
			c0,0.1,0,0.1-0.1,0.1c-0.2,0-0.4,0-0.6-0.1c-0.2-0.2-0.4-0.4-0.4-0.7c0-0.5,0-1.1,0-1.6c0-0.4,0.2-0.6,0.5-0.8
			c0.4-0.2,0.8-0.5,1.2-0.7c0.3-0.2,0.7-0.2,1,0c0.4,0.2,0.7,0.4,1.1,0.6c0.3,0.2,0.5,0.5,0.5,0.9c0,0.5,0,1,0,1.6
			c0,0.5-0.4,0.8-0.8,0.8c-0.5,0-1,0-1.6,0c-0.1,0-0.1,0-0.1-0.1c0-0.4,0-0.8,0-1.3C96.9-12.4,96.9-12.4,96.9-12.4z"/>
		<path class="st7" d="M82.7,1.8c-0.1,0-0.1,0-0.1,0c-0.1,0-0.1,0-0.1-0.1c0-0.1,0-0.3,0-0.4c0-0.1,0-0.1,0.1-0.1c0.3,0,0.5,0,0.8,0
			c0.1,0,0.1,0,0.1,0.1c0,0.4,0,0.9,0,1.3c0,0.1,0,0.1,0.1,0.1c0.3,0,0.6,0,0.9,0c0.1,0,0.2,0,0.2-0.2c0-0.5,0-1,0-1.6
			c0-0.1-0.1-0.2-0.2-0.3c-0.4-0.2-0.7-0.4-1.1-0.6C83.1,0,83,0,82.9,0.1c-0.4,0.2-0.7,0.4-1.1,0.6c-0.1,0.1-0.2,0.2-0.2,0.3
			c0,0.5,0,1,0,1.6c0,0.1,0,0.2,0.2,0.2c0,0,0.1,0,0.1,0c0.1,0,0.1,0,0.1,0.1c0,0.1,0,0.3,0,0.4c0,0.1,0,0.1-0.1,0.1
			c-0.2,0-0.4,0-0.6-0.1c-0.2-0.2-0.4-0.4-0.4-0.7c0-0.5,0-1.1,0-1.6c0-0.4,0.2-0.6,0.5-0.8c0.4-0.2,0.8-0.5,1.2-0.7
			c0.3-0.2,0.7-0.2,1,0c0.4,0.2,0.7,0.4,1.1,0.6C85,0.3,85.2,0.6,85.2,1c0,0.5,0,1,0,1.6c0,0.5-0.4,0.8-0.8,0.8c-0.5,0-1,0-1.6,0
			c-0.1,0-0.1,0-0.1-0.1c0-0.4,0-0.8,0-1.3C82.7,1.9,82.7,1.9,82.7,1.8z"/>
		<path class="st7" d="M110.4,1.8c-0.1,0-0.1,0-0.1,0c-0.1,0-0.1,0-0.1-0.1c0-0.1,0-0.3,0-0.4c0-0.1,0-0.1,0.1-0.1
			c0.3,0,0.5,0,0.8,0c0.1,0,0.1,0,0.1,0.1c0,0.4,0,0.9,0,1.3c0,0.1,0,0.1,0.1,0.1c0.3,0,0.6,0,0.9,0c0.1,0,0.2,0,0.2-0.2
			c0-0.5,0-1,0-1.6c0-0.1-0.1-0.2-0.2-0.3c-0.4-0.2-0.7-0.4-1.1-0.6c-0.1-0.1-0.3-0.1-0.4,0c-0.4,0.2-0.7,0.4-1.1,0.6
			c-0.1,0.1-0.2,0.2-0.2,0.3c0,0.5,0,1,0,1.6c0,0.1,0,0.2,0.2,0.2c0,0,0.1,0,0.1,0c0.1,0,0.1,0,0.1,0.1c0,0.1,0,0.3,0,0.4
			c0,0.1,0,0.1-0.1,0.1c-0.2,0-0.4,0-0.6-0.1c-0.2-0.2-0.4-0.4-0.4-0.7c0-0.5,0-1.1,0-1.6c0-0.4,0.2-0.6,0.5-0.8
			c0.4-0.2,0.8-0.5,1.2-0.7c0.3-0.2,0.7-0.2,1,0c0.4,0.2,0.7,0.4,1.1,0.6c0.3,0.2,0.5,0.5,0.5,0.9c0,0.5,0,1,0,1.6
			c0,0.5-0.4,0.8-0.8,0.8c-0.5,0-1,0-1.6,0c-0.1,0-0.1,0-0.1-0.1c0-0.4,0-0.8,0-1.3C110.4,1.9,110.4,1.9,110.4,1.8z"/>
	</g>
</g>
</svg>
