<?xml version="1.0" encoding="utf-8"?>
<!-- Generator: Adobe Illustrator 27.0.0, SVG Export Plug-In . SVG Version: 6.00 Build 0)  -->
<svg version="1.1" xmlns="http://www.w3.org/2000/svg" xmlns:xlink="http://www.w3.org/1999/xlink" x="0px" y="0px"
	 viewBox="0 0 510.1 114.8" style="enable-background:new 0 0 510.1 114.8;" xml:space="preserve">
<style type="text/css">
	.st0{display:none;}
	.st1{display:inline;fill:#FFFFFF;}
	.st2{fill:#3A3A3A;}
	.st3{fill:#CDCDCD;}
	.st4{fill:#A2A2A2;}
	.st5{fill:#2D2D2D;}
	.st6{fill:#282828;}
	.st7{display:none;fill:url(#SVGID_1_);}
	.st8{display:inline;fill:url(#SVGID_00000048481511028993505040000002333291077184072877_);}
	.st9{display:none;fill:url(#SVGID_00000060022111986181935320000010711373075567242931_);}
	.st10{display:inline;fill:url(#SVGID_00000036242127234120641620000011941818763426255273_);}
	.st11{display:none;fill:url(#SVGID_00000101802583543768307510000004233278109068292793_);}
	.st12{display:inline;fill:url(#SVGID_00000056395576209890207430000004419816084199867533_);}
	.st13{opacity:0.55;fill:#595959;}
	.st14{fill:#B9B9B9;}
	.st15{opacity:0.5;fill:url(#SVGID_00000080171560989877084770000011792594182557903511_);}
	.st16{opacity:0.55;}
	.st17{fill:url(#SVGID_00000067229877057379014850000002262184826665800608_);}
	.st18{fill:#444444;}
	.st19{opacity:0.35;fill:url(#SVGID_00000147205733407576272890000006515382377079878828_);}
	.st20{opacity:9.000000e-02;fill:#FFFFFF;}
	.st21{fill:#353535;}
	.st22{opacity:0.5;fill:url(#SVGID_00000056387706575604235900000016060917917765177012_);}
	.st23{display:none;fill:url(#SVGID_00000050660361237321899770000001464262336370497162_);}
	.st24{display:inline;fill:url(#SVGID_00000114774872851113712000000006959497232457300865_);}
	.st25{display:none;fill:url(#SVGID_00000068662196286222348310000006993729415361641151_);}
	.st26{display:inline;fill:url(#SVGID_00000087393554810249754190000011048250705004815540_);}
	.st27{display:none;fill:url(#SVGID_00000024692933605978898570000017670331542978955437_);}
	.st28{display:inline;fill:url(#SVGID_00000116951461135267656750000003280503439011584135_);}
	.st29{fill:#C6004C;}
	.st30{fill:#E7255E;}
	.st31{display:none;fill:url(#SVGID_00000004503769731399110770000007928940745970832521_);}
	.st32{display:inline;fill:url(#SVGID_00000160191135289998655720000000648428600817913478_);}
	.st33{display:none;fill:url(#SVGID_00000116942098535724850140000001496433200228105352_);}
	.st34{display:inline;fill:url(#SVGID_00000083802246493710522180000004568275360228123543_);}
	.st35{fill:url(#SVGID_00000183957496581026531310000002880363810550307200_);}
	.st36{opacity:0.2;}
	.st37{fill:#7C7C7C;}
	.st38{fill:#E4E4E4;}
	.st39{opacity:0.22;}
	.st40{fill:#5B5B5B;}
	.st41{fill:#717171;}
	.st42{fill:#424242;}
	.st43{opacity:0.22;fill:#FFFFFF;}
	.st44{display:inline;}
	.st45{display:inline;opacity:0.22;}
	.st46{fill:#F47458;}
	.st47{fill:#565656;}
	.st48{fill:#707070;}
	.st49{display:inline;fill:#282828;}
</style>
<g id="bg" class="st0">
	<rect x="-45.4" y="-302.8" class="st1" width="841.9" height="841.9"/>
</g>
<g id="graphics">
	<g>
		<path class="st2" d="M310.6,90.9c-0.7,0-1.2,0.6-1.2,1.2v2.1c0,0.7,0.6,1.2,1.2,1.2h72.3v3.3c0,0.7,0.6,1.2,1.2,1.2h100.7
			c0.7,0,1.2-0.6,1.2-1.2v-6.7c0-0.7-0.6-1.2-1.2-1.2H481l-12.3-5.6c-0.7-0.3-1.5-0.2-2.1,0.2l-7,5.3H310.6z"/>
		<path class="st2" d="M319.7,96.2c0-0.7,0.6-1.2,1.2-1.2h55.4c0.7,0,1.2,0.6,1.2,1.2v2.7c0,0.7-0.6,1.2-1.2,1.2H321
			c-0.7,0-1.2-0.6-1.2-1.2V96.2z"/>
		<path class="st3" d="M501.1,67.9c0-1.9-0.6-3.9-1.7-5.5l-14-20.6c-1.1-1.5-2.8-2.5-4.7-2.5h-22.1c-1.7,0-3,1.3-3,3v49.9
			c0,0.9,1.2,1.3,1.8,0.6c2.6-2.8,6.3-4.6,10.4-4.6c6,0,11.1,3.7,13.2,9c1.4,3.6,2.1,2.9,3.8,2.9h13.2c1.7,0,3-1.3,3-3V67.9z"/>
		<path class="st4" d="M484,46.3c-0.3-0.5-0.8-0.7-1.4-0.7h-22.2c-0.5,0-0.9,0.4-0.9,0.9v13.8c0,0.5,0.3,1,0.8,1.2l24.9,9
			c0.6,0.2,1.1,0.3,1.7,0.3c1.5,0,4.4,0,5.9,0c1,0,1.4-0.2,1.4-0.7c0-2.1,0-7,0-7c0-1.1-0.4-1.6-0.7-2
			C491.4,57.8,486.1,49.4,484,46.3z"/>
		<path class="st2" d="M451.1,90.9h3.9V42.6c0-0.7-0.6-1.2-1.2-1.2h-1.4c-0.7,0-1.2,0.6-1.2,1.2V90.9z"/>
		<g>
			<path class="st5" d="M449.1,90.9H289.9c-2,0-3.6-1.6-3.6-3.6v-69c0-2,1.6-3.6,3.6-3.6h155.7c2,0,3.6,1.6,3.6,3.6V90.9z"/>
		</g>
		<g>
			<path class="st6" d="M480.1,102.7c0,6.7-5.4,12.1-12.1,12.1c-6.7,0-12.1-5.4-12.1-12.1c0-6.7,5.4-12.1,12.1-12.1
				C474.7,90.6,480.1,96,480.1,102.7z"/>
			<path class="st3" d="M473.8,102.7c0,3.2-2.6,5.7-5.8,5.7c-3.2,0-5.8-2.6-5.8-5.7c0-3.2,2.6-5.7,5.8-5.7
				C471.2,97,473.8,99.5,473.8,102.7z"/>
			<linearGradient id="SVGID_1_" gradientUnits="userSpaceOnUse" x1="470.4006" y1="105.2334" x2="465.8142" y2="100.3838">
				<stop  offset="0" style="stop-color:#E0E0E0"/>
				<stop  offset="1" style="stop-color:#949494"/>
			</linearGradient>
			<path class="st7" d="M471.2,102.7c0,1.8-1.4,3.2-3.2,3.2c-1.8,0-3.2-1.4-3.2-3.2c0-1.8,1.4-3.2,3.2-3.2
				C469.8,99.5,471.2,100.9,471.2,102.7z"/>
			<g class="st0">
				
					<linearGradient id="SVGID_00000033369415311498938540000015112304101330227584_" gradientUnits="userSpaceOnUse" x1="472.2171" y1="106.731" x2="464.1963" y2="99.0612">
					<stop  offset="0" style="stop-color:#E0E0E0"/>
					<stop  offset="1" style="stop-color:#949494"/>
				</linearGradient>
				<path style="display:inline;fill:url(#SVGID_00000033369415311498938540000015112304101330227584_);" d="M468,107.8
					c-2.8,0-5.1-2.3-5.1-5.1c0-2.8,2.3-5.1,5.1-5.1c2.8,0,5.1,2.3,5.1,5.1C473.1,105.5,470.8,107.8,468,107.8z M468,98
					c-2.6,0-4.7,2.1-4.7,4.7c0,2.6,2.1,4.7,4.7,4.7c2.6,0,4.7-2.1,4.7-4.7C472.7,100.1,470.6,98,468,98z"/>
			</g>
			<path class="st5" d="M470.1,102.7c0,1.2-1,2.1-2.1,2.1c-1.2,0-2.1-0.9-2.1-2.1c0-1.2,1-2.1,2.1-2.1
				C469.2,100.6,470.1,101.5,470.1,102.7z"/>
		</g>
		<g>
			<path class="st6" d="M376,102.7c0,6.7-5.4,12.1-12.1,12.1c-6.7,0-12.1-5.4-12.1-12.1c0-6.7,5.4-12.1,12.1-12.1
				C370.6,90.6,376,96,376,102.7z"/>
			<path class="st3" d="M369.7,102.7c0,3.2-2.6,5.7-5.8,5.7c-3.2,0-5.8-2.6-5.8-5.7c0-3.2,2.6-5.7,5.8-5.7
				C367.1,97,369.7,99.5,369.7,102.7z"/>
			
				<linearGradient id="SVGID_00000138568862359016707590000002543036257302774674_" gradientUnits="userSpaceOnUse" x1="366.3469" y1="105.2334" x2="361.7605" y2="100.3838">
				<stop  offset="0" style="stop-color:#E0E0E0"/>
				<stop  offset="1" style="stop-color:#949494"/>
			</linearGradient>
			<path style="display:none;fill:url(#SVGID_00000138568862359016707590000002543036257302774674_);" d="M367.2,102.7
				c0,1.8-1.4,3.2-3.2,3.2c-1.8,0-3.2-1.4-3.2-3.2c0-1.8,1.4-3.2,3.2-3.2C365.7,99.5,367.2,100.9,367.2,102.7z"/>
			<g class="st0">
				
					<linearGradient id="SVGID_00000131345067017091885890000010629858735676904869_" gradientUnits="userSpaceOnUse" x1="368.1632" y1="106.731" x2="360.1423" y2="99.0611">
					<stop  offset="0" style="stop-color:#E0E0E0"/>
					<stop  offset="1" style="stop-color:#949494"/>
				</linearGradient>
				<path style="display:inline;fill:url(#SVGID_00000131345067017091885890000010629858735676904869_);" d="M364,107.8
					c-2.8,0-5.1-2.3-5.1-5.1c0-2.8,2.3-5.1,5.1-5.1c2.8,0,5.1,2.3,5.1,5.1C369.1,105.5,366.8,107.8,364,107.8z M364,98
					c-2.6,0-4.7,2.1-4.7,4.7c0,2.6,2.1,4.7,4.7,4.7c2.6,0,4.7-2.1,4.7-4.7C368.6,100.1,366.5,98,364,98z"/>
			</g>
			<path class="st5" d="M366.1,102.7c0,1.2-1,2.1-2.1,2.1c-1.2,0-2.1-0.9-2.1-2.1c0-1.2,1-2.1,2.1-2.1
				C365.1,100.6,366.1,101.5,366.1,102.7z"/>
		</g>
		<g>
			<path class="st6" d="M348.8,102.7c0,6.7-5.4,12.1-12.1,12.1c-6.7,0-12.1-5.4-12.1-12.1c0-6.7,5.4-12.1,12.1-12.1
				C343.4,90.6,348.8,96,348.8,102.7z"/>
			<path class="st3" d="M342.5,102.7c0,3.2-2.6,5.7-5.8,5.7s-5.8-2.6-5.8-5.7c0-3.2,2.6-5.7,5.8-5.7S342.5,99.5,342.5,102.7z"/>
			
				<linearGradient id="SVGID_00000066513721500144992130000002778705962607926698_" gradientUnits="userSpaceOnUse" x1="339.1334" y1="105.2335" x2="334.5468" y2="100.3836">
				<stop  offset="0" style="stop-color:#E0E0E0"/>
				<stop  offset="1" style="stop-color:#949494"/>
			</linearGradient>
			<path style="display:none;fill:url(#SVGID_00000066513721500144992130000002778705962607926698_);" d="M339.9,102.7
				c0,1.8-1.4,3.2-3.2,3.2s-3.2-1.4-3.2-3.2c0-1.8,1.4-3.2,3.2-3.2S339.9,100.9,339.9,102.7z"/>
			<g class="st0">
				
					<linearGradient id="SVGID_00000135657558421873187320000008271742522492705725_" gradientUnits="userSpaceOnUse" x1="340.9494" y1="106.7312" x2="332.9281" y2="99.061">
					<stop  offset="0" style="stop-color:#E0E0E0"/>
					<stop  offset="1" style="stop-color:#949494"/>
				</linearGradient>
				<path style="display:inline;fill:url(#SVGID_00000135657558421873187320000008271742522492705725_);" d="M336.7,107.8
					c-2.8,0-5.1-2.3-5.1-5.1c0-2.8,2.3-5.1,5.1-5.1c2.8,0,5.1,2.3,5.1,5.1C341.9,105.5,339.6,107.8,336.7,107.8z M336.7,98
					c-2.6,0-4.7,2.1-4.7,4.7c0,2.6,2.1,4.7,4.7,4.7c2.6,0,4.7-2.1,4.7-4.7C341.4,100.1,339.3,98,336.7,98z"/>
			</g>
			<path class="st5" d="M338.9,102.7c0,1.2-1,2.1-2.1,2.1c-1.2,0-2.1-0.9-2.1-2.1c0-1.2,1-2.1,2.1-2.1
				C337.9,100.6,338.9,101.5,338.9,102.7z"/>
		</g>
		<path class="st4" d="M483.8,46.7c-0.3-0.4-0.8-0.7-1.3-0.7h-21.5c-0.5,0-0.9,0.4-0.9,0.9v13.3c0,0.5,0.3,1,0.8,1.2l24.1,8.7
			c0.5,0.2,1.1,0.3,1.7,0.3c1.4,0,4.3,0,5.7,0c0.5,0,1.3,0.2,1.3-0.7l0.1-6.9c0-0.6-0.2-1.1-0.5-1.6
			C491.6,58.5,485.5,49.2,483.8,46.7z"/>
		<g>
			<path class="st13" d="M461.1,69.9c0,0.8,0.7,1.5,1.5,1.5h3.5c0.8,0,1.5-0.7,1.5-1.5c0-0.8-0.7-1.5-1.5-1.5h-3.5
				C461.8,68.4,461.1,69.1,461.1,69.9z"/>
			<path class="st14" d="M459.9,69.5c-0.1,0.3,0.2,0.5,0.5,0.5h8c0.3,0,0.5-0.3,0.5-0.5l-0.2-0.9c-0.1-0.3-0.3-0.5-0.7-0.5h-7.2
				c-0.3,0-0.6,0.2-0.7,0.5L459.9,69.5z"/>
		</g>
		
			<linearGradient id="SVGID_00000023249995612170559980000012019822215539189174_" gradientUnits="userSpaceOnUse" x1="-11660.5371" y1="-12130.8213" x2="-11660.5371" y2="-12135.125" gradientTransform="matrix(-1 0 0 -1 -11189.6973 -12091.0322)">
			<stop  offset="0" style="stop-color:#FFFFFF"/>
			<stop  offset="1" style="stop-color:#000000"/>
		</linearGradient>
		<path style="opacity:0.5;fill:url(#SVGID_00000023249995612170559980000012019822215539189174_);" d="M484.8,43.5
			c-0.4-1.8-2.5-3.1-4.2-3.1H460c-1.7,0-3.1,1.4-3.1,3.1l0,0H484.8z"/>
		<g class="st16">
			
				<linearGradient id="SVGID_00000103235300000257819430000015384879658524335256_" gradientUnits="userSpaceOnUse" x1="457.6153" y1="70.5299" x2="499.1195" y2="70.5299">
				<stop  offset="0" style="stop-color:#F0F0F0"/>
				<stop  offset="1" style="stop-color:#C0C0C0"/>
			</linearGradient>
			<path style="fill:url(#SVGID_00000103235300000257819430000015384879658524335256_);" d="M485.5,97.1c0,0-1.1-3.5-4.3-6.9
				c-3-3.1-8.4-6.8-17.6-6.8h-4.5c-0.8,0-1.5-0.7-1.5-1.5V45.5c0-0.8,0.7-1.5,1.5-1.5h24.6c0.8,0,1.5,0.4,2,1.1l12.7,19.2
				c0.4,0.6,0.6,1.4,0.6,2.1v30.6h-1.1V66.3c0-0.5-0.2-1.1-0.5-1.5l-12.7-19.2c-0.2-0.4-0.7-0.6-1.1-0.6h-24.6
				c-0.3,0-0.5,0.2-0.5,0.5v36.4c0,0.3,0.2,0.5,0.4,0.5h4.5c9.6,0,15.3,3.9,18.4,7.2c3.4,3.6,4.5,7.1,4.5,7.3L485.5,97.1z"/>
		</g>
		<path class="st18" d="M502.7,100.6c0,0.6-0.4,1-1,1h-18.8c-0.6,0-1-0.4-1-1l-0.3-2.3l9.9,0c0.6,0,1.1-0.4,1.1-1l1.1-7
			c0-0.6,0.4-1,1-1h8.5c0.5,0,1,0.4,1,1L502.7,100.6z"/>
		
			<linearGradient id="SVGID_00000149368258756243324230000014483922469424425643_" gradientUnits="userSpaceOnUse" x1="-11679.1895" y1="-12186.3467" x2="-11679.1895" y2="-12189.4121" gradientTransform="matrix(-1 0 0 -1 -11189.6973 -12091.0322)">
			<stop  offset="0" style="stop-color:#FFFFFF"/>
			<stop  offset="1" style="stop-color:#000000"/>
		</linearGradient>
		
			<rect x="487.3" y="94.7" style="opacity:0.35;fill:url(#SVGID_00000149368258756243324230000014483922469424425643_);" width="4.3" height="2.2"/>
		<g>
			<path class="st18" d="M489,69.8c-0.6-0.6-0.6-1.5,0-2c0.6-0.6,1.5-0.6,2,0l4.1,4.1c0.6,0.6,0.6,1.5,0,2c-0.6,0.6-1.5,0.6-2,0
				L489,69.8z"/>
			<path class="st18" d="M492.8,71c0,0.6-0.5,1-1,1h-3.8c-0.6,0-1-0.5-1-1v-8.9c0-0.6,0.5-1,1-1h3.8c0.6,0,1,0.5,1,1V71z"/>
			<path class="st18" d="M492.6,62.5c0,0.5-0.4,1-1,1h-3.5c-0.5,0-1-0.4-1-1v0c0-0.5,0.4-1,1-1h3.5
				C492.1,61.5,492.6,61.9,492.6,62.5L492.6,62.5z"/>
		</g>
		<path class="st20" d="M402.9,59.1c-0.7,0-1.2,0-1.8,0c-0.9,0-1.4-0.4-1.4-1.3c0-1.7,0-3.5,0-5.2c0-1,0.5-1.4,1.5-1.4
			c3.2,0,6.3,0,9.5,0c1.1,0,1.5,0.4,1.5,1.5c0,5.4,0,10.9,0,16.3c0,0.7,0.2,0.9,0.9,0.9c3.5,0,7,0,10.6,0c1.5,0,2-0.5,2-2
			c0-6.5,0-12.9,0-19.4c0-1.7-0.7-2.9-2.2-3.7c-4.5-2.5-9-5-13.5-7.5c-1.7-0.9-3.1-0.9-4.8,0c-4.4,2.5-8.9,5-13.3,7.4
			c-1.6,0.9-2.3,2.1-2.3,3.9c0,6.4,0,12.9,0,19.3c0,1.4,0.5,1.9,1.9,1.9c0.6,0,1.2,0,1.7,0c0.8,0,1.2,0.5,1.2,1.3c0,1.8,0,3.5,0,5.3
			c0,0.7-0.3,1.2-1,1.2c-2.5,0.1-5.1,0.1-7.3-1.3c-3.1-1.9-4.7-4.5-4.8-8.2c0-6.7,0-13.5,0-20.2c0-4.4,2-7.7,5.8-9.9
			c4.9-2.8,9.8-5.6,14.8-8.2c4-2.1,8.1-1.9,12.1,0.3c4.5,2.5,9.1,5,13.6,7.6c4.2,2.4,6.4,5.9,6.4,10.8c0,6.4-0.1,12.8,0,19.3
			c0.1,6-4.9,10-9.9,9.9c-6.4-0.1-12.9,0-19.3,0c-1.4,0-1.7-0.3-1.7-1.7c0-5.2,0-10.4,0-15.5C402.9,60.1,402.9,59.6,402.9,59.1z"/>
	</g>
	<g>
		<path class="st14" d="M334.2,85.3c0,1.2,1,2.2,2.2,2.2h26.5c1.3,0,2.4-0.9,2.6-2.2l9.5-51.1c0.4-1.8-2.2-3.2-3.1-3.4
			c-6.4-1.6-31.9-8-34.7-8.7c-2-0.5-3,0.6-3,1.8V85.3z"/>
		<path class="st3" d="M344,32c-2.8,0-2.8,2.1-2.8,3.3v69.5h47.2c3.4,0,4.9-1.5,4.9-3.3V69.1c0-0.7-0.1-1.5-0.3-2.2l-6.5-23.8
			c-0.2-0.7-0.5-1.4-1-1.9c-2.1-2.4-8.3-9.1-10.2-9.2C373.6,31.9,349.3,32,344,32z"/>
		<polygon class="st21" points="383.6,104.8 344.5,104.8 344.5,82.6 385.1,82.6 		"/>
		<path class="st18" d="M25.9,88.7c0,0.8-0.6,1.4-1.4,1.4H0V78h25.9V88.7z"/>
		<path class="st18" d="M3,99.2c0,0.8-0.6,1.4-1.4,1.4H1.4c-0.8,0-1.4-0.6-1.4-1.4V73h3V99.2z"/>
		<rect x="35.3" y="80.7" class="st2" width="89.7" height="17.3"/>
		
			<linearGradient id="SVGID_00000174594964241103872250000012081551153994781077_" gradientUnits="userSpaceOnUse" x1="-11633.168" y1="-11773.4004" x2="-11633.168" y2="-11772.3877" gradientTransform="matrix(-1 0 0 -1 -11258.1172 -11695.7373)">
			<stop  offset="0" style="stop-color:#FFFFFF"/>
			<stop  offset="1" style="stop-color:#949494"/>
		</linearGradient>
		<polygon style="opacity:0.5;fill:url(#SVGID_00000174594964241103872250000012081551153994781077_);" points="389.3,77.6 
			389.3,76.6 360.8,76.6 360.8,77.6 		"/>
		<g>
			<path class="st6" d="M94.1,100.6c0,7.4-6,13.4-13.4,13.4c-7.4,0-13.4-6-13.4-13.4c0-7.4,6-13.4,13.4-13.4
				C88.1,87.2,94.1,93.2,94.1,100.6z"/>
			<path class="st3" d="M87.1,100.6c0,3.5-2.9,6.4-6.4,6.4c-3.5,0-6.4-2.9-6.4-6.4c0-3.5,2.9-6.4,6.4-6.4
				C84.2,94.2,87.1,97.1,87.1,100.6z"/>
			
				<linearGradient id="SVGID_00000070102975206143623170000007488871765019451275_" gradientUnits="userSpaceOnUse" x1="83.3724" y1="103.4112" x2="78.2739" y2="98.0202">
				<stop  offset="0" style="stop-color:#E0E0E0"/>
				<stop  offset="1" style="stop-color:#949494"/>
			</linearGradient>
			<path style="display:none;fill:url(#SVGID_00000070102975206143623170000007488871765019451275_);" d="M84.3,100.6
				c0,2-1.6,3.5-3.6,3.5s-3.6-1.6-3.6-3.5c0-2,1.6-3.5,3.6-3.5S84.3,98.6,84.3,100.6z"/>
			<g class="st0">
				
					<linearGradient id="SVGID_00000027586522345729197280000004268405063924349328_" gradientUnits="userSpaceOnUse" x1="85.3914" y1="105.0745" x2="76.4754" y2="96.5486">
					<stop  offset="0" style="stop-color:#E0E0E0"/>
					<stop  offset="1" style="stop-color:#949494"/>
				</linearGradient>
				<path style="display:inline;fill:url(#SVGID_00000027586522345729197280000004268405063924349328_);" d="M80.7,106.3
					c-3.1,0-5.7-2.5-5.7-5.7c0-3.1,2.6-5.7,5.7-5.7c3.1,0,5.7,2.5,5.7,5.7C86.4,103.7,83.9,106.3,80.7,106.3z M80.7,95.4
					c-2.9,0-5.2,2.3-5.2,5.2c0,2.9,2.3,5.2,5.2,5.2c2.9,0,5.2-2.3,5.2-5.2C85.9,97.7,83.6,95.4,80.7,95.4z"/>
			</g>
			<path class="st5" d="M83.1,100.6c0,1.3-1.1,2.4-2.4,2.4c-1.3,0-2.4-1.1-2.4-2.4c0-1.3,1.1-2.4,2.4-2.4
				C82,98.2,83.1,99.3,83.1,100.6z"/>
		</g>
		<g>
			<path class="st6" d="M66,100.6c0,7.4-6,13.4-13.4,13.4c-7.4,0-13.4-6-13.4-13.4c0-7.4,6-13.4,13.4-13.4C60,87.2,66,93.2,66,100.6
				z"/>
			<path class="st3" d="M59,100.6c0,3.5-2.9,6.4-6.4,6.4c-3.5,0-6.4-2.9-6.4-6.4c0-3.5,2.9-6.4,6.4-6.4C56.1,94.2,59,97.1,59,100.6z
				"/>
			
				<linearGradient id="SVGID_00000001642279770210414530000013708421852041916831_" gradientUnits="userSpaceOnUse" x1="55.22" y1="103.4112" x2="50.1215" y2="98.0201">
				<stop  offset="0" style="stop-color:#E0E0E0"/>
				<stop  offset="1" style="stop-color:#949494"/>
			</linearGradient>
			<path style="display:none;fill:url(#SVGID_00000001642279770210414530000013708421852041916831_);" d="M56.1,100.6
				c0,2-1.6,3.5-3.6,3.5c-2,0-3.6-1.6-3.6-3.5c0-2,1.6-3.5,3.6-3.5C54.5,97.1,56.1,98.6,56.1,100.6z"/>
			<g class="st0">
				
					<linearGradient id="SVGID_00000035504093443093501500000013609017424505877638_" gradientUnits="userSpaceOnUse" x1="57.2387" y1="105.0745" x2="48.3228" y2="96.5487">
					<stop  offset="0" style="stop-color:#E0E0E0"/>
					<stop  offset="1" style="stop-color:#949494"/>
				</linearGradient>
				<path style="display:inline;fill:url(#SVGID_00000035504093443093501500000013609017424505877638_);" d="M52.6,106.3
					c-3.1,0-5.7-2.5-5.7-5.7c0-3.1,2.6-5.7,5.7-5.7c3.1,0,5.7,2.5,5.7,5.7C58.3,103.7,55.7,106.3,52.6,106.3z M52.6,95.4
					c-2.9,0-5.2,2.3-5.2,5.2c0,2.9,2.3,5.2,5.2,5.2c2.9,0,5.2-2.3,5.2-5.2C57.8,97.7,55.4,95.4,52.6,95.4z"/>
			</g>
			<path class="st5" d="M54.9,100.6c0,1.3-1.1,2.4-2.4,2.4c-1.3,0-2.4-1.1-2.4-2.4c0-1.3,1.1-2.4,2.4-2.4
				C53.9,98.2,54.9,99.3,54.9,100.6z"/>
		</g>
		<g>
			<path class="st6" d="M122.3,100.6c0,7.4-6,13.4-13.4,13.4c-7.4,0-13.4-6-13.4-13.4c0-7.4,6-13.4,13.4-13.4
				C116.3,87.2,122.3,93.2,122.3,100.6z"/>
			<path class="st3" d="M115.3,100.6c0,3.5-2.9,6.4-6.4,6.4c-3.5,0-6.4-2.9-6.4-6.4c0-3.5,2.9-6.4,6.4-6.4
				C112.4,94.2,115.3,97.1,115.3,100.6z"/>
			
				<linearGradient id="SVGID_00000158016985716867964400000007893235048303236500_" gradientUnits="userSpaceOnUse" x1="111.5252" y1="103.4111" x2="106.4268" y2="98.0202">
				<stop  offset="0" style="stop-color:#E0E0E0"/>
				<stop  offset="1" style="stop-color:#949494"/>
			</linearGradient>
			<path style="display:none;fill:url(#SVGID_00000158016985716867964400000007893235048303236500_);" d="M112.4,100.6
				c0,2-1.6,3.5-3.6,3.5c-2,0-3.6-1.6-3.6-3.5c0-2,1.6-3.5,3.6-3.5C110.8,97.1,112.4,98.6,112.4,100.6z"/>
			<g class="st0">
				
					<linearGradient id="SVGID_00000089572452047559079100000002927931116438017943_" gradientUnits="userSpaceOnUse" x1="113.5442" y1="105.0742" x2="104.6288" y2="96.5489">
					<stop  offset="0" style="stop-color:#E0E0E0"/>
					<stop  offset="1" style="stop-color:#949494"/>
				</linearGradient>
				<path style="display:inline;fill:url(#SVGID_00000089572452047559079100000002927931116438017943_);" d="M108.9,106.3
					c-3.1,0-5.7-2.5-5.7-5.7c0-3.1,2.6-5.7,5.7-5.7c3.1,0,5.7,2.5,5.7,5.7C114.6,103.7,112,106.3,108.9,106.3z M108.9,95.4
					c-2.9,0-5.2,2.3-5.2,5.2c0,2.9,2.3,5.2,5.2,5.2c2.9,0,5.2-2.3,5.2-5.2C114.1,97.7,111.7,95.4,108.9,95.4z"/>
			</g>
			<path class="st5" d="M111.2,100.6c0,1.3-1.1,2.4-2.4,2.4c-1.3,0-2.4-1.1-2.4-2.4c0-1.3,1.1-2.4,2.4-2.4
				C110.2,98.2,111.2,99.3,111.2,100.6z"/>
		</g>
		<path class="st18" d="M31.8,105.6c0,0.8,0.6,1.4,1.4,1.4h0.8c0.8,0,1.4-0.6,1.4-1.4V80.7h-3.5V105.6z"/>
		<path class="st18" d="M125,105.6c0,0.8,0.6,1.4,1.4,1.4h0.8c0.8,0,1.4-0.6,1.4-1.4V80.7H125V105.6z"/>
		<path class="st29" d="M242.2,87.7c0,0.8-0.6,1.4-1.4,1.4h-93.3c-0.8,0-1.4-0.6-1.4-1.4v-6.9h96.1V87.7z"/>
		<rect x="260.2" y="83.6" class="st2" width="36.2" height="3.9"/>
		<g>
			<path class="st30" d="M321.8,84.7H4c-2.2,0-4-1.8-4-4V4c0-2.2,1.8-4,4-4h313.8c2.2,0,4,1.8,4,4V84.7z"/>
		</g>
		<polygon class="st14" points="393.4,79.3 393.4,78 341.2,78 341.2,79.3 		"/>
		<path class="st14" d="M386.5,43c0,0-0.2-0.6-0.3-0.8c-0.1-0.2-0.4-0.6-0.4-0.6h-44.6l0,1.4H386.5z"/>
		<path class="st18" d="M259.7,87.5c-0.6,0-1.1,0.5-1.1,1.1v16.2h82.6l0-17.3H259.7z"/>
		<g>
			<path class="st6" d="M377.8,101c0,7.6-6.2,13.8-13.8,13.8c-7.6,0-13.8-6.2-13.8-13.8c0-7.6,6.2-13.8,13.8-13.8
				C371.6,87.2,377.8,93.4,377.8,101z"/>
			<path class="st3" d="M370.6,101c0,3.6-2.9,6.6-6.6,6.6c-3.6,0-6.6-2.9-6.6-6.6c0-3.6,2.9-6.6,6.6-6.6
				C367.7,94.4,370.6,97.4,370.6,101z"/>
			
				<linearGradient id="SVGID_00000116200704495103783750000012861136077754058431_" gradientUnits="userSpaceOnUse" x1="366.7557" y1="103.8699" x2="361.5138" y2="98.3273">
				<stop  offset="0" style="stop-color:#E0E0E0"/>
				<stop  offset="1" style="stop-color:#949494"/>
			</linearGradient>
			<path style="display:none;fill:url(#SVGID_00000116200704495103783750000012861136077754058431_);" d="M367.7,101
				c0,2-1.6,3.6-3.7,3.6c-2,0-3.7-1.6-3.7-3.6c0-2,1.6-3.6,3.7-3.6C366,97.3,367.7,99,367.7,101z"/>
			<g class="st0">
				
					<linearGradient id="SVGID_00000178885387270590012860000004115743168682440864_" gradientUnits="userSpaceOnUse" x1="368.8323" y1="105.5793" x2="359.665" y2="96.8132">
					<stop  offset="0" style="stop-color:#E0E0E0"/>
					<stop  offset="1" style="stop-color:#949494"/>
				</linearGradient>
				<path style="display:inline;fill:url(#SVGID_00000178885387270590012860000004115743168682440864_);" d="M364,106.8
					c-3.2,0-5.9-2.6-5.9-5.8c0-3.2,2.6-5.8,5.9-5.8c3.2,0,5.9,2.6,5.9,5.8C369.9,104.2,367.3,106.8,364,106.8z M364,95.7
					c-2.9,0-5.3,2.4-5.3,5.3c0,2.9,2.4,5.3,5.3,5.3c2.9,0,5.3-2.4,5.3-5.3C369.4,98,367,95.7,364,95.7z"/>
			</g>
			<path class="st5" d="M366.5,101c0,1.3-1.1,2.4-2.4,2.4s-2.4-1.1-2.4-2.4c0-1.3,1.1-2.4,2.4-2.4S366.5,99.6,366.5,101z"/>
		</g>
		<path class="st18" d="M341.2,79.3v25.4h7.9c-0.3-1.2-0.5-2.5-0.5-3.8c0-8.5,6.9-15.4,15.4-15.4c8.5,0,15.4,6.9,15.4,15.4
			c0,1.3-0.2,2.6-0.5,3.8h11.2c1.8,0,3.3-1.5,3.3-3.3V79.3H341.2z"/>
		<g>
			<path class="st6" d="M290.2,101c0,7.6-6.2,13.8-13.8,13.8c-7.6,0-13.8-6.2-13.8-13.8c0-7.6,6.2-13.8,13.8-13.8
				C284,87.2,290.2,93.4,290.2,101z"/>
			<path class="st3" d="M283,101c0,3.6-2.9,6.6-6.6,6.6c-3.6,0-6.6-2.9-6.6-6.6c0-3.6,2.9-6.6,6.6-6.6C280,94.4,283,97.4,283,101z"
				/>
			
				<linearGradient id="SVGID_00000010281141809021806880000000563368382141585850_" gradientUnits="userSpaceOnUse" x1="279.1488" y1="103.87" x2="273.9068" y2="98.3272">
				<stop  offset="0" style="stop-color:#E0E0E0"/>
				<stop  offset="1" style="stop-color:#949494"/>
			</linearGradient>
			<path style="display:none;fill:url(#SVGID_00000010281141809021806880000000563368382141585850_);" d="M280.1,101
				c0,2-1.6,3.6-3.7,3.6c-2,0-3.7-1.6-3.7-3.6c0-2,1.6-3.6,3.7-3.6C278.4,97.3,280.1,99,280.1,101z"/>
			<g class="st0">
				
					<linearGradient id="SVGID_00000060727342406897594740000011122670191353047738_" gradientUnits="userSpaceOnUse" x1="281.2241" y1="105.5789" x2="272.0575" y2="96.8135">
					<stop  offset="0" style="stop-color:#E0E0E0"/>
					<stop  offset="1" style="stop-color:#949494"/>
				</linearGradient>
				<path style="display:inline;fill:url(#SVGID_00000060727342406897594740000011122670191353047738_);" d="M276.4,106.8
					c-3.2,0-5.9-2.6-5.9-5.8c0-3.2,2.6-5.8,5.9-5.8c3.2,0,5.9,2.6,5.9,5.8C282.3,104.2,279.6,106.8,276.4,106.8z M276.4,95.7
					c-2.9,0-5.3,2.4-5.3,5.3c0,2.9,2.4,5.3,5.3,5.3c2.9,0,5.3-2.4,5.3-5.3C281.8,98,279.4,95.7,276.4,95.7z"/>
			</g>
			<path class="st5" d="M278.9,101c0,1.3-1.1,2.4-2.4,2.4c-1.3,0-2.4-1.1-2.4-2.4c0-1.3,1.1-2.4,2.4-2.4
				C277.8,98.6,278.9,99.6,278.9,101z"/>
		</g>
		<path class="st4" d="M364.5,46.6c-1.2,0-2.2,1-2.2,2.2v14.9c0,1.2,1,2.2,2.2,2.2H385c1.1,0,2-1.1,1.7-2.2l-3.4-15
			c-0.3-1.3-1.4-2.2-2.7-2.2H364.5z"/>
		<path class="st4" d="M365,47.1c-1.2,0-2.2,1-2.2,2.2v14c0,1.2,1,2.2,2.2,2.2h19.3c1.1,0,2-1.1,1.7-2.2L383,49.2
			c-0.3-1.3-1.4-2.2-2.7-2.2H365z"/>
		<g>
			<path class="st13" d="M363.7,72.8c0,0.9,0.7,1.6,1.6,1.6h3.9c0.9,0,1.6-0.7,1.6-1.6c0-0.9-0.7-1.6-1.6-1.6h-3.9
				C364.4,71.2,363.7,71.9,363.7,72.8z"/>
			<path class="st14" d="M362.3,72.4c-0.1,0.3,0.2,0.6,0.5,0.6h8.8c0.3,0,0.6-0.3,0.5-0.6l-0.2-1c-0.1-0.4-0.4-0.6-0.7-0.6h-8
				c-0.4,0-0.7,0.3-0.7,0.6L362.3,72.4z"/>
		</g>
		<g>
			<path class="st18" d="M380.9,64.5c-0.6-0.6-0.6-1.6,0-2.2c0.6-0.6,1.6-0.6,2.2,0l4.6,4.5c0.6,0.6,0.6,1.6,0,2.2
				c-0.6,0.6-1.6,0.6-2.2,0L380.9,64.5z"/>
			<path class="st18" d="M385.1,65.8c0,0.6-0.5,1.2-1.2,1.2h-4.2c-0.6,0-1.2-0.5-1.2-1.2v-9.9c0-0.6,0.5-1.2,1.2-1.2h4.2
				c0.6,0,1.2,0.5,1.2,1.2V65.8z"/>
		</g>
		<g class="st16">
			
				<linearGradient id="SVGID_00000101819029965405136050000017514012710046715019_" gradientUnits="userSpaceOnUse" x1="359.7741" y1="61.0902" x2="390.5681" y2="61.0902">
				<stop  offset="0" style="stop-color:#F0F0F0"/>
				<stop  offset="1" style="stop-color:#C0C0C0"/>
			</linearGradient>
			<path style="fill:url(#SVGID_00000101819029965405136050000017514012710046715019_);" d="M390.6,77.6h-0.8V69
				c0-1.4-0.2-2.9-0.6-4.3l-4.6-17.5c-0.3-1.1-1.3-1.9-2.4-1.9h-19.8c-1,0-1.8,0.8-1.8,1.8v30.4h-0.8V47.2c0-1.4,1.2-2.6,2.6-2.6
				h19.8c1.5,0,2.8,1,3.2,2.4l4.6,17.5c0.4,1.5,0.6,3,0.6,4.5V77.6z"/>
		</g>
		<path class="st36" d="M270.7,48.2c-0.7,0-1.2,0-1.8,0c-0.9,0-1.3-0.4-1.4-1.3c0-1.7,0-3.4,0-5.2c0-1,0.5-1.4,1.5-1.4
			c3.1,0,6.2,0,9.3,0c1.1,0,1.5,0.4,1.5,1.5c0,5.4,0,10.7,0,16.1c0,0.7,0.2,0.9,0.9,0.9c3.5,0,6.9,0,10.4,0c1.5,0,2-0.5,2-2
			c0-6.4,0-12.7,0-19.1c0-1.6-0.7-2.8-2.1-3.6c-4.4-2.4-8.9-4.9-13.3-7.4c-1.6-0.9-3.1-0.9-4.7,0c-4.3,2.5-8.7,4.9-13.1,7.3
			c-1.6,0.9-2.3,2.1-2.3,3.9c0,6.3,0,12.7,0,19c0,1.4,0.5,1.9,1.8,1.9c0.6,0,1.1,0,1.7,0c0.8,0,1.2,0.5,1.2,1.3c0,1.7,0,3.5,0,5.2
			c0,0.7-0.3,1.2-1,1.2c-2.5,0.1-5,0.1-7.2-1.2c-3-1.8-4.7-4.5-4.7-8c0-6.6,0-13.2,0-19.9c0-4.3,2-7.6,5.7-9.7
			c4.8-2.8,9.6-5.5,14.5-8.1c3.9-2.1,7.9-1.9,11.8,0.3c4.5,2.5,8.9,5,13.4,7.4c4.2,2.3,6.3,5.8,6.3,10.6c0,6.3-0.1,12.6,0,18.9
			c0.1,5.9-4.8,9.8-9.7,9.7c-6.3-0.1-12.7,0-19,0c-1.4,0-1.7-0.3-1.7-1.7c0-5.1,0-10.2,0-15.3C270.7,49.1,270.7,48.7,270.7,48.2z"/>
	</g>
	<g>
		<g>
			
				<rect x="23.3" y="54.4" transform="matrix(-1 -1.224647e-16 1.224647e-16 -1 119.831 169.1284)" class="st14" width="73.3" height="60.4"/>
			
				<rect x="59.9" y="54.4" transform="matrix(-1 -1.224647e-16 1.224647e-16 -1 193.0988 169.1284)" class="st3" width="73.3" height="60.4"/>
			<polygon class="st37" points="23.3,99.5 34.9,99.5 33.9,96.2 34.9,93.8 23.3,93.8 			"/>
			<polygon class="st14" points="59.9,73.1 71.5,73.1 70.5,69.8 71.5,67.5 59.9,67.5 			"/>
			<polygon class="st37" points="59.9,67.5 48.3,67.5 49.3,70.7 48.3,73.1 59.9,73.1 			"/>
			<polygon class="st14" points="133.2,100.1 121.6,100.1 122.6,103.4 121.6,105.7 133.2,105.7 			"/>
			<rect x="107.3" y="58.5" class="st38" width="21.1" height="8.2"/>
			<path class="st39" d="M72,101.5c-0.2,0-0.3,0-0.4,0c-0.2,0-0.3-0.1-0.3-0.3c0-0.4,0-0.8,0-1.3c0-0.2,0.1-0.3,0.4-0.3
				c0.8,0,1.5,0,2.3,0c0.3,0,0.4,0.1,0.4,0.4c0,1.3,0,2.6,0,3.9c0,0.2,0,0.2,0.2,0.2c0.9,0,1.7,0,2.6,0c0.4,0,0.5-0.1,0.5-0.5
				c0-1.6,0-3.1,0-4.7c0-0.4-0.2-0.7-0.5-0.9c-1.1-0.6-2.2-1.2-3.3-1.8c-0.4-0.2-0.8-0.2-1.2,0c-1.1,0.6-2.1,1.2-3.2,1.8
				c-0.4,0.2-0.6,0.5-0.6,1c0,1.6,0,3.1,0,4.7c0,0.3,0.1,0.5,0.4,0.5c0.1,0,0.3,0,0.4,0c0.2,0,0.3,0.1,0.3,0.3c0,0.4,0,0.9,0,1.3
				c0,0.2-0.1,0.3-0.2,0.3c-0.6,0-1.2,0-1.8-0.3c-0.7-0.4-1.1-1.1-1.1-2c0-1.6,0-3.3,0-4.9c0-1.1,0.5-1.9,1.4-2.4
				c1.2-0.7,2.4-1.3,3.6-2c1-0.5,2-0.5,2.9,0.1c1.1,0.6,2.2,1.2,3.3,1.8c1,0.6,1.5,1.4,1.5,2.6c0,1.6,0,3.1,0,4.7
				c0,1.5-1.2,2.4-2.4,2.4c-1.6,0-3.1,0-4.7,0c-0.3,0-0.4-0.1-0.4-0.4c0-1.3,0-2.5,0-3.8C72,101.8,72,101.7,72,101.5z"/>
		</g>
		<g>
			<rect x="63.1" y="19.3" class="st40" width="42.5" height="35"/>
			<rect x="41.8" y="19.3" class="st41" width="42.5" height="35"/>
			<polygon class="st42" points="105.5,45.4 98.8,45.4 99.4,43.6 98.8,42.2 105.5,42.2 			"/>
			<polygon class="st40" points="84.3,30.2 77.6,30.2 78.2,28.3 77.6,26.9 84.3,26.9 			"/>
			<polygon class="st42" points="84.3,26.9 91,26.9 90.4,28.8 91,30.2 84.3,30.2 			"/>
			<polygon class="st40" points="41.8,45.8 48.6,45.8 48,47.7 48.6,49.1 41.8,49.1 			"/>
			<path class="st43" d="M72,44.4c-0.2,0-0.3,0-0.4,0c-0.2,0-0.3-0.1-0.3-0.3c0-0.4,0-0.8,0-1.3c0-0.2,0.1-0.3,0.4-0.3
				c0.8,0,1.5,0,2.3,0c0.3,0,0.4,0.1,0.4,0.4c0,1.3,0,2.6,0,3.9c0,0.2,0,0.2,0.2,0.2c0.9,0,1.7,0,2.6,0c0.4,0,0.5-0.1,0.5-0.5
				c0-1.6,0-3.1,0-4.7c0-0.4-0.2-0.7-0.5-0.9c-1.1-0.6-2.2-1.2-3.3-1.8c-0.4-0.2-0.8-0.2-1.2,0c-1.1,0.6-2.1,1.2-3.2,1.8
				c-0.4,0.2-0.6,0.5-0.6,1c0,1.6,0,3.1,0,4.7c0,0.3,0.1,0.5,0.4,0.5c0.1,0,0.3,0,0.4,0c0.2,0,0.3,0.1,0.3,0.3c0,0.4,0,0.9,0,1.3
				c0,0.2-0.1,0.3-0.2,0.3c-0.6,0-1.2,0-1.8-0.3c-0.7-0.4-1.1-1.1-1.1-2c0-1.6,0-3.3,0-4.9c0-1.1,0.5-1.9,1.4-2.4
				c1.2-0.7,2.4-1.3,3.6-2c1-0.5,2-0.5,2.9,0.1c1.1,0.6,2.2,1.2,3.3,1.8c1,0.6,1.5,1.4,1.5,2.6c0,1.6,0,3.1,0,4.7
				c0,1.5-1.2,2.4-2.4,2.4c-1.6,0-3.1,0-4.7,0c-0.3,0-0.4-0.1-0.4-0.4c0-1.3,0-2.5,0-3.8C72,44.7,72,44.6,72,44.4z"/>
		</g>
		<g>
			<rect x="100.8" y="73.1" class="st40" width="50.6" height="41.7"/>
			<rect x="75.5" y="73.1" class="st41" width="50.6" height="41.7"/>
			<polygon class="st42" points="151.3,104.2 143.3,104.2 144,101.9 143.3,100.3 151.3,100.3 			"/>
			<polygon class="st40" points="126.1,86 118,86 118.7,83.7 118,82.1 126.1,82.1 			"/>
			<polygon class="st42" points="126.1,82.1 134.1,82.1 133.4,84.4 134.1,86 126.1,86 			"/>
			<polygon class="st40" points="75.5,104.6 83.5,104.6 82.8,106.9 83.5,108.5 75.5,108.5 			"/>
			<path class="st43" d="M112.5,104.3c-0.2,0-0.3,0-0.4,0c-0.2,0-0.3-0.1-0.3-0.3c0-0.4,0-0.8,0-1.3c0-0.2,0.1-0.3,0.4-0.3
				c0.8,0,1.5,0,2.3,0c0.3,0,0.4,0.1,0.4,0.4c0,1.3,0,2.6,0,3.9c0,0.2,0,0.2,0.2,0.2c0.9,0,1.7,0,2.6,0c0.4,0,0.5-0.1,0.5-0.5
				c0-1.6,0-3.1,0-4.7c0-0.4-0.2-0.7-0.5-0.9c-1.1-0.6-2.2-1.2-3.3-1.8c-0.4-0.2-0.8-0.2-1.2,0c-1.1,0.6-2.1,1.2-3.2,1.8
				c-0.4,0.2-0.6,0.5-0.6,1c0,1.6,0,3.1,0,4.7c0,0.3,0.1,0.5,0.4,0.5c0.1,0,0.3,0,0.4,0c0.2,0,0.3,0.1,0.3,0.3c0,0.4,0,0.9,0,1.3
				c0,0.2-0.1,0.3-0.2,0.3c-0.6,0-1.2,0-1.8-0.3c-0.7-0.4-1.1-1.1-1.1-2c0-1.6,0-3.3,0-4.9c0-1.1,0.5-1.9,1.4-2.4
				c1.2-0.7,2.4-1.3,3.6-2c1-0.5,2-0.5,2.9,0.1c1.1,0.6,2.2,1.2,3.3,1.8c1,0.6,1.5,1.4,1.5,2.6c0,1.6,0,3.1,0,4.7
				c0,1.5-1.2,2.4-2.4,2.4c-1.6,0-3.1,0-4.7,0c-0.3,0-0.4-0.1-0.4-0.4c0-1.3,0-2.5,0-3.8C112.5,104.6,112.5,104.5,112.5,104.3z"/>
		</g>
	</g>
	<g class="st0">
		<g class="st44">
			
				<rect x="157" y="-23" transform="matrix(-1 -1.224647e-16 1.224647e-16 -1 341.88 -22.9717)" class="st14" width="27.9" height="23"/>
			
				<rect x="170.9" y="-23" transform="matrix(-1 -1.224647e-16 1.224647e-16 -1 369.739 -22.9717)" class="st3" width="27.9" height="23"/>
			<polygon class="st37" points="157,-5.8 161.4,-5.8 161.1,-7.1 161.4,-8 157,-8 			"/>
			<polygon class="st14" points="170.9,-15.9 175.4,-15.9 175,-17.1 175.4,-18 170.9,-18 			"/>
			<polygon class="st37" points="170.9,-18 166.5,-18 166.9,-16.8 166.5,-15.9 170.9,-15.9 			"/>
			<polygon class="st14" points="198.8,-5.6 194.4,-5.6 194.8,-4.3 194.4,-3.4 198.8,-3.4 			"/>
			<rect x="189" y="-21.4" class="st38" width="8" height="3.1"/>
		</g>
		<g class="st44">
			
				<rect x="136.1" y="-46" transform="matrix(-1 -1.224647e-16 1.224647e-16 -1 300.0908 -68.99)" class="st14" width="27.9" height="23"/>
			
				<rect x="150" y="-46" transform="matrix(-1 -1.224647e-16 1.224647e-16 -1 327.9499 -68.99)" class="st3" width="27.9" height="23"/>
			<polygon class="st37" points="136.1,-28.8 140.5,-28.8 140.2,-30.1 140.5,-31 136.1,-31 			"/>
			<polygon class="st14" points="150,-38.9 154.5,-38.9 154.1,-40.1 154.5,-41 150,-41 			"/>
			<polygon class="st37" points="150,-41 145.6,-41 146,-39.8 145.6,-38.9 150,-38.9 			"/>
			<polygon class="st14" points="177.9,-28.6 173.5,-28.6 173.9,-27.3 173.5,-26.5 177.9,-26.5 			"/>
			<rect x="168.1" y="-44.4" class="st38" width="8" height="3.1"/>
		</g>
		<g class="st44">
			
				<rect x="112.2" y="-23" transform="matrix(-1 -1.224647e-16 1.224647e-16 -1 252.3324 -22.9717)" class="st14" width="27.9" height="23"/>
			
				<rect x="126.2" y="-23" transform="matrix(-1 -1.224647e-16 1.224647e-16 -1 280.1915 -22.9717)" class="st3" width="27.9" height="23"/>
			<polygon class="st37" points="112.3,-5.8 116.7,-5.8 116.3,-7.1 116.7,-8 112.3,-8 			"/>
			<polygon class="st14" points="126.2,-15.9 130.6,-15.9 130.2,-17.1 130.6,-18 126.2,-18 			"/>
			<polygon class="st37" points="126.2,-18 121.8,-18 122.1,-16.8 121.8,-15.9 126.2,-15.9 			"/>
			<polygon class="st14" points="154,-5.6 149.6,-5.6 150,-4.3 149.6,-3.4 154,-3.4 			"/>
			<rect x="144.2" y="-21.4" class="st38" width="8" height="3.1"/>
		</g>
		<path class="st45" d="M156.4-29.1c-0.1,0-0.2,0-0.2,0c-0.1,0-0.2-0.1-0.2-0.2c0-0.2,0-0.5,0-0.7c0-0.1,0.1-0.2,0.2-0.2
			c0.4,0,0.8,0,1.2,0c0.1,0,0.2,0.1,0.2,0.2c0,0.7,0,1.4,0,2.1c0,0.1,0,0.1,0.1,0.1c0.5,0,0.9,0,1.4,0c0.2,0,0.3-0.1,0.3-0.3
			c0-0.8,0-1.7,0-2.5c0-0.2-0.1-0.4-0.3-0.5c-0.6-0.3-1.2-0.6-1.8-1c-0.2-0.1-0.4-0.1-0.6,0c-0.6,0.3-1.2,0.6-1.7,1
			c-0.2,0.1-0.3,0.3-0.3,0.5c0,0.8,0,1.7,0,2.5c0,0.2,0.1,0.2,0.2,0.3c0.1,0,0.2,0,0.2,0c0.1,0,0.2,0.1,0.2,0.2c0,0.2,0,0.5,0,0.7
			c0,0.1,0,0.2-0.1,0.2c-0.3,0-0.7,0-1-0.2c-0.4-0.2-0.6-0.6-0.6-1.1c0-0.9,0-1.8,0-2.6c0-0.6,0.3-1,0.8-1.3
			c0.6-0.4,1.3-0.7,1.9-1.1c0.5-0.3,1.1-0.3,1.6,0c0.6,0.3,1.2,0.7,1.8,1c0.6,0.3,0.8,0.8,0.8,1.4c0,0.8,0,1.7,0,2.5
			c0,0.8-0.6,1.3-1.3,1.3c-0.8,0-1.7,0-2.5,0c-0.2,0-0.2,0-0.2-0.2c0-0.7,0-1.4,0-2C156.4-29,156.4-29.1,156.4-29.1z"/>
		<path class="st45" d="M133.4-6.1c-0.1,0-0.2,0-0.2,0c-0.1,0-0.2-0.1-0.2-0.2c0-0.2,0-0.5,0-0.7c0-0.1,0.1-0.2,0.2-0.2
			c0.4,0,0.8,0,1.2,0c0.1,0,0.2,0.1,0.2,0.2c0,0.7,0,1.4,0,2.1c0,0.1,0,0.1,0.1,0.1c0.5,0,0.9,0,1.4,0c0.2,0,0.3-0.1,0.3-0.3
			c0-0.8,0-1.7,0-2.5c0-0.2-0.1-0.4-0.3-0.5c-0.6-0.3-1.2-0.6-1.8-1c-0.2-0.1-0.4-0.1-0.6,0c-0.6,0.3-1.2,0.6-1.7,1
			c-0.2,0.1-0.3,0.3-0.3,0.5c0,0.8,0,1.7,0,2.5c0,0.2,0.1,0.2,0.2,0.3c0.1,0,0.2,0,0.2,0c0.1,0,0.2,0.1,0.2,0.2c0,0.2,0,0.5,0,0.7
			c0,0.1,0,0.2-0.1,0.2c-0.3,0-0.7,0-1-0.2c-0.4-0.2-0.6-0.6-0.6-1.1c0-0.9,0-1.8,0-2.6c0-0.6,0.3-1,0.8-1.3
			c0.6-0.4,1.3-0.7,1.9-1.1c0.5-0.3,1.1-0.3,1.6,0c0.6,0.3,1.2,0.7,1.8,1c0.6,0.3,0.8,0.8,0.8,1.4c0,0.8,0,1.7,0,2.5
			c0,0.8-0.6,1.3-1.3,1.3c-0.8,0-1.7,0-2.5,0c-0.2,0-0.2,0-0.2-0.2c0-0.7,0-1.4,0-2C133.4-6,133.4-6,133.4-6.1z"/>
		<path class="st45" d="M178.2-6.1c-0.1,0-0.2,0-0.2,0c-0.1,0-0.2-0.1-0.2-0.2c0-0.2,0-0.5,0-0.7c0-0.1,0.1-0.2,0.2-0.2
			c0.4,0,0.8,0,1.2,0c0.1,0,0.2,0.1,0.2,0.2c0,0.7,0,1.4,0,2.1c0,0.1,0,0.1,0.1,0.1c0.5,0,0.9,0,1.4,0c0.2,0,0.3-0.1,0.3-0.3
			c0-0.8,0-1.7,0-2.5c0-0.2-0.1-0.4-0.3-0.5c-0.6-0.3-1.2-0.6-1.8-1c-0.2-0.1-0.4-0.1-0.6,0c-0.6,0.3-1.2,0.6-1.7,1
			c-0.2,0.1-0.3,0.3-0.3,0.5c0,0.8,0,1.7,0,2.5c0,0.2,0.1,0.2,0.2,0.3c0.1,0,0.2,0,0.2,0c0.1,0,0.2,0.1,0.2,0.2c0,0.2,0,0.5,0,0.7
			c0,0.1,0,0.2-0.1,0.2c-0.3,0-0.7,0-1-0.2c-0.4-0.2-0.6-0.6-0.6-1.1c0-0.9,0-1.8,0-2.6c0-0.6,0.3-1,0.8-1.3
			c0.6-0.4,1.3-0.7,1.9-1.1c0.5-0.3,1.1-0.3,1.6,0c0.6,0.3,1.2,0.7,1.8,1c0.6,0.3,0.8,0.8,0.8,1.4c0,0.8,0,1.7,0,2.5
			c0,0.8-0.6,1.3-1.3,1.3c-0.8,0-1.7,0-2.5,0c-0.2,0-0.2,0-0.2-0.2c0-0.7,0-1.4,0-2C178.2-6,178.2-6,178.2-6.1z"/>
	</g>
	<g class="st0">
		<g class="st44">
			<g>
				<path class="st46" d="M81.5,522.8l-1-4.6l-6.1,3.8l3.5,2.8C77.9,524.8,79,522,81.5,522.8z"/>
				<path class="st18" d="M41.6,540c0,0-7.1,3.2-14.9,7.1c-7.8,3.9-9.7,3.5-10.8,2.4c-1.1-1.1-1.2-3.7-1.2-3.7s-1.8,2.7-0.9,6.1
					c0.9,3.4,3.7,3.5,3.7,3.5l2-1.2l-1.3,2.3c0,0,2.8,1.4,5.3-1.1c2.6-2.6,3.1-4.2,3.1-4.2s-1,4-2,5c0,0,2.9,1.3,4.6-1
					c1.7-2.3,2.4-5.2,2.4-5.2l-0.6,5.4c0,0,2.6-1,4.1-5.2l-0.8,4c0,0,2.7-3.7,3.7-7.8c1.1-4.1,3.3-4.6,3.3-4.6L41.6,540z"/>
				<path class="st18" d="M55.1,553.8c0,0,0.3,8.7-5.6,11.9c-1.4,0.8-3.7,3.6-3.3,5.2c0.4,1.5,3.9,4.5,3.9,4.5s2.4,0.2,3.5,2.9
					c0.2,0.4-0.6,0.3-0.6,0.3l-6.2,0l-5.3-9.1l0.4-5.7l3.5-8.9l6.6-1.1L55.1,553.8z"/>
				<path class="st18" d="M84.2,548.3c0,0,7.9,11.9,9.6,14.5c1.2,1.8,1.2,4.1,1.2,4.1s-0.3,3.6-1.1,4.3c-0.1,0.1-0.3,0.2-0.5,0.3
					c-1.8,0.5-3.4-1.3-2.9-3.1c0.2-0.8,0.4-1.6,0.4-1.9c0-0.8-0.4-0.9-0.4-0.9l-8.7-5l-2.9-8.4L84.2,548.3z"/>
				<path class="st47" d="M78.5,550.9l-1.4,11.3l0.7,12.9c0,0,2.8,0.7,3.6,2.1c0.8,1.4,0.7,1.7,0.7,1.7h-6.6c0,0-5.4-12.9-5.4-14.3
					c0-1.4-1.4-9.4-1.4-10.5c0-1.1,0.9-5.8,4.1-6.2C75.8,547.6,78.5,550.9,78.5,550.9z"/>
				<path class="st47" d="M87.7,521l-1.7-2.3c0,0-5.6-1.6-8,0.8c-0.8,0.8-1.6,1.9-2,3.4c-0.2,0.8-0.2,2.3-0.2,3.7
					c0,1.6-0.3,2.6-0.9,4c-1.1,1.7-5.7,5.2-7.5,5.7l1.3-0.2c0,0-2.5,1.3-4.5,1.7c-7.9,1.2-19.9,1.5-22.5,2.2
					c-3.2,0.9-5.1,10.2-4.2,14.9c0.9,4.7-5.6,2.8-7.1,5.9c-1.5,2.9,4.2,16.1,4.2,16.1s1.5,1.8,1.7,2h6.4c0,0-0.2-4.1-3.4-5.2
					c-3.2-1.1-2.7-7.9-2.7-7.9s9.1,1.3,13.6-4.7c3.5-4.6,3.1-5.8,2.8-6.1c1.7,0.9,13.3,7.2,19.2,6.1c6.3-1.2,7.8-4,7.8-4l0.1,1.7
					c0,0,4.3-1.5,3.8-5c0,0,0.6,0.5,0.6,1.4c0,0,1.8-2.4,1.8-9.9c0-4.2-0.2-14.8-0.2-14.8s7.6-1.4,8.5-2.4c0.7-0.7,1.5-5.5,1.5-5.5
					L87.7,521z"/>
				<path class="st18" d="M74.4,522c0,0,1.5,3.3,3.1,3.8c1.6,0.5,3-7.6,3-7.6s-2.2-0.9-4.1,1C75.6,520,74.4,522,74.4,522z"/>
			</g>
			<path class="st48" d="M79.2,552.9c-1.9,2.2-0.2,0.2-1.5,1.7c-0.3-2.7,0.6-6,1.3-8.6c-1.2,1.3-2.7,3.8-3.5,4.8
				c1.3-2.3,1-6.7,0.7-9.4c0,0-1.5,1.8-2.2,2.6c-0.1-1.2-0.3-3.8,0.1-4.9c0.4-1.2,1.6-2.6,2.5-3.4c-1,0.8-2.3,2.1-2.7,3.3
				c-0.7,1.7-0.2,5.8-0.2,6.1c2.2-2.5,0.7-0.8,2.1-2.4c0.1,2.2,0.4,6.8-0.7,8.6c1.2-0.8,2.3-2.4,3-3.7c-1.8,4.7-0.6,7.4-0.6,7.5
				c0,0,0.1-0.1,1.5-2c0.1,0.3,0.2,0.9,0.3,1.2C79.4,554.2,79.3,553.2,79.2,552.9z"/>
		</g>
		<path class="st49" d="M74.3,530.1l-1,2.1c0,0,1,7.3,12.9,6.5l0.4-3.1C86.6,535.7,75.7,535.3,74.3,530.1z"/>
	</g>
	<g class="st0">
		<g class="st44">
			
				<rect x="639.1" y="30" transform="matrix(-1 -1.224647e-16 1.224647e-16 -1 1295.4467 74.1416)" class="st14" width="17.3" height="14.2"/>
			
				<rect x="647.7" y="30" transform="matrix(-1 -1.224647e-16 1.224647e-16 -1 1312.7102 74.1416)" class="st3" width="17.3" height="14.2"/>
			<polygon class="st37" points="639.1,40.6 641.8,40.6 641.6,39.8 641.8,39.3 639.1,39.3 			"/>
			<polygon class="st14" points="647.7,34.4 650.5,34.4 650.2,33.6 650.5,33 647.7,33 			"/>
			<polygon class="st37" points="647.7,33 645,33 645.2,33.8 645,34.4 647.7,34.4 			"/>
			<polygon class="st14" points="665,40.7 662.3,40.7 662.5,41.5 662.3,42.1 665,42.1 			"/>
			<rect x="658.9" y="30.9" class="st38" width="5" height="1.9"/>
		</g>
		<g class="st44">
			
				<rect x="626.1" y="15.7" transform="matrix(-1 -1.224647e-16 1.224647e-16 -1 1269.5508 45.6251)" class="st14" width="17.3" height="14.2"/>
			
				<rect x="634.8" y="15.7" transform="matrix(-1 -1.224647e-16 1.224647e-16 -1 1286.8145 45.6251)" class="st3" width="17.3" height="14.2"/>
			<polygon class="st37" points="626.2,26.3 628.9,26.3 628.6,25.6 628.9,25 626.2,25 			"/>
			<polygon class="st14" points="634.8,20.1 637.5,20.1 637.3,19.3 637.5,18.8 634.8,18.8 			"/>
			<polygon class="st37" points="634.8,18.8 632,18.8 632.3,19.6 632,20.1 634.8,20.1 			"/>
			<polygon class="st14" points="652,26.5 649.3,26.5 649.5,27.2 649.3,27.8 652,27.8 			"/>
			<rect x="645.9" y="16.7" class="st38" width="5" height="1.9"/>
		</g>
		<g class="st44">
			
				<rect x="611.3" y="30" transform="matrix(-1 -1.224647e-16 1.224647e-16 -1 1239.9561 74.1416)" class="st14" width="17.3" height="14.2"/>
			
				<rect x="620" y="30" transform="matrix(-1 -1.224647e-16 1.224647e-16 -1 1257.2197 74.1416)" class="st3" width="17.3" height="14.2"/>
			<polygon class="st37" points="611.4,40.6 614.1,40.6 613.9,39.8 614.1,39.3 611.4,39.3 			"/>
			<polygon class="st14" points="620,34.4 622.7,34.4 622.5,33.6 622.7,33 620,33 			"/>
			<polygon class="st37" points="620,33 617.2,33 617.5,33.8 617.2,34.4 620,34.4 			"/>
			<polygon class="st14" points="637.2,40.7 634.5,40.7 634.7,41.5 634.5,42.1 637.2,42.1 			"/>
			<rect x="631.1" y="30.9" class="st38" width="5" height="1.9"/>
		</g>
		<path class="st45" d="M638.7,26.1c-0.1,0-0.1,0-0.1,0c-0.1,0-0.1,0-0.1-0.1c0-0.1,0-0.3,0-0.4c0-0.1,0-0.1,0.1-0.1
			c0.3,0,0.5,0,0.8,0c0.1,0,0.1,0,0.1,0.1c0,0.4,0,0.9,0,1.3c0,0.1,0,0.1,0.1,0.1c0.3,0,0.6,0,0.9,0c0.1,0,0.2,0,0.2-0.2
			c0-0.5,0-1,0-1.6c0-0.1-0.1-0.2-0.2-0.3c-0.4-0.2-0.7-0.4-1.1-0.6c-0.1-0.1-0.3-0.1-0.4,0c-0.4,0.2-0.7,0.4-1.1,0.6
			c-0.1,0.1-0.2,0.2-0.2,0.3c0,0.5,0,1,0,1.6c0,0.1,0,0.2,0.2,0.2c0,0,0.1,0,0.1,0c0.1,0,0.1,0,0.1,0.1c0,0.1,0,0.3,0,0.4
			c0,0.1,0,0.1-0.1,0.1c-0.2,0-0.4,0-0.6-0.1c-0.2-0.2-0.4-0.4-0.4-0.7c0-0.5,0-1.1,0-1.6c0-0.4,0.2-0.6,0.5-0.8
			c0.4-0.2,0.8-0.5,1.2-0.7c0.3-0.2,0.7-0.2,1,0c0.4,0.2,0.7,0.4,1.1,0.6c0.3,0.2,0.5,0.5,0.5,0.9c0,0.5,0,1,0,1.6
			c0,0.5-0.4,0.8-0.8,0.8c-0.5,0-1,0-1.6,0c-0.1,0-0.1,0-0.1-0.1c0-0.4,0-0.8,0-1.3C638.7,26.2,638.7,26.2,638.7,26.1z"/>
		<path class="st45" d="M624.5,40.4c-0.1,0-0.1,0-0.1,0c-0.1,0-0.1,0-0.1-0.1c0-0.1,0-0.3,0-0.4c0-0.1,0-0.1,0.1-0.1
			c0.3,0,0.5,0,0.8,0c0.1,0,0.1,0,0.1,0.1c0,0.4,0,0.9,0,1.3c0,0.1,0,0.1,0.1,0.1c0.3,0,0.6,0,0.9,0c0.1,0,0.2,0,0.2-0.2
			c0-0.5,0-1,0-1.6c0-0.1-0.1-0.2-0.2-0.3c-0.4-0.2-0.7-0.4-1.1-0.6c-0.1-0.1-0.3-0.1-0.4,0c-0.4,0.2-0.7,0.4-1.1,0.6
			c-0.1,0.1-0.2,0.2-0.2,0.3c0,0.5,0,1,0,1.6c0,0.1,0,0.2,0.2,0.2c0,0,0.1,0,0.1,0c0.1,0,0.1,0,0.1,0.1c0,0.1,0,0.3,0,0.4
			c0,0.1,0,0.1-0.1,0.1c-0.2,0-0.4,0-0.6-0.1c-0.2-0.2-0.4-0.4-0.4-0.7c0-0.5,0-1.1,0-1.6c0-0.4,0.2-0.6,0.5-0.8
			c0.4-0.2,0.8-0.5,1.2-0.7c0.3-0.2,0.7-0.2,1,0c0.4,0.2,0.7,0.4,1.1,0.6c0.3,0.2,0.5,0.5,0.5,0.9c0,0.5,0,1,0,1.6
			c0,0.5-0.4,0.8-0.8,0.8c-0.5,0-1,0-1.6,0c-0.1,0-0.1,0-0.1-0.1c0-0.4,0-0.8,0-1.3C624.5,40.5,624.5,40.4,624.5,40.4z"/>
		<path class="st45" d="M652.2,40.4c-0.1,0-0.1,0-0.1,0c-0.1,0-0.1,0-0.1-0.1c0-0.1,0-0.3,0-0.4c0-0.1,0-0.1,0.1-0.1
			c0.3,0,0.5,0,0.8,0c0.1,0,0.1,0,0.1,0.1c0,0.4,0,0.9,0,1.3c0,0.1,0,0.1,0.1,0.1c0.3,0,0.6,0,0.9,0c0.1,0,0.2,0,0.2-0.2
			c0-0.5,0-1,0-1.6c0-0.1-0.1-0.2-0.2-0.3c-0.4-0.2-0.7-0.4-1.1-0.6c-0.1-0.1-0.3-0.1-0.4,0c-0.4,0.2-0.7,0.4-1.1,0.6
			c-0.1,0.1-0.2,0.2-0.2,0.3c0,0.5,0,1,0,1.6c0,0.1,0,0.2,0.2,0.2c0,0,0.1,0,0.1,0c0.1,0,0.1,0,0.1,0.1c0,0.1,0,0.3,0,0.4
			c0,0.1,0,0.1-0.1,0.1c-0.2,0-0.4,0-0.6-0.1c-0.2-0.2-0.4-0.4-0.4-0.7c0-0.5,0-1.1,0-1.6c0-0.4,0.2-0.6,0.5-0.8
			c0.4-0.2,0.8-0.5,1.2-0.7c0.3-0.2,0.7-0.2,1,0c0.4,0.2,0.7,0.4,1.1,0.6c0.3,0.2,0.5,0.5,0.5,0.9c0,0.5,0,1,0,1.6
			c0,0.5-0.4,0.8-0.8,0.8c-0.5,0-1,0-1.6,0c-0.1,0-0.1,0-0.1-0.1c0-0.4,0-0.8,0-1.3C652.2,40.5,652.2,40.4,652.2,40.4z"/>
	</g>
</g>
</svg>
